{
.appVersion = "3097";
classes = (
{
automatic = 1;

glyphs = (
{
glyphname = "hamza-ar";
layers = (
{
anchors = (
{
name = bottom;
position = "{119, -189}";
},
{
name = bottom.mark;
position = "{149, -189}";
},
{
name = top;
position = "{272, 584}";
},
{
name = top.mark;
position = "{294, 576}";
}
);
layerId = "1467EB51-6BD4-4CFC-AEAA-3E4EB1A95CFA";
paths = (
{
closed = 1;
nodes = (
"54 0 OFFCURVE",
"36 3 OFFCURVE",
"61 19 CURVE SMOOTH",
"105 47 OFFCURVE",
"185 75 OFFCURVE",
"233 99 CURVE SMOOTH",
"257 111 OFFCURVE",
"246 121 OFFCURVE",
"229 125 CURVE SMOOTH",
"194 133 OFFCURVE",
"167 152 OFFCURVE",
"156 171 CURVE SMOOTH",
"130 216 OFFCURVE",
"221 334 OFFCURVE",
"312 397 CURVE SMOOTH",
"327 408 OFFCURVE",
"362 428 OFFCURVE",
"376 428 CURVE SMOOTH",
"390 428 OFFCURVE",
"378 405 OFFCURVE",
"368 388 CURVE SMOOTH",
"358 371 OFFCURVE",
"333 341 OFFCURVE",
"325 326 CURVE",
"287 316 OFFCURVE",
"264 308 OFFCURVE",
"236 284 CURVE",
"262 238 OFFCURVE",
"334 254 OFFCURVE",
"339 203 CURVE SMOOTH",
"341 184 OFFCURVE",
"315 152 OFFCURVE",
"287 113 CURVE SMOOTH",
"257 72 OFFCURVE",
"228 34 OFFCURVE",
"194 18 CURVE SMOOTH",
"169 6 OFFCURVE",
"123 0 OFFCURVE",
"84 0 CURVE SMOOTH"
);
}
);
width = 431;
},
{
anchors = (
{
name = bottom;
position = "{119, -189}";
},
{
name = bottom.mark;
position = "{149, -189}";
},
{
name = top;
position = "{272, 584}";
},
{
name = top.mark;
position = "{294, 576}";
}
);
layerId = "EF321139-F770-433D-B2B6-C3EFA1B16465";
paths = (
{
closed = 1;
nodes = (
"65 0 OFFCURVE",
"39 -2 OFFCURVE",
"39 18 CURVE SMOOTH",
"39 27 OFFCURVE",
"51 35 OFFCURVE",
"58 40 CURVE SMOOTH",
"96 65 OFFCURVE",
"144 84 OFFCURVE",
"188 103 CURVE",
"225 118 LINE",
"228 119 LINE",
"204 125 OFFCURVE",
"181 133 OFFCURVE",
"166 148 CURVE",
"166 147 LINE",
"148 163 OFFCURVE",
"138 181 OFFCURVE",
"138 198 CURVE SMOOTH",
"138 202 OFFCURVE",
"139 206 OFFCURVE",
"140 210 CURVE SMOOTH",
"151 253 OFFCURVE",
"177 288 OFFCURVE",
"203 319 CURVE SMOOTH",
"217 336 OFFCURVE",
"233 353 OFFCURVE",
"251 369 CURVE SMOOTH",
"288 402 OFFCURVE",
"322 424 OFFCURVE",
"353 434 CURVE SMOOTH",
"358 436 OFFCURVE",
"363 437 OFFCURVE",
"367 437 CURVE SMOOTH",
"379 437 OFFCURVE",
"385 431 OFFCURVE",
"385 420 CURVE SMOOTH",
"385 407 OFFCURVE",
"377 396 OFFCURVE",
"369 381 CURVE SMOOTH",
"362 368 OFFCURVE",
"353 355 OFFCURVE",
"344 343 CURVE SMOOTH",
"337 333 OFFCURVE",
"333 328 OFFCURVE",
"328 320 CURVE",
"321 315 LINE",
"291 307 OFFCURVE",
"270 301 OFFCURVE",
"248 284 CURVE",
"260 271 OFFCURVE",
"278 267 OFFCURVE",
"295 260 CURVE SMOOTH",
"315 251 OFFCURVE",
"343 239 OFFCURVE",
"343 211 CURVE SMOOTH",
"343 209 OFFCURVE",
"343 209 OFFCURVE",
"343 208 CURVE SMOOTH",
"343 201 OFFCURVE",
"340 192 OFFCURVE",
"335 181 CURVE SMOOTH",
"330 170 OFFCURVE",
"322 159 OFFCURVE",
"312 145 CURVE SMOOTH",
"263 77 LINE SMOOTH",
"245 53 OFFCURVE",
"223 34 OFFCURVE",
"197 19 CURVE SMOOTH",
"173 6 OFFCURVE",
"126 0 OFFCURVE",
"85 0 CURVE SMOOTH"
);
}
);
width = 431;
},
{
associatedMasterId = "1467EB51-6BD4-4CFC-AEAA-3E4EB1A95CFA";
layerId = "8FA8D4BE-FDF6-4067-903C-E6AA9B20CFF0";
name = Back;
paths = (
{
closed = 1;
nodes = (
"299.805 318.848 OFFCURVE",
"279.053 311.035 OFFCURVE",
"258.301 303.223 OFFCURVE",
"236.328 284.18 QCURVE",
"249.023 262.695 OFFCURVE",
"273.926 254.395 OFFCURVE",
"298.828 246.094 OFFCURVE",
"317.139 236.084 OFFCURVE",
"335.449 226.074 OFFCURVE",
"338.379 207.031 QCURVE SMOOTH",
"338.867 205.078 OFFCURVE",
"338.867 203.125 QCURVE SMOOTH",
"338.867 183.594 OFFCURVE",
"310.059 144.531 QCURVE SMOOTH",
"284.18 109.375 OFFCURVE",
"258.545 74.219 OFFCURVE",
"232.91 39.062 OFFCURVE",
"194.336 18.066 QCURVE SMOOTH",
"170.898 4.883 OFFCURVE",
"126.953 1.953 QCURVE SMOOTH",
"103.027 0.488 OFFCURVE",
"84.473 0.488 QCURVE SMOOTH",
"69.336 0.488 OFFCURVE",
"57.617 1.465 QCURVE SMOOTH",
"48.828 2.441 OFFCURVE",
"48.828 5.859 QCURVE SMOOTH",
"48.828 10.254 OFFCURVE",
"62.012 18.555 QCURVE SMOOTH",
"85.938 33.691 OFFCURVE",
"123.291 51.025 OFFCURVE",
"160.645 68.359 OFFCURVE",
"195.801 83.008 OFFCURVE",
"230.957 97.656 OFFCURVE",
"233.398 98.633 QCURVE SMOOTH",
"245.605 104.004 OFFCURVE",
"247.07 108.887 QCURVE",
"247.07 110.84 LINE SMOOTH",
"247.07 120.117 OFFCURVE",
"228.516 124.512 QCURVE SMOOTH",
"194.824 132.324 OFFCURVE",
"175.781 149.902 QCURVE",
"151.367 170.898 OFFCURVE",
"151.367 192.383 QCURVE SMOOTH",
"151.367 197.266 OFFCURVE",
"152.832 202.637 QCURVE SMOOTH",
"159.668 229.004 OFFCURVE",
"177.246 257.324 QCURVE SMOOTH",
"209.961 310.059 OFFCURVE",
"264.893 359.863 OFFCURVE",
"319.824 409.668 OFFCURVE",
"365.234 425.293 QCURVE SMOOTH",
"372.07 427.734 OFFCURVE",
"375.977 427.734 QCURVE SMOOTH",
"382.324 427.734 OFFCURVE",
"382.324 422.363 QCURVE SMOOTH",
"382.324 420.898 OFFCURVE",
"381.836 419.922 QCURVE SMOOTH",
"379.395 407.227 OFFCURVE",
"368.164 388.184 OFFCURVE",
"356.934 369.141 OFFCURVE",
"342.773 350.342 OFFCURVE",
"328.613 331.543 OFFCURVE",
"325.195 325.684 QCURVE"
);
}
);
width = 431;
},
{
associatedMasterId = "EF321139-F770-433D-B2B6-C3EFA1B16465";
layerId = "E538A617-D84A-48C8-90DD-64171AE925D7";
name = Back;
paths = (
{
closed = 1;
nodes = (
"300.293 309.082 OFFCURVE",
"282.715 302.979 OFFCURVE",
"265.137 296.875 OFFCURVE",
"248.047 284.18 QCURVE",
"252.93 278.809 OFFCURVE",
"258.789 275.146 OFFCURVE",
"264.648 271.484 OFFCURVE",
"271.973 269.043 QCURVE SMOOTH",
"283.691 265.137 OFFCURVE",
"294.922 260.254 OFFCURVE",
"306.152 255.371 OFFCURVE",
"315.43 250 QCURVE SMOOTH",
"326.66 244.141 OFFCURVE",
"333.496 235.352 OFFCURVE",
"340.332 226.562 OFFCURVE",
"342.285 214.844 QCURVE SMOOTH",
"342.773 213.379 OFFCURVE",
"342.773 211.426 OFFCURVE",
"342.773 209.473 OFFCURVE",
"342.773 208.008 QCURVE SMOOTH",
"342.773 196.777 OFFCURVE",
"334.961 180.908 OFFCURVE",
"327.148 165.039 OFFCURVE",
"312.5 144.531 QCURVE SMOOTH",
"262.695 76.66 LINE",
"235.84 41.016 OFFCURVE",
"197.266 19.043 QCURVE SMOOTH",
"171.875 4.883 OFFCURVE",
"127.441 1.953 QCURVE SMOOTH",
"104.004 0.488 OFFCURVE",
"85.449 0.488 QCURVE SMOOTH",
"77.637 0.488 OFFCURVE",
"70.801 0.732 OFFCURVE",
"63.965 0.977 OFFCURVE",
"58.594 1.465 QCURVE SMOOTH",
"48.828 2.441 OFFCURVE",
"43.945 5.859 OFFCURVE",
"39.062 9.277 OFFCURVE",
"39.062 17.578 QCURVE SMOOTH",
"39.062 22.461 OFFCURVE",
"44.189 28.32 OFFCURVE",
"49.316 34.18 OFFCURVE",
"57.617 39.551 QCURVE SMOOTH",
"69.824 47.363 OFFCURVE",
"84.961 55.42 OFFCURVE",
"100.098 63.477 OFFCURVE",
"117.676 71.777 QCURVE",
"117.188 71.777 LINE",
"135.742 80.078 OFFCURVE",
"153.32 87.891 OFFCURVE",
"170.898 95.703 OFFCURVE",
"187.988 103.027 QCURVE SMOOTH",
"225.098 118.164 LINE",
"224.609 118.164 LINE",
"227.539 119.141 LINE",
"221.68 120.605 LINE SMOOTH",
"204.59 125 OFFCURVE",
"190.186 131.592 OFFCURVE",
"175.781 138.184 OFFCURVE",
"165.527 147.949 QCURVE",
"165.527 147.461 LINE",
"138.184 171.875 OFFCURVE",
"138.184 197.754 QCURVE SMOOTH",
"138.184 204.59 OFFCURVE",
"140.137 210.938 QCURVE",
"140.137 210.449 LINE",
"143.555 224.121 OFFCURVE",
"149.902 237.793 OFFCURVE",
"156.25 251.465 OFFCURVE",
"165.039 266.602 QCURVE SMOOTH",
"181.641 293.457 OFFCURVE",
"202.881 318.848 OFFCURVE",
"224.121 344.238 OFFCURVE",
"251.465 368.652 QCURVE SMOOTH",
"306.641 418.457 OFFCURVE",
"352.539 434.082 QCURVE SMOOTH",
"360.352 437.012 OFFCURVE",
"366.699 437.012 QCURVE SMOOTH",
"384.766 437.012 OFFCURVE",
"384.766 419.922 QCURVE SMOOTH",
"384.766 416.016 OFFCURVE",
"383.789 413.574 QCURVE SMOOTH",
"380.371 400.391 OFFCURVE",
"369.385 381.104 OFFCURVE",
"358.398 361.816 OFFCURVE",
"344.238 343.262 QCURVE",
"337.402 333.496 OFFCURVE",
"333.252 328.125 OFFCURVE",
"329.102 322.754 OFFCURVE",
"327.637 320.312 QCURVE",
"321.289 314.941 LINE"
);
}
);
width = 431;
}
);
unicode = 0621;
},
{
glyphname = "alef-ar";
layers = (
{
anchors = (
{
name = bottom;
position = "{128, -22}";
},
{
name = bottom.mark;
position = "{145, -31}";
},
{
name = top;
position = "{121, 791}";
},
{
name = top.mark;
position = "{129, 835}";
}
);
layerId = "1467EB51-6BD4-4CFC-AEAA-3E4EB1A95CFA";
paths = (
{
closed = 1;
nodes = (
"147 687 LINE",
"175 262 LINE",
"101 144 LINE",
"73 569 LINE"
);
}
);
width = 248;
},
{
anchors = (
{
name = bottom;
position = "{132, -22}";
},
{
name = bottom.mark;
position = "{148, -31}";
},
{
name = top;
position = "{124, 791}";
},
{
name = top.mark;
position = "{133, 835}";
}
);
layerId = "EF321139-F770-433D-B2B6-C3EFA1B16465";
paths = (
{
closed = 1;
nodes = (
"136 681 LINE SMOOTH",
"142 690 OFFCURVE",
"157 688 OFFCURVE",
"158 676 CURVE",
"186 261 LINE",
"112 145 LINE SMOOTH",
"106 135 OFFCURVE",
"92 138 OFFCURVE",
"91 150 CURVE",
"63 564 LINE"
);
}
);
width = 248;
},
{
associatedMasterId = "1467EB51-6BD4-4CFC-AEAA-3E4EB1A95CFA";
layerId = "3D32B070-5D36-4270-A7EC-98825BE27953";
name = Back;
paths = (
{
closed = 1;
nodes = (
"146.973 686.035 LINE",
"175.293 261.23 LINE",
"101.562 144.043 LINE",
"73.242 568.848 LINE"
);
}
);
width = 248;
},
{
associatedMasterId = "EF321139-F770-433D-B2B6-C3EFA1B16465";
layerId = "247D950D-9B35-45BC-8294-2945A488A4C2";
name = Back;
paths = (
{
closed = 1;
nodes = (
"136.23 680.664 LINE SMOOTH",
"138.672 684.57 OFFCURVE",
"142.334 685.791 OFFCURVE",
"145.996 687.012 OFFCURVE",
"149.414 686.279 OFFCURVE",
"152.832 685.547 OFFCURVE",
"155.273 682.861 OFFCURVE",
"157.715 680.176 OFFCURVE",
"158.203 675.781 QCURVE SMOOTH",
"186.035 261.23 LINE",
"112.305 145.02 LINE SMOOTH",
"107.422 137.207 OFFCURVE",
"99.609 139.16 OFFCURVE",
"91.797 141.113 OFFCURVE",
"90.82 149.902 QCURVE SMOOTH",
"62.988 564.453 LINE"
);
}
);
width = 248;
}
);
unicode = 0627;
},
{
glyphname = "alef-ar.fina";
layers = (
{
anchors = (
{
name = bottom;
position = "{125, -185}";
},
{
name = bottom.mark;
position = "{208, -189}";
},
{
name = entry;
position = "{112, 0}";
},
{
name = top;
position = "{112, 800}";
},
{
name = top.mark;
position = "{116, 791}";
}
);
layerId = "1467EB51-6BD4-4CFC-AEAA-3E4EB1A95CFA";
paths = (
{
closed = 1;
nodes = (
"136 687 LINE",
"174 118 LINE",
"112 0 LINE",
"73 570 LINE"
);
}
);
width = 112;
},
{
anchors = (
{
name = bottom;
position = "{125, -185}";
},
{
name = bottom.mark;
position = "{208, -189}";
},
{
name = entry;
position = "{107, 0}";
},
{
name = top;
position = "{112, 800}";
},
{
name = top.mark;
position = "{116, 791}";
}
);
layerId = "EF321139-F770-433D-B2B6-C3EFA1B16465";
paths = (
{
closed = 1;
nodes = (
"123 681 LINE SMOOTH",
"128 691 OFFCURVE",
"144 688 OFFCURVE",
"145 677 CURVE SMOOTH",
"182 124 LINE",
"121 6 LINE SMOOTH",
"116 -3 OFFCURVE",
"99 -2 OFFCURVE",
"99 11 CURVE",
"60 565 LINE"
);
}
);
width = 112;
},
{
associatedMasterId = "1467EB51-6BD4-4CFC-AEAA-3E4EB1A95CFA";
layerId = "058EC9B2-D9CC-4F5D-A55F-E95EDBB6120D";
name = Back;
paths = (
{
closed = 1;
nodes = (
"136.23 687.012 LINE",
"174.316 118.164 LINE",
"112.305 0 LINE",
"73.242 569.824 LINE"
);
}
);
width = 112;
},
{
associatedMasterId = "EF321139-F770-433D-B2B6-C3EFA1B16465";
layerId = "A8317FD2-624E-46DC-97CD-9C14FB7AF965";
name = Back;
paths = (
{
closed = 1;
nodes = (
"123.047 681.152 LINE SMOOTH",
"125 685.059 OFFCURVE",
"128.662 686.523 OFFCURVE",
"132.324 687.988 OFFCURVE",
"135.742 687.256 OFFCURVE",
"139.16 686.523 OFFCURVE",
"141.846 683.838 OFFCURVE",
"144.531 681.152 OFFCURVE",
"145.02 676.758 QCURVE SMOOTH",
"182.129 123.535 LINE",
"120.605 6.348 LINE SMOOTH",
"118.164 1.953 OFFCURVE",
"114.746 0.488 OFFCURVE",
"111.328 -0.977 OFFCURVE",
"107.666 -0.244 OFFCURVE",
"104.004 0.488 OFFCURVE",
"101.318 3.418 OFFCURVE",
"98.633 6.348 OFFCURVE",
"98.633 10.742 QCURVE SMOOTH",
"60.059 564.941 LINE"
);
}
);
width = 112;
}
);
},
{
glyphname = "alef-ar.fina.lam";
layers = (
{
anchors = (
{
name = bottom;
position = "{317, -204}";
},
{
name = bottom.mark;
position = "{317, -113}";
},
{
name = entry;
position = "{-27, 0}";
},
{
name = top;
position = "{285, 714}";
},
{
name = top.mark;
position = "{290, 671}";
}
);
layerId = "1467EB51-6BD4-4CFC-AEAA-3E4EB1A95CFA";
paths = (
{
closed = 1;
nodes = (
"366 460 OFFCURVE",
"382 365 OFFCURVE",
"390 257 CURVE",
"323 145 LINE",
"289 444 LINE",
"354 564 LINE"
);
}
);
width = 394;
},
{
anchors = (
{
name = bottom;
position = "{317, -204}";
},
{
name = bottom.mark;
position = "{317, -113}";
},
{
name = entry;
position = "{-27, 0}";
},
{
name = top;
position = "{285, 714}";
},
{
name = top.mark;
position = "{290, 671}";
}
);
layerId = "EF321139-F770-433D-B2B6-C3EFA1B16465";
paths = (
{
closed = 1;
nodes = (
"323 142 OFFCURVE",
"307 143 OFFCURVE",
"306 155 CURVE SMOOTH",
"272 448 LINE",
"337 568 LINE SMOOTH",
"342 578 OFFCURVE",
"358 574 OFFCURVE",
"359 563 CURVE SMOOTH",
"364 527 OFFCURVE",
"368 493 OFFCURVE",
"373 457 CURVE",
"382 397 OFFCURVE",
"390 327 OFFCURVE",
"395 263 CURVE",
"329 151 LINE SMOOTH"
);
}
);
width = 394;
},
{
associatedMasterId = "1467EB51-6BD4-4CFC-AEAA-3E4EB1A95CFA";
layerId = "A06EA403-22CD-4D22-B302-C0F5A6600EAF";
name = Back;
paths = (
{
closed = 1;
nodes = (
"288.574 444.336 LINE",
"353.516 564.453 LINE",
"362.305 486.816 OFFCURVE",
"373.047 411.865 OFFCURVE",
"383.789 336.914 OFFCURVE",
"389.648 256.836 QCURVE",
"323.242 145.02 LINE"
);
}
);
width = 394;
},
{
associatedMasterId = "EF321139-F770-433D-B2B6-C3EFA1B16465";
layerId = "CE400564-3237-4D19-BDCD-6926D2C4CB36";
name = Back;
paths = (
{
closed = 1;
nodes = (
"326.172 146.973 OFFCURVE",
"322.51 145.508 OFFCURVE",
"318.848 144.043 OFFCURVE",
"315.43 144.775 OFFCURVE",
"312.012 145.508 OFFCURVE",
"309.326 148.193 OFFCURVE",
"306.641 150.879 OFFCURVE",
"306.152 155.273 QCURVE SMOOTH",
"272.461 448.242 LINE",
"336.914 567.871 LINE SMOOTH",
"338.867 571.777 OFFCURVE",
"342.529 573.242 OFFCURVE",
"346.191 574.707 OFFCURVE",
"349.609 573.975 OFFCURVE",
"353.027 573.242 OFFCURVE",
"355.713 570.557 OFFCURVE",
"358.398 567.871 OFFCURVE",
"358.887 563.477 QCURVE SMOOTH",
"362.305 536.133 OFFCURVE",
"365.723 509.521 OFFCURVE",
"369.141 482.91 OFFCURVE",
"372.559 456.543 QCURVE",
"379.395 410.645 OFFCURVE",
"385.01 360.84 OFFCURVE",
"390.625 311.035 OFFCURVE",
"394.531 262.695 QCURVE",
"328.613 150.879 LINE SMOOTH"
);
}
);
width = 394;
}
);
},
{
glyphname = "behDotless-ar";
layers = (
{
anchors = (
{
name = bottom;
position = "{308, -136}";
},
{
name = bottom.mark;
position = "{330, -185}";
},
{
name = top;
position = "{397, 505}";
},
{
name = top.mark;
position = "{347, 532}";
}
);
layerId = "1467EB51-6BD4-4CFC-AEAA-3E4EB1A95CFA";
paths = (
{
closed = 1;
nodes = (
"696 456 LINE",
"696 456 OFFCURVE",
"759 335 OFFCURVE",
"699 215 CURVE SMOOTH",
"646 107 OFFCURVE",
"441 1 OFFCURVE",
"275 1 CURVE SMOOTH",
"264 1 OFFCURVE",
"86 -13 OFFCURVE",
"86 152 CURVE SMOOTH",
"86 207 OFFCURVE",
"123 288 OFFCURVE",
"177 369 CURVE SMOOTH",
"188 385 OFFCURVE",
"196 380 OFFCURVE",
"192 372 CURVE SMOOTH",
"184 357 OFFCURVE",
"147 300 OFFCURVE",
"144 240 CURVE SMOOTH",
"140 155 OFFCURVE",
"219 124 OFFCURVE",
"306 124 CURVE SMOOTH",
"456 124 OFFCURVE",
"650 221 OFFCURVE",
"650 221 CURVE",
"651 244 OFFCURVE",
"632 308 OFFCURVE",
"619 342 CURVE"
);
}
);
width = 801;
},
{
anchors = (
{
name = bottom;
position = "{308, -136}";
},
{
name = bottom.mark;
position = "{330, -185}";
},
{
name = top;
position = "{397, 505}";
},
{
name = top.mark;
position = "{347, 532}";
}
);
layerId = "EF321139-F770-433D-B2B6-C3EFA1B16465";
paths = (
{
closed = 1;
nodes = (
"192 397 OFFCURVE",
"200 387 OFFCURVE",
"200 376 CURVE SMOOTH",
"200 372 OFFCURVE",
"198 367 OFFCURVE",
"195 360 CURVE",
"170 312 OFFCURVE",
"157 274 OFFCURVE",
"157 244 CURVE SMOOTH",
"157 169 OFFCURVE",
"225 143 OFFCURVE",
"302 143 CURVE SMOOTH",
"401 143 OFFCURVE",
"499 172 OFFCURVE",
"569 206 CURVE SMOOTH",
"623 232 LINE",
"621 259 OFFCURVE",
"611 286 OFFCURVE",
"604 309 CURVE SMOOTH",
"601 320 OFFCURVE",
"597 330 OFFCURVE",
"594 339 CURVE SMOOTH",
"593 342 OFFCURVE",
"594 347 OFFCURVE",
"595 349 CURVE SMOOTH",
"669 458 LINE SMOOTH",
"675 467 OFFCURVE",
"687 466 OFFCURVE",
"690 456 CURVE SMOOTH",
"713 385 LINE SMOOTH",
"719 367 OFFCURVE",
"722 349 OFFCURVE",
"722 329 CURVE SMOOTH",
"722 284 OFFCURVE",
"709 249 OFFCURVE",
"693 214 CURVE",
"672 169 OFFCURVE",
"631 129 OFFCURVE",
"571 92 CURVE",
"502 50 OFFCURVE",
"422 17 OFFCURVE",
"327 5 CURVE SMOOTH",
"308 3 OFFCURVE",
"289 1 OFFCURVE",
"272 1 CURVE SMOOTH",
"171 1 OFFCURVE",
"103 32 OFFCURVE",
"76 107 CURVE SMOOTH",
"69 124 OFFCURVE",
"66 143 OFFCURVE",
"66 165 CURVE SMOOTH",
"66 192 OFFCURVE",
"73 221 OFFCURVE",
"86 252 CURVE",
"108 300 OFFCURVE",
"129 343 OFFCURVE",
"155 384 CURVE",
"162 393 OFFCURVE",
"170 397 OFFCURVE",
"178 397 CURVE SMOOTH"
);
}
);
width = 801;
},
{
associatedMasterId = "1467EB51-6BD4-4CFC-AEAA-3E4EB1A95CFA";
layerId = "3AF9BACF-8D7F-4F42-A9B2-539802AA4FAD";
name = Back;
paths = (
{
closed = 1;
nodes = (
"666.992 148.438 OFFCURVE",
"577.637 93.506 OFFCURVE",
"488.281 38.574 OFFCURVE",
"388.184 15.137 QCURVE SMOOTH",
"329.102 0.977 OFFCURVE",
"274.902 0.977 QCURVE SMOOTH",
"236.328 0.977 OFFCURVE",
"199.707 8.301 QCURVE SMOOTH",
"111.816 24.902 OFFCURVE",
"83.008 103.027 QCURVE SMOOTH",
"73.242 129.395 OFFCURVE",
"73.242 158.203 QCURVE SMOOTH",
"73.242 198.73 OFFCURVE",
"93.262 244.141 QCURVE SMOOTH",
"127.441 320.312 OFFCURVE",
"164.062 377.93 QCURVE",
"170.41 386.719 OFFCURVE",
"177.246 386.719 QCURVE SMOOTH",
"179.688 386.719 OFFCURVE",
"182.129 385.742 QCURVE SMOOTH",
"187.5 383.301 OFFCURVE",
"187.5 376.953 QCURVE SMOOTH",
"187.5 372.559 OFFCURVE",
"184.57 365.723 QCURVE",
"143.555 289.062 OFFCURVE",
"143.555 239.746 QCURVE SMOOTH",
"143.555 230.469 OFFCURVE",
"145.02 222.656 QCURVE SMOOTH",
"153.809 169.922 OFFCURVE",
"198.73 146.484 QCURVE",
"241.211 123.535 OFFCURVE",
"305.664 123.535 QCURVE SMOOTH",
"309.082 123.535 OFFCURVE",
"312.5 124.023 QCURVE SMOOTH",
"381.348 125 OFFCURVE",
"453.125 142.578 QCURVE SMOOTH",
"524.414 159.668 OFFCURVE",
"587.402 190.43 QCURVE SMOOTH",
"649.902 221.191 LINE",
"649.902 223.145 LINE SMOOTH",
"649.902 241.699 OFFCURVE",
"640.137 276.367 QCURVE",
"629.395 312.012 OFFCURVE",
"619.141 342.285 QCURVE",
"695.801 455.566 LINE",
"719.727 382.324 LINE SMOOTH",
"728.027 356.445 OFFCURVE",
"728.027 328.613 QCURVE SMOOTH",
"728.027 275.879 OFFCURVE",
"698.73 214.844 QCURVE SMOOTH"
);
}
);
width = 801;
},
{
associatedMasterId = "EF321139-F770-433D-B2B6-C3EFA1B16465";
layerId = "2E5647EB-20F9-4CBA-BBD9-E5AF0462A5A6";
name = Back;
paths = (
{
closed = 1;
nodes = (
"660.645 147.461 OFFCURVE",
"571.289 91.797 QCURVE",
"527.832 65.43 OFFCURVE",
"480.225 46.143 OFFCURVE",
"432.617 26.855 OFFCURVE",
"384.766 15.137 QCURVE SMOOTH",
"355.469 8.301 OFFCURVE",
"326.904 4.639 OFFCURVE",
"298.34 0.977 OFFCURVE",
"272.461 0.977 QCURVE SMOOTH",
"252.93 0.977 OFFCURVE",
"233.887 2.686 OFFCURVE",
"214.844 4.395 OFFCURVE",
"197.266 7.812 QCURVE SMOOTH",
"152.344 17.578 OFFCURVE",
"121.338 41.748 OFFCURVE",
"90.332 65.918 OFFCURVE",
"75.684 106.934 QCURVE SMOOTH",
"70.312 120.605 OFFCURVE",
"68.115 135.01 OFFCURVE",
"65.918 149.414 OFFCURVE",
"65.918 164.551 QCURVE SMOOTH",
"65.918 205.566 OFFCURVE",
"85.938 252.441 QCURVE",
"103.027 290.039 OFFCURVE",
"120.117 322.51 OFFCURVE",
"137.207 354.98 OFFCURVE",
"155.273 383.789 QCURVE",
"166.016 397.461 OFFCURVE",
"178.223 397.461 QCURVE SMOOTH",
"182.617 397.461 OFFCURVE",
"185.547 396.484 QCURVE SMOOTH",
"199.707 390.137 OFFCURVE",
"199.707 375.977 QCURVE SMOOTH",
"199.707 370.117 OFFCURVE",
"195.312 359.863 QCURVE",
"157.227 288.574 OFFCURVE",
"157.227 243.652 QCURVE SMOOTH",
"157.227 236.328 OFFCURVE",
"158.691 229.004 QCURVE SMOOTH",
"166.992 184.082 OFFCURVE",
"204.59 163.574 QCURVE SMOOTH",
"242.676 143.066 OFFCURVE",
"302.246 143.066 QCURVE SMOOTH",
"304.199 143.066 OFFCURVE",
"306.152 143.555 QCURVE SMOOTH",
"374.512 144.531 OFFCURVE",
"441.895 161.133 QCURVE SMOOTH",
"475.586 169.434 OFFCURVE",
"507.812 180.664 OFFCURVE",
"540.039 191.895 OFFCURVE",
"569.336 206.055 QCURVE SMOOTH",
"622.559 231.934 LINE",
"622.07 240.234 OFFCURVE",
"619.873 251.221 OFFCURVE",
"617.676 262.207 OFFCURVE",
"613.77 275.391 QCURVE SMOOTH",
"608.398 292.48 OFFCURVE",
"603.516 308.594 OFFCURVE",
"598.633 324.707 OFFCURVE",
"593.75 338.867 QCURVE SMOOTH",
"592.773 340.82 OFFCURVE",
"593.506 343.994 OFFCURVE",
"594.238 347.168 OFFCURVE",
"595.215 349.121 QCURVE SMOOTH",
"669.434 458.496 LINE SMOOTH",
"673.828 465.332 OFFCURVE",
"680.908 464.355 OFFCURVE",
"687.988 463.379 OFFCURVE",
"690.43 455.566 QCURVE SMOOTH",
"713.379 384.766 LINE SMOOTH",
"722.168 358.398 OFFCURVE",
"722.168 329.102 QCURVE SMOOTH",
"722.168 301.758 OFFCURVE",
"714.6 273.438 OFFCURVE",
"707.031 245.117 OFFCURVE",
"692.871 214.355 QCURVE"
);
}
);
width = 801;
}
);
unicode = 066E;
},
{
glyphname = "behDotless-ar.jalt";
layers = (
{
anchors = (
{
name = bottom;
position = "{488, -163}";
},
{
name = bottom.mark;
position = "{479, -158}";
},
{
name = top;
position = "{523, 338}";
},
{
name = top.mark;
position = "{505, 795}";
}
);
layerId = "1467EB51-6BD4-4CFC-AEAA-3E4EB1A95CFA";
paths = (
{
closed = 1;
nodes = (
"178 21 OFFCURVE",
"102 51 OFFCURVE",
"59 98 CURVE SMOOTH",
"-33 198 OFFCURVE",
"-7 321 OFFCURVE",
"72 422 CURVE SMOOTH",
"152 524 OFFCURVE",
"266 581 OFFCURVE",
"409 618 CURVE SMOOTH",
"473 635 OFFCURVE",
"545 645 OFFCURVE",
"624 648 CURVE",
"571 535 LINE",
"489 532 OFFCURVE",
"403 518 OFFCURVE",
"313 490 CURVE SMOOTH",
"223 462 OFFCURVE",
"148 420 OFFCURVE",
"87 362 CURVE SMOOTH",
"69 344 OFFCURVE",
"58 326 OFFCURVE",
"56 306 CURVE SMOOTH",
"54 286 OFFCURVE",
"69 262 OFFCURVE",
"101 235 CURVE SMOOTH",
"186 162 OFFCURVE",
"306 126 OFFCURVE",
"463 128 CURVE",
"543 134 OFFCURVE",
"623 142 OFFCURVE",
"695 158 CURVE SMOOTH",
"731 165 OFFCURVE",
"773 180 OFFCURVE",
"822 201 CURVE SMOOTH",
"895 233 OFFCURVE",
"896 233 OFFCURVE",
"896 233 CURVE",
"898 266 OFFCURVE",
"875 326 OFFCURVE",
"865 354 CURVE",
"942 468 LINE",
"942 468 OFFCURVE",
"942 468 OFFCURVE",
"966 394 CURVE SMOOTH",
"982 345 OFFCURVE",
"975 289 OFFCURVE",
"945 227 CURVE SMOOTH",
"920 176 OFFCURVE",
"881 134 OFFCURVE",
"828 102 CURVE SMOOTH",
"731 44 OFFCURVE",
"601 8 OFFCURVE",
"458 2 CURVE SMOOTH",
"393 -1 OFFCURVE",
"336 1 OFFCURVE",
"287 7 CURVE SMOOTH"
);
}
);
width = 1038;
},
{
anchors = (
{
name = bottom;
position = "{488, -163}";
},
{
name = bottom.mark;
position = "{479, -158}";
},
{
name = top;
position = "{523, 338}";
},
{
name = top.mark;
position = "{505, 795}";
}
);
layerId = "EF321139-F770-433D-B2B6-C3EFA1B16465";
paths = (
{
closed = 1;
nodes = (
"301 0 OFFCURVE",
"210 15 OFFCURVE",
"146 40 CURVE SMOOTH",
"108 55 OFFCURVE",
"78 74 OFFCURVE",
"56 98 CURVE SMOOTH",
"16 141 OFFCURVE",
"-3 189 OFFCURVE",
"-3 241 CURVE SMOOTH",
"-3 244 OFFCURVE",
"-3 245 OFFCURVE",
"-3 249 CURVE SMOOTH",
"-3 281 OFFCURVE",
"7 312 OFFCURVE",
"20 343 CURVE SMOOTH",
"83 497 OFFCURVE",
"230 576 OFFCURVE",
"401 621 CURVE SMOOTH",
"464 637 OFFCURVE",
"534 647 OFFCURVE",
"611 650 CURVE SMOOTH",
"619 651 OFFCURVE",
"627 642 OFFCURVE",
"622 633 CURVE",
"571 524 LINE SMOOTH",
"570 521 OFFCURVE",
"565 517 OFFCURVE",
"561 517 CURVE SMOOTH",
"470 514 OFFCURVE",
"392 498 OFFCURVE",
"314 474 CURVE",
"228 448 OFFCURVE",
"157 407 OFFCURVE",
"100 353 CURVE SMOOTH",
"85 339 OFFCURVE",
"76 323 OFFCURVE",
"74 306 CURVE SMOOTH",
"73 291 OFFCURVE",
"86 272 OFFCURVE",
"113 248 CURVE SMOOTH",
"190 181 OFFCURVE",
"299 147 OFFCURVE",
"441 147 CURVE SMOOTH",
"455 147 LINE",
"552 155 OFFCURVE",
"654 164 OFFCURVE",
"733 191 CURVE SMOOTH",
"773 205 OFFCURVE",
"824 228 OFFCURVE",
"862 245 CURVE",
"860 270 OFFCURVE",
"850 298 OFFCURVE",
"843 320 CURVE SMOOTH",
"840 331 OFFCURVE",
"836 341 OFFCURVE",
"833 351 CURVE SMOOTH",
"832 354 OFFCURVE",
"833 359 OFFCURVE",
"834 361 CURVE SMOOTH",
"919 469 LINE",
"933 449 OFFCURVE",
"943 423 OFFCURVE",
"952 396 CURVE SMOOTH",
"957 380 OFFCURVE",
"961 360 OFFCURVE",
"961 340 CURVE SMOOTH",
"961 305 OFFCURVE",
"952 267 OFFCURVE",
"932 226 CURVE SMOOTH",
"907 175 OFFCURVE",
"868 133 OFFCURVE",
"814 100 CURVE SMOOTH",
"718 43 OFFCURVE",
"596 9 OFFCURVE",
"452 1 CURVE SMOOTH",
"443 0 OFFCURVE",
"434 0 OFFCURVE",
"424 0 CURVE SMOOTH",
"410 0 OFFCURVE",
"409 0 OFFCURVE",
"396 0 CURVE SMOOTH"
);
}
);
width = 1038;
},
{
associatedMasterId = "1467EB51-6BD4-4CFC-AEAA-3E4EB1A95CFA";
layerId = "F862CB5E-F740-4EBD-8244-16EDB3150491";
name = Back;
paths = (
{
closed = 1;
nodes = (
"123.047 27.832 OFFCURVE",
"58.594 97.9 OFFCURVE",
"-5.859 167.969 OFFCURVE",
"0.732 253.174 OFFCURVE",
"7.324 338.379 OFFCURVE",
"72.021 421.631 OFFCURVE",
"136.719 504.883 OFFCURVE",
"231.445 552.734 QCURVE SMOOTH",
"312.5 593.262 OFFCURVE",
"409.18 618.408 OFFCURVE",
"505.859 643.555 OFFCURVE",
"624.023 647.949 QCURVE",
"571.289 535.156 LINE",
"448.242 531.25 OFFCURVE",
"312.988 489.99 OFFCURVE",
"177.734 448.73 OFFCURVE",
"86.914 361.816 QCURVE SMOOTH",
"59.57 335.449 OFFCURVE",
"56.396 305.664 OFFCURVE",
"53.223 275.879 OFFCURVE",
"101.074 234.863 QCURVE SMOOTH",
"228.027 125 OFFCURVE",
"463.379 128.418 QCURVE",
"520.508 132.812 OFFCURVE",
"579.346 139.16 OFFCURVE",
"638.184 145.508 OFFCURVE",
"695.312 158.203 QCURVE",
"749.023 169.434 OFFCURVE",
"822.266 201.416 OFFCURVE",
"895.508 233.398 OFFCURVE",
"895.508 233.398 QCURVE",
"896.484 252.441 OFFCURVE",
"885.986 288.33 OFFCURVE",
"875.488 324.219 OFFCURVE",
"865.234 354.492 QCURVE",
"941.895 467.773 LINE",
"941.895 467.773 OFFCURVE",
"965.576 394.043 OFFCURVE",
"989.258 320.312 OFFCURVE",
"944.824 226.562 QCURVE",
"907.715 149.414 OFFCURVE",
"827.881 101.807 OFFCURVE",
"748.047 54.199 OFFCURVE",
"652.344 30.029 OFFCURVE",
"556.641 5.859 OFFCURVE",
"458.496 1.709 OFFCURVE",
"360.352 -2.441 OFFCURVE",
"287.109 6.836 QCURVE SMOOTH"
);
}
);
width = 1038;
},
{
associatedMasterId = "EF321139-F770-433D-B2B6-C3EFA1B16465";
layerId = "8932F04D-F5B6-46AC-B5B4-4F4253C12936";
name = Back;
paths = (
{
closed = 1;
nodes = (
"202.148 17.578 OFFCURVE",
"145.508 40.039 OFFCURVE",
"88.867 62.5 OFFCURVE",
"56.152 98.145 QCURVE SMOOTH",
"-3.418 162.598 OFFCURVE",
"-3.418 241.211 QCURVE SMOOTH",
"-3.418 244.629 OFFCURVE",
"-3.418 249.023 OFFCURVE",
"-3.418 253.418 OFFCURVE",
"-2.93 257.324 QCURVE SMOOTH",
"1.465 298.828 OFFCURVE",
"19.531 342.773 OFFCURVE",
"37.598 386.719 OFFCURVE",
"68.359 426.27 QCURVE SMOOTH",
"131.836 508.789 OFFCURVE",
"226.562 556.152 QCURVE SMOOTH",
"306.152 596.191 OFFCURVE",
"400.879 620.85 OFFCURVE",
"495.605 645.508 OFFCURVE",
"610.84 649.902 QCURVE SMOOTH",
"617.676 650.391 OFFCURVE",
"621.582 644.775 OFFCURVE",
"625.488 639.16 OFFCURVE",
"622.07 632.812 QCURVE SMOOTH",
"571.289 523.926 LINE SMOOTH",
"570.312 521.484 OFFCURVE",
"566.895 519.287 OFFCURVE",
"563.477 517.09 OFFCURVE",
"560.547 517.09 QCURVE SMOOTH",
"501.465 515.137 OFFCURVE",
"440.43 504.639 OFFCURVE",
"379.395 494.141 OFFCURVE",
"313.965 473.633 QCURVE",
"185.547 434.57 OFFCURVE",
"100.098 353.027 QCURVE SMOOTH",
"77.148 331.543 OFFCURVE",
"74.219 305.664 QCURVE",
"72.266 283.691 OFFCURVE",
"113.281 247.559 QCURVE",
"229.004 147.461 OFFCURVE",
"441.406 147.461 QCURVE SMOOTH",
"455.078 147.461 LINE",
"509.766 151.855 OFFCURVE",
"567.627 158.203 OFFCURVE",
"625.488 164.551 OFFCURVE",
"677.734 175.781 QCURVE SMOOTH",
"702.637 181.152 OFFCURVE",
"732.666 191.406 OFFCURVE",
"762.695 201.66 OFFCURVE",
"797.852 217.285 QCURVE SMOOTH",
"815.43 225.098 OFFCURVE",
"827.637 230.225 OFFCURVE",
"839.844 235.352 OFFCURVE",
"847.656 238.77 QCURVE SMOOTH",
"856.445 242.676 OFFCURVE",
"861.816 245.117 QCURVE",
"861.328 252.93 OFFCURVE",
"858.887 263.184 OFFCURVE",
"856.445 273.438 OFFCURVE",
"852.539 287.109 QCURVE SMOOTH",
"847.656 304.199 OFFCURVE",
"842.773 320.068 OFFCURVE",
"837.891 335.938 OFFCURVE",
"833.008 350.586 QCURVE SMOOTH",
"832.031 352.539 OFFCURVE",
"832.764 355.713 OFFCURVE",
"833.496 358.887 OFFCURVE",
"834.473 360.84 QCURVE SMOOTH",
"918.945 469.238 LINE",
"924.316 461.426 OFFCURVE",
"929.688 450.684 QCURVE SMOOTH",
"934.57 441.406 OFFCURVE",
"940.43 427.734 OFFCURVE",
"946.289 414.062 OFFCURVE",
"952.148 396.484 QCURVE SMOOTH",
"956.543 383.789 OFFCURVE",
"958.74 369.141 OFFCURVE",
"960.938 354.492 OFFCURVE",
"960.938 340.332 QCURVE SMOOTH",
"960.938 287.598 OFFCURVE",
"931.641 225.586 QCURVE",
"894.531 148.926 OFFCURVE",
"813.965 100.098 QCURVE SMOOTH",
"775.391 77.148 OFFCURVE",
"731.445 59.326 OFFCURVE",
"687.5 41.504 OFFCURVE",
"641.602 29.297 QCURVE",
"595.215 17.578 OFFCURVE",
"546.875 10.742 OFFCURVE",
"498.535 3.906 OFFCURVE",
"451.66 1.465 QCURVE SMOOTH",
"437.988 0.488 OFFCURVE",
"423.584 0.488 OFFCURVE",
"409.18 0.488 OFFCURVE",
"396.484 0.488 QCURVE SMOOTH",
"365.234 0.488 OFFCURVE",
"337.158 1.953 OFFCURVE",
"309.082 3.418 OFFCURVE",
"284.18 6.836 QCURVE SMOOTH"
);
}
);
width = 1038;
}
);
},
{
glyphname = "behDotless-ar.fina";
layers = (
{
anchors = (
{
name = bottom;
position = "{242, -193}";
},
{
name = bottom.mark;
position = "{255, -185}";
},
{
name = entry;
position = "{492, 26}";
},
{
name = top;
position = "{352, 413}";
},
{
name = top.mark;
position = "{365, 453}";
}
);
layerId = "1467EB51-6BD4-4CFC-AEAA-3E4EB1A95CFA";
paths = (
{
closed = 1;
nodes = (
"432 20 OFFCURVE",
"329 0 OFFCURVE",
"245 0 CURVE SMOOTH",
"204 0 OFFCURVE",
"0 -2 OFFCURVE",
"0 159 CURVE SMOOTH",
"0 186 OFFCURVE",
"6 215 OFFCURVE",
"19 245 CURVE SMOOTH",
"42 296 OFFCURVE",
"66 340 OFFCURVE",
"90 379 CURVE SMOOTH",
"101 396 OFFCURVE",
"119 389 OFFCURVE",
"110 367 CURVE SMOOTH",
"86 322 OFFCURVE",
"73 284 OFFCURVE",
"71 243 CURVE SMOOTH",
"68 172 OFFCURVE",
"114 127 OFFCURVE",
"288 127 CURVE SMOOTH",
"324 127 OFFCURVE",
"468 134 OFFCURVE",
"537 170 CURVE SMOOTH",
"556 180 OFFCURVE",
"572 200 OFFCURVE",
"581 220 CURVE SMOOTH",
"587 234 OFFCURVE",
"585 207 OFFCURVE",
"585 206 CURVE SMOOTH",
"579 184 OFFCURVE",
"566 153 OFFCURVE",
"551 118 CURVE SMOOTH",
"536 83 OFFCURVE",
"516 52 OFFCURVE",
"491 26 CURVE",
"490 26 LINE SMOOTH",
"488 26 OFFCURVE",
"487 27 OFFCURVE",
"487 31 CURVE SMOOTH",
"487 34 OFFCURVE",
"488 38 OFFCURVE",
"489 43 CURVE"
);
}
);
width = 490;
},
{
anchors = (
{
name = bottom;
position = "{242, -193}";
},
{
name = bottom.mark;
position = "{255, -185}";
},
{
name = entry;
position = "{492, 26}";
},
{
name = top;
position = "{352, 413}";
},
{
name = top.mark;
position = "{365, 453}";
}
);
layerId = "EF321139-F770-433D-B2B6-C3EFA1B16465";
paths = (
{
closed = 1;
nodes = (
"402 14 OFFCURVE",
"325 0 OFFCURVE",
"242 0 CURVE SMOOTH",
"237 0 OFFCURVE",
"236 0 OFFCURVE",
"231 0 CURVE SMOOTH",
"177 0 OFFCURVE",
"128 11 OFFCURVE",
"87 26 CURVE",
"29 49 OFFCURVE",
"-8 92 OFFCURVE",
"-8 166 CURVE SMOOTH",
"-8 222 OFFCURVE",
"26 282 OFFCURVE",
"47 323 CURVE SMOOTH",
"58 345 OFFCURVE",
"70 366 OFFCURVE",
"82 385 CURVE",
"89 394 OFFCURVE",
"96 398 OFFCURVE",
"104 398 CURVE SMOOTH",
"118 398 OFFCURVE",
"126 388 OFFCURVE",
"126 377 CURVE SMOOTH",
"126 372 OFFCURVE",
"125 367 OFFCURVE",
"122 361 CURVE",
"99 318 OFFCURVE",
"87 282 OFFCURVE",
"85 253 CURVE",
"85 247 LINE SMOOTH",
"85 223 OFFCURVE",
"92 203 OFFCURVE",
"103 189 CURVE",
"135 153 OFFCURVE",
"210 147 OFFCURVE",
"278 147 CURVE SMOOTH",
"307 147 LINE",
"350 149 OFFCURVE",
"393 154 OFFCURVE",
"435 162 CURVE",
"476 170 OFFCURVE",
"503 179 OFFCURVE",
"518 187 CURVE",
"534 195 OFFCURVE",
"546 209 OFFCURVE",
"554 228 CURVE",
"559 235 OFFCURVE",
"564 239 OFFCURVE",
"569 239 CURVE SMOOTH",
"578 239 OFFCURVE",
"582 233 OFFCURVE",
"582 222 CURVE SMOOTH",
"582 200 OFFCURVE",
"574 187 OFFCURVE",
"567 168 CURVE SMOOTH",
"555 136 OFFCURVE",
"540 99 OFFCURVE",
"522 71 CURVE SMOOTH",
"512 56 OFFCURVE",
"500 41 OFFCURVE",
"487 28 CURVE SMOOTH",
"486 27 OFFCURVE",
"481 25 OFFCURVE",
"479 25 CURVE SMOOTH",
"471 25 OFFCURVE",
"466 29 OFFCURVE",
"464 36 CURVE"
);
}
);
width = 490;
},
{
associatedMasterId = "1467EB51-6BD4-4CFC-AEAA-3E4EB1A95CFA";
layerId = "29856C48-3ECF-4B98-BE76-EA647630D0C3";
name = Back;
paths = (
{
closed = 1;
nodes = (
"-0.977 130.371 OFFCURVE",
"-0.977 159.18 QCURVE SMOOTH",
"-0.977 199.707 OFFCURVE",
"19.043 244.629 QCURVE SMOOTH",
"53.223 320.801 OFFCURVE",
"89.844 378.906 QCURVE",
"96.191 387.695 OFFCURVE",
"103.027 387.695 QCURVE SMOOTH",
"105.469 387.695 OFFCURVE",
"107.91 386.719 QCURVE SMOOTH",
"113.281 384.277 OFFCURVE",
"113.281 377.93 QCURVE SMOOTH",
"113.281 373.535 OFFCURVE",
"110.352 366.699 QCURVE",
"72.754 297.363 OFFCURVE",
"70.801 250.488 QCURVE",
"70.801 243.164 LINE SMOOTH",
"70.801 201.66 OFFCURVE",
"92.285 175.781 QCURVE SMOOTH",
"117.676 145.02 OFFCURVE",
"180.664 135.254 QCURVE SMOOTH",
"229.004 127.441 OFFCURVE",
"282.227 127.441 QCURVE SMOOTH",
"297.363 127.441 OFFCURVE",
"313.477 127.93 QCURVE SMOOTH",
"383.789 130.859 OFFCURVE",
"447.266 143.311 OFFCURVE",
"510.742 155.762 OFFCURVE",
"537.109 170.41 QCURVE SMOOTH",
"565.918 186.035 OFFCURVE",
"579.59 219.238 QCURVE",
"582.031 222.656 OFFCURVE",
"583.496 222.656 QCURVE SMOOTH",
"584.961 222.656 OFFCURVE",
"584.961 217.285 QCURVE SMOOTH",
"584.961 208.008 OFFCURVE",
"583.984 205.566 QCURVE SMOOTH",
"572.754 170.41 OFFCURVE",
"550.781 117.92 OFFCURVE",
"528.809 65.43 OFFCURVE",
"491.211 25.879 QCURVE",
"490.234 25.879 LINE SMOOTH",
"486.816 25.879 OFFCURVE",
"486.816 31.25 QCURVE SMOOTH",
"486.816 35.645 OFFCURVE",
"488.77 42.969 QCURVE",
"443.359 24.414 OFFCURVE",
"370.605 11.719 QCURVE SMOOTH",
"308.105 0.488 OFFCURVE",
"245.117 0.488 QCURVE SMOOTH",
"234.375 0.488 OFFCURVE",
"224.121 0.977 QCURVE SMOOTH",
"150.391 2.93 OFFCURVE",
"89.6 26.123 OFFCURVE",
"28.809 49.316 OFFCURVE",
"8.789 104.004 QCURVE SMOOTH"
);
}
);
width = 490;
},
{
associatedMasterId = "EF321139-F770-433D-B2B6-C3EFA1B16465";
layerId = "5DE03156-34DD-45F7-A9A6-A9828B6B044D";
name = Back;
paths = (
{
closed = 1;
nodes = (
"-7.812 136.23 OFFCURVE",
"-7.812 165.527 QCURVE SMOOTH",
"-7.812 207.52 OFFCURVE",
"12.695 252.93 QCURVE SMOOTH",
"29.785 290.039 OFFCURVE",
"46.631 322.998 OFFCURVE",
"63.477 355.957 OFFCURVE",
"82.031 384.766 QCURVE",
"92.285 398.438 OFFCURVE",
"104.492 398.438 QCURVE SMOOTH",
"109.863 398.438 OFFCURVE",
"111.816 397.461 QCURVE SMOOTH",
"125.977 391.602 OFFCURVE",
"125.977 376.953 QCURVE SMOOTH",
"125.977 370.117 OFFCURVE",
"122.07 360.84 QCURVE",
"87.402 296.875 OFFCURVE",
"84.961 253.418 QCURVE",
"84.961 246.582 LINE SMOOTH",
"84.961 229.004 OFFCURVE",
"89.844 214.355 OFFCURVE",
"94.727 199.707 OFFCURVE",
"103.027 188.965 QCURVE",
"114.258 176.27 OFFCURVE",
"133.789 167.48 OFFCURVE",
"153.32 158.691 OFFCURVE",
"181.152 154.297 QCURVE SMOOTH",
"204.59 150.391 OFFCURVE",
"228.76 148.682 OFFCURVE",
"252.93 146.973 OFFCURVE",
"277.832 146.973 QCURVE SMOOTH",
"307.129 146.973 LINE",
"372.07 149.902 OFFCURVE",
"434.57 161.621 QCURVE",
"496.094 174.316 OFFCURVE",
"518.066 187.012 QCURVE",
"541.992 199.219 OFFCURVE",
"554.199 228.027 QCURVE",
"561.035 238.77 OFFCURVE",
"568.848 238.77 QCURVE SMOOTH",
"582.031 238.77 OFFCURVE",
"582.031 221.68 QCURVE SMOOTH",
"582.031 215.82 OFFCURVE",
"581.543 211.914 OFFCURVE",
"581.055 208.008 OFFCURVE",
"580.566 206.543 QCURVE",
"580.566 207.031 LINE",
"575.195 189.453 OFFCURVE",
"566.895 167.969 OFFCURVE",
"558.594 146.484 OFFCURVE",
"547.852 120.605 QCURVE SMOOTH",
"536.621 94.238 OFFCURVE",
"521.729 71.289 OFFCURVE",
"506.836 48.34 OFFCURVE",
"487.305 28.32 QCURVE SMOOTH",
"486.328 27.344 OFFCURVE",
"483.154 26.123 OFFCURVE",
"479.98 24.902 OFFCURVE",
"478.516 24.902 QCURVE SMOOTH",
"466.309 24.902 OFFCURVE",
"463.867 35.645 QCURVE",
"442.871 28.32 OFFCURVE",
"417.969 22.461 OFFCURVE",
"393.066 16.602 OFFCURVE",
"364.746 11.23 QCURVE SMOOTH",
"334.961 5.859 OFFCURVE",
"303.955 3.174 OFFCURVE",
"272.949 0.488 OFFCURVE",
"241.699 0.488 QCURVE SMOOTH",
"236.328 0.488 OFFCURVE",
"230.957 0.488 OFFCURVE",
"225.586 0.488 OFFCURVE",
"220.703 0.977 QCURVE SMOOTH",
"184.57 1.953 OFFCURVE",
"151.123 8.301 OFFCURVE",
"117.676 14.648 OFFCURVE",
"86.914 25.879 QCURVE",
"22.461 51.27 OFFCURVE",
"1.953 108.398 QCURVE SMOOTH"
);
}
);
width = 490;
}
);
},
{
glyphname = "behDotless-ar.fina.jalt";
layers = (
{
anchors = (
{
name = bottom;
position = "{453, -176}";
},
{
name = bottom.mark;
position = "{466, -180}";
},
{
name = entry;
position = "{851, 83}";
},
{
name = top;
position = "{558, 360}";
},
{
name = top.mark;
position = "{536, 804}";
}
);
layerId = "1467EB51-6BD4-4CFC-AEAA-3E4EB1A95CFA";
paths = (
{
closed = 1;
nodes = (
"178 21 OFFCURVE",
"102 51 OFFCURVE",
"59 98 CURVE SMOOTH",
"-33 198 OFFCURVE",
"-7 321 OFFCURVE",
"72 422 CURVE SMOOTH",
"152 524 OFFCURVE",
"266 581 OFFCURVE",
"409 619 CURVE SMOOTH",
"473 636 OFFCURVE",
"545 645 OFFCURVE",
"624 648 CURVE",
"571 536 LINE",
"489 533 OFFCURVE",
"403 518 OFFCURVE",
"313 490 CURVE SMOOTH",
"223 462 OFFCURVE",
"148 420 OFFCURVE",
"87 362 CURVE SMOOTH",
"69 345 OFFCURVE",
"58 326 OFFCURVE",
"56 306 CURVE SMOOTH",
"54 286 OFFCURVE",
"69 262 OFFCURVE",
"101 235 CURVE SMOOTH",
"185 162 OFFCURVE",
"305 126 OFFCURVE",
"463 128 CURVE",
"526 133 OFFCURVE",
"601 143 OFFCURVE",
"685 158 CURVE SMOOTH",
"769 173 OFFCURVE",
"840 196 OFFCURVE",
"896 227 CURVE SMOOTH",
"916 238 OFFCURVE",
"929 253 OFFCURVE",
"938 275 CURVE",
"942 280 OFFCURVE",
"944 279 OFFCURVE",
"944 273 CURVE SMOOTH",
"944 267 OFFCURVE",
"943 264 OFFCURVE",
"942 262 CURVE SMOOTH",
"935 239 OFFCURVE",
"924 209 OFFCURVE",
"909 174 CURVE SMOOTH",
"894 139 OFFCURVE",
"875 109 OFFCURVE",
"850 82 CURVE",
"844 81 OFFCURVE",
"843 87 OFFCURVE",
"848 99 CURVE",
"759 63 OFFCURVE",
"668 36 OFFCURVE",
"573 17 CURVE SMOOTH",
"478 -2 OFFCURVE",
"383 -5 OFFCURVE",
"287 7 CURVE SMOOTH"
);
}
);
width = 849;
},
{
anchors = (
{
name = bottom;
position = "{453, -176}";
},
{
name = bottom.mark;
position = "{466, -180}";
},
{
name = entry;
position = "{851, 83}";
},
{
name = top;
position = "{558, 360}";
},
{
name = top.mark;
position = "{536, 804}";
}
);
layerId = "EF321139-F770-433D-B2B6-C3EFA1B16465";
paths = (
{
closed = 1;
nodes = (
"357 0 OFFCURVE",
"320 3 OFFCURVE",
"284 7 CURVE SMOOTH",
"175 21 OFFCURVE",
"99 52 OFFCURVE",
"56 99 CURVE SMOOTH",
"16 142 OFFCURVE",
"-4 190 OFFCURVE",
"-4 242 CURVE SMOOTH",
"-4 246 OFFCURVE",
"-4 246 OFFCURVE",
"-4 250 CURVE SMOOTH",
"-4 253 OFFCURVE",
"-3 255 OFFCURVE",
"-3 258 CURVE SMOOTH",
"7 390 OFFCURVE",
"124 505 OFFCURVE",
"227 556 CURVE SMOOTH",
"333 610 OFFCURVE",
"456 644 OFFCURVE",
"610 650 CURVE SMOOTH",
"618 651 OFFCURVE",
"627 643 OFFCURVE",
"622 633 CURVE",
"571 524 LINE SMOOTH",
"570 521 OFFCURVE",
"565 518 OFFCURVE",
"561 518 CURVE SMOOTH",
"483 515 OFFCURVE",
"400 500 OFFCURVE",
"313 474 CURVE SMOOTH",
"228 448 OFFCURVE",
"157 407 OFFCURVE",
"100 353 CURVE SMOOTH",
"85 338 OFFCURVE",
"76 323 OFFCURVE",
"74 306 CURVE SMOOTH",
"73 291 OFFCURVE",
"86 272 OFFCURVE",
"113 248 CURVE SMOOTH",
"191 180 OFFCURVE",
"306 146 OFFCURVE",
"455 147 CURVE",
"607 161 OFFCURVE",
"762 182 OFFCURVE",
"868 241 CURVE SMOOTH",
"885 250 OFFCURVE",
"897 264 OFFCURVE",
"904 283 CURVE",
"919 304 OFFCURVE",
"932 311 OFFCURVE",
"932 276 CURVE SMOOTH",
"932 268 OFFCURVE",
"931 262 OFFCURVE",
"929 259 CURVE",
"906 191 OFFCURVE",
"878 128 OFFCURVE",
"834 80 CURVE",
"820 79 OFFCURVE",
"813 81 OFFCURVE",
"812 88 CURVE",
"691 42 OFFCURVE",
"559 0 OFFCURVE",
"397 0 CURVE SMOOTH"
);
}
);
width = 849;
},
{
associatedMasterId = "1467EB51-6BD4-4CFC-AEAA-3E4EB1A95CFA";
layerId = "AD3E87D6-AC64-494E-BD9F-BE23E096605B";
name = Back;
paths = (
{
closed = 1;
nodes = (
"123.047 28.32 OFFCURVE",
"58.594 98.389 OFFCURVE",
"-5.859 168.457 OFFCURVE",
"0.732 253.418 OFFCURVE",
"7.324 338.379 OFFCURVE",
"72.021 421.631 OFFCURVE",
"136.719 504.883 OFFCURVE",
"231.445 552.734 QCURVE SMOOTH",
"312.5 593.262 OFFCURVE",
"409.18 618.652 OFFCURVE",
"505.859 644.043 OFFCURVE",
"624.023 648.438 QCURVE",
"571.289 535.645 LINE",
"448.242 531.25 OFFCURVE",
"312.988 489.99 OFFCURVE",
"177.734 448.73 OFFCURVE",
"86.914 361.816 QCURVE SMOOTH",
"59.57 335.938 OFFCURVE",
"56.396 305.908 OFFCURVE",
"53.223 275.879 OFFCURVE",
"101.074 234.863 QCURVE SMOOTH",
"227.051 125.977 OFFCURVE",
"463.379 128.418 QCURVE",
"558.594 135.742 OFFCURVE",
"685.303 157.959 OFFCURVE",
"812.012 180.176 OFFCURVE",
"895.508 226.562 QCURVE SMOOTH",
"925.293 242.676 OFFCURVE",
"938.477 275.391 QCURVE",
"943.848 282.715 OFFCURVE",
"943.848 273.438 OFFCURVE",
"943.848 264.16 OFFCURVE",
"942.383 261.719 QCURVE",
"931.641 226.562 OFFCURVE",
"909.424 174.316 OFFCURVE",
"887.207 122.07 OFFCURVE",
"850.098 82.031 QCURVE",
"840.82 81.055 OFFCURVE",
"847.656 99.121 QCURVE",
"714.844 44.434 OFFCURVE",
"572.998 16.602 OFFCURVE",
"431.152 -11.23 OFFCURVE",
"287.109 7.324 QCURVE SMOOTH"
);
}
);
width = 849;
},
{
associatedMasterId = "EF321139-F770-433D-B2B6-C3EFA1B16465";
layerId = "436B7900-BF91-48D8-8C42-B549087F2DA3";
name = Back;
paths = (
{
closed = 1;
nodes = (
"121.094 27.832 OFFCURVE",
"56.152 98.633 QCURVE SMOOTH",
"-3.906 163.574 OFFCURVE",
"-3.906 241.699 QCURVE SMOOTH",
"-3.906 245.605 OFFCURVE",
"-3.906 249.756 OFFCURVE",
"-3.906 253.906 OFFCURVE",
"-3.418 257.812 QCURVE SMOOTH",
"2.93 343.262 OFFCURVE",
"67.871 426.27 QCURVE SMOOTH",
"132.812 509.766 OFFCURVE",
"226.562 556.152 QCURVE",
"306.152 596.191 OFFCURVE",
"400.635 621.094 OFFCURVE",
"495.117 645.996 OFFCURVE",
"610.352 650.391 QCURVE SMOOTH",
"617.676 650.879 OFFCURVE",
"621.338 645.264 OFFCURVE",
"625 639.648 OFFCURVE",
"621.582 633.301 QCURVE SMOOTH",
"570.801 524.414 LINE SMOOTH",
"569.824 521.973 OFFCURVE",
"566.65 519.775 OFFCURVE",
"563.477 517.578 OFFCURVE",
"560.547 517.578 QCURVE SMOOTH",
"443.359 513.184 OFFCURVE",
"313.477 473.633 QCURVE SMOOTH",
"185.547 434.57 OFFCURVE",
"100.098 353.027 QCURVE SMOOTH",
"77.148 331.055 OFFCURVE",
"74.219 305.664 QCURVE",
"72.266 283.691 OFFCURVE",
"113.281 247.559 QCURVE",
"230.957 145.996 OFFCURVE",
"454.59 147.461 QCURVE",
"476.074 149.414 OFFCURVE",
"501.465 152.1 OFFCURVE",
"526.855 154.785 OFFCURVE",
"554.443 158.447 OFFCURVE",
"582.031 162.109 OFFCURVE",
"610.84 166.504 OFFCURVE",
"639.648 170.898 OFFCURVE",
"667.969 175.781 QCURVE SMOOTH",
"727.539 187.012 OFFCURVE",
"778.076 203.369 OFFCURVE",
"828.613 219.727 OFFCURVE",
"867.676 241.211 QCURVE",
"893.066 254.395 OFFCURVE",
"904.297 283.203 QCURVE",
"916.992 301.758 OFFCURVE",
"924.316 300.293 OFFCURVE",
"931.641 298.828 OFFCURVE",
"931.641 275.879 QCURVE SMOOTH",
"931.641 263.672 OFFCURVE",
"929.199 259.277 QCURVE",
"923.828 243.164 OFFCURVE",
"915.527 220.703 OFFCURVE",
"907.227 198.242 OFFCURVE",
"897.461 175.293 QCURVE",
"886.23 150.391 OFFCURVE",
"870.605 125.977 OFFCURVE",
"854.98 101.562 OFFCURVE",
"834.473 79.59 QCURVE",
"813.965 77.637 OFFCURVE",
"812.012 88.379 QCURVE",
"753.418 65.918 OFFCURVE",
"688.965 47.119 OFFCURVE",
"624.512 28.32 OFFCURVE",
"563.965 16.113 QCURVE",
"522.461 8.301 OFFCURVE",
"480.713 4.15 OFFCURVE",
"438.965 0 OFFCURVE",
"396.973 0 QCURVE SMOOTH",
"368.164 0 OFFCURVE",
"340.088 1.709 OFFCURVE",
"312.012 3.418 OFFCURVE",
"284.18 6.836 QCURVE SMOOTH"
);
}
);
width = 849;
}
);
},
{
glyphname = "behDotless-ar.medi";
layers = (
{
anchors = (
{
name = bottom;
position = "{149, -171}";
},
{
name = bottom.mark;
position = "{145, -193}";
},
{
name = entry;
position = "{198, 22}";
},
{
name = exit;
position = "{0, 0}";
},
{
name = top;
position = "{215, 374}";
},
{
name = top.mark;
position = "{250, 404}";
}
);
layerId = "1467EB51-6BD4-4CFC-AEAA-3E4EB1A95CFA";
paths = (
{
closed = 1;
nodes = (
"200 23 OFFCURVE",
"201 34 OFFCURVE",
"203 41 CURVE",
"157 22 OFFCURVE",
"58 6 OFFCURVE",
"0 0 CURVE",
"21 127 LINE",
"46 129 OFFCURVE",
"193 143 OFFCURVE",
"246 166 CURVE SMOOTH",
"271 177 OFFCURVE",
"288 201 OFFCURVE",
"295 218 CURVE SMOOTH",
"300 229 OFFCURVE",
"301 208 OFFCURVE",
"299 205 CURVE SMOOTH",
"284 158 OFFCURVE",
"256 77 OFFCURVE",
"206 24 CURVE",
"205 24 LINE"
);
}
);
width = 206;
},
{
anchors = (
{
name = bottom;
position = "{149, -171}";
},
{
name = bottom.mark;
position = "{145, -193}";
},
{
name = entry;
position = "{198, 22}";
},
{
name = exit;
position = "{0, 0}";
},
{
name = top;
position = "{215, 374}";
},
{
name = top.mark;
position = "{250, 404}";
}
);
layerId = "EF321139-F770-433D-B2B6-C3EFA1B16465";
paths = (
{
closed = 1;
nodes = (
"193 23 OFFCURVE",
"188 28 OFFCURVE",
"186 35 CURVE",
"135 17 OFFCURVE",
"65 6 OFFCURVE",
"3 0 CURVE SMOOTH",
"-5 -1 OFFCURVE",
"-10 6 OFFCURVE",
"-9 14 CURVE SMOOTH",
"11 136 LINE SMOOTH",
"12 141 OFFCURVE",
"17 145 OFFCURVE",
"22 146 CURVE SMOOTH",
"81 151 OFFCURVE",
"129 157 OFFCURVE",
"165 164 CURVE SMOOTH",
"201 171 OFFCURVE",
"227 179 OFFCURVE",
"241 186 CURVE",
"258 196 OFFCURVE",
"269 210 OFFCURVE",
"277 228 CURVE",
"280 233 OFFCURVE",
"285 237 OFFCURVE",
"292 237 CURVE SMOOTH",
"301 237 OFFCURVE",
"305 231 OFFCURVE",
"305 220 CURVE SMOOTH",
"305 198 OFFCURVE",
"297 186 OFFCURVE",
"290 167 CURVE SMOOTH",
"270 114 OFFCURVE",
"246 66 OFFCURVE",
"210 27 CURVE SMOOTH",
"209 26 OFFCURVE",
"204 23 OFFCURVE",
"202 23 CURVE SMOOTH",
"201 23 LINE SMOOTH"
);
}
);
width = 206;
},
{
associatedMasterId = "1467EB51-6BD4-4CFC-AEAA-3E4EB1A95CFA";
layerId = "8F7BC7EC-EB9C-431A-B721-C76243C83CC4";
name = Back;
paths = (
{
closed = 1;
nodes = (
"205.566 24.414 LINE SMOOTH",
"201.172 24.414 OFFCURVE",
"201.172 29.785 QCURVE SMOOTH",
"201.172 33.691 OFFCURVE",
"204.102 41.504 QCURVE",
"169.922 27.344 OFFCURVE",
"106.689 15.625 OFFCURVE",
"43.457 3.906 OFFCURVE",
"0 0 QCURVE",
"20.996 126.953 LINE",
"208.496 144.531 OFFCURVE",
"252.441 168.945 QCURVE SMOOTH",
"281.738 185.547 OFFCURVE",
"294.922 217.773 QCURVE",
"297.363 221.191 OFFCURVE",
"298.828 221.191 QCURVE SMOOTH",
"300.293 221.191 OFFCURVE",
"300.293 215.82 QCURVE SMOOTH",
"300.293 206.543 OFFCURVE",
"299.316 204.102 QCURVE SMOOTH",
"288.086 168.945 OFFCURVE",
"266.113 116.699 OFFCURVE",
"244.141 64.453 OFFCURVE",
"206.543 24.414 QCURVE"
);
}
);
width = 206;
},
{
associatedMasterId = "EF321139-F770-433D-B2B6-C3EFA1B16465";
layerId = "8A8B8811-E7D6-4C3F-BEF2-7E5FDFEE7D4A";
name = Back;
paths = (
{
closed = 1;
nodes = (
"188.477 23.438 OFFCURVE",
"185.547 34.668 QCURVE",
"169.922 29.297 OFFCURVE",
"150.146 24.414 OFFCURVE",
"130.371 19.531 OFFCURVE",
"107.91 15.137 QCURVE SMOOTH",
"81.055 10.254 OFFCURVE",
"52.49 6.104 OFFCURVE",
"23.926 1.953 OFFCURVE",
"3.418 0 QCURVE SMOOTH",
"-2.441 -0.488 OFFCURVE",
"-6.348 3.662 OFFCURVE",
"-10.254 7.812 OFFCURVE",
"-9.277 13.672 QCURVE SMOOTH",
"11.23 136.23 LINE SMOOTH",
"11.719 140.137 OFFCURVE",
"14.893 143.066 OFFCURVE",
"18.066 145.996 OFFCURVE",
"21.973 146.484 QCURVE SMOOTH",
"109.863 154.297 OFFCURVE",
"164.551 164.307 OFFCURVE",
"219.238 174.316 OFFCURVE",
"240.723 185.547 QCURVE",
"265.625 200.684 OFFCURVE",
"277.344 227.539 QCURVE",
"280.273 232.91 OFFCURVE",
"284.18 235.107 OFFCURVE",
"288.086 237.305 OFFCURVE",
"291.504 237.305 QCURVE SMOOTH",
"304.688 237.305 OFFCURVE",
"304.688 220.215 QCURVE SMOOTH",
"304.688 214.355 OFFCURVE",
"304.199 210.449 OFFCURVE",
"303.711 206.543 OFFCURVE",
"303.223 205.078 QCURVE",
"303.223 205.566 LINE",
"297.852 187.988 OFFCURVE",
"289.551 166.504 OFFCURVE",
"281.25 145.02 OFFCURVE",
"270.508 119.629 QCURVE SMOOTH",
"248.047 67.871 OFFCURVE",
"210.449 27.344 QCURVE SMOOTH",
"209.473 26.367 OFFCURVE",
"206.543 24.902 OFFCURVE",
"203.613 23.438 OFFCURVE",
"202.148 23.438 QCURVE SMOOTH",
"201.172 23.438 LINE SMOOTH"
);
}
);
width = 206;
}
);
},
{
glyphname = "behDotless-ar.medi.ain";
layers = (
{
anchors = (
{
name = bottom;
position = "{224, -136}";
},
{
name = bottom.mark;
position = "{321, -180}";
},
{
name = entry;
position = "{352, 26}";
},
{
name = exit;
position = "{0, 0}";
},
{
name = top;
position = "{312, 400}";
},
{
name = top.mark;
position = "{400, 409}";
}
);
layerId = "1467EB51-6BD4-4CFC-AEAA-3E4EB1A95CFA";
paths = (
{
closed = 1;
nodes = (
"342 24 OFFCURVE",
"341 30 OFFCURVE",
"346 42 CURVE",
"312 28 OFFCURVE",
"264 17 OFFCURVE",
"202 9 CURVE SMOOTH",
"140 1 OFFCURVE",
"92 -2 OFFCURVE",
"56 1 CURVE SMOOTH",
"28 4 OFFCURVE",
"1 19 OFFCURVE",
"0 48 CURVE",
"13 98 OFFCURVE",
"26 140 OFFCURVE",
"39 175 CURVE",
"50 139 OFFCURVE",
"98 129 OFFCURVE",
"146 128 CURVE SMOOTH",
"171 127 OFFCURVE",
"213 132 OFFCURVE",
"271 139 CURVE SMOOTH",
"329 146 OFFCURVE",
"370 157 OFFCURVE",
"394 170 CURVE SMOOTH",
"413 180 OFFCURVE",
"427 197 OFFCURVE",
"437 219 CURVE",
"440 224 OFFCURVE",
"441 223 OFFCURVE",
"441 217 CURVE SMOOTH",
"441 211 OFFCURVE",
"441 207 OFFCURVE",
"440 205 CURVE SMOOTH",
"433 182 OFFCURVE",
"422 152 OFFCURVE",
"407 117 CURVE SMOOTH",
"392 82 OFFCURVE",
"373 51 OFFCURVE",
"348 25 CURVE"
);
}
);
width = 347;
},
{
anchors = (
{
name = bottom;
position = "{224, -136}";
},
{
name = bottom.mark;
position = "{321, -180}";
},
{
name = entry;
position = "{352, 26}";
},
{
name = exit;
position = "{0, 0}";
},
{
name = top;
position = "{312, 400}";
},
{
name = top.mark;
position = "{400, 409}";
}
);
layerId = "EF321139-F770-433D-B2B6-C3EFA1B16465";
paths = (
{
closed = 1;
nodes = (
"260 14 OFFCURVE",
"173 0 OFFCURVE",
"91 0 CURVE SMOOTH",
"40 0 OFFCURVE",
"-7 10 OFFCURVE",
"-8 59 CURVE",
"4 104 OFFCURVE",
"16 147 OFFCURVE",
"31 186 CURVE SMOOTH",
"33 190 OFFCURVE",
"37 193 OFFCURVE",
"42 193 CURVE SMOOTH",
"48 193 OFFCURVE",
"51 190 OFFCURVE",
"53 185 CURVE SMOOTH",
"62 154 OFFCURVE",
"107 148 OFFCURVE",
"146 147 CURVE SMOOTH",
"169 146 OFFCURVE",
"208 151 OFFCURVE",
"264 158 CURVE",
"333 166 OFFCURVE",
"393 176 OFFCURVE",
"415 228 CURVE",
"431 251 OFFCURVE",
"442 260 OFFCURVE",
"442 221 CURVE SMOOTH",
"442 215 OFFCURVE",
"441 211 OFFCURVE",
"440 207 CURVE SMOOTH",
"428 170 OFFCURVE",
"405 106 OFFCURVE",
"382 71 CURVE SMOOTH",
"372 56 OFFCURVE",
"360 41 OFFCURVE",
"348 28 CURVE",
"341 24 LINE",
"329 23 OFFCURVE",
"322 23 OFFCURVE",
"322 35 CURVE"
);
}
);
width = 347;
},
{
associatedMasterId = "1467EB51-6BD4-4CFC-AEAA-3E4EB1A95CFA";
layerId = "F4310074-1402-4A98-B062-E0ADBE253D47";
name = Back;
paths = (
{
closed = 1;
nodes = (
"338.867 24.414 OFFCURVE",
"345.703 42.48 QCURVE",
"294.434 21.484 OFFCURVE",
"202.148 9.033 OFFCURVE",
"109.863 -3.418 OFFCURVE",
"56.152 1.465 QCURVE SMOOTH",
"35.156 3.418 OFFCURVE",
"18.066 14.648 OFFCURVE",
"0.977 25.879 OFFCURVE",
"0 47.852 QCURVE",
"19.043 122.559 OFFCURVE",
"39.062 175.293 QCURVE",
"46.387 150.391 OFFCURVE",
"75.928 139.893 OFFCURVE",
"105.469 129.395 OFFCURVE",
"146.484 128.418 QCURVE SMOOTH",
"184.57 127.441 OFFCURVE",
"271.24 138.672 OFFCURVE",
"357.91 149.902 OFFCURVE",
"393.555 169.922 QCURVE",
"421.875 185.059 OFFCURVE",
"436.523 218.75 QCURVE",
"441.406 226.074 OFFCURVE",
"441.406 216.797 OFFCURVE",
"441.406 207.52 OFFCURVE",
"440.43 205.078 QCURVE SMOOTH",
"429.199 169.922 OFFCURVE",
"407.227 117.432 OFFCURVE",
"385.254 64.941 OFFCURVE",
"347.656 25.391 QCURVE"
);
}
);
width = 347;
},
{
associatedMasterId = "EF321139-F770-433D-B2B6-C3EFA1B16465";
layerId = "83D946AB-715D-49E5-BBD3-280E8080CF70";
name = Back;
paths = (
{
closed = 1;
nodes = (
"331.055 23.438 OFFCURVE",
"326.66 24.902 OFFCURVE",
"322.266 26.367 OFFCURVE",
"322.266 34.668 QCURVE",
"297.852 26.367 OFFCURVE",
"268.066 20.02 OFFCURVE",
"238.281 13.672 OFFCURVE",
"200.684 8.301 QCURVE",
"168.945 4.395 OFFCURVE",
"141.846 2.197 OFFCURVE",
"114.746 0 OFFCURVE",
"91.309 0 QCURVE SMOOTH",
"71.289 0 OFFCURVE",
"56.641 1.465 QCURVE SMOOTH",
"33.691 3.906 OFFCURVE",
"14.648 16.113 QCURVE",
"-7.812 29.785 OFFCURVE",
"-8.301 59.082 QCURVE",
"1.465 96.191 OFFCURVE",
"11.23 127.686 OFFCURVE",
"20.996 159.18 OFFCURVE",
"30.762 185.547 QCURVE SMOOTH",
"32.227 189.453 OFFCURVE",
"35.4 191.406 OFFCURVE",
"38.574 193.359 OFFCURVE",
"41.992 193.359 OFFCURVE",
"45.41 193.359 OFFCURVE",
"48.34 191.162 OFFCURVE",
"51.27 188.965 OFFCURVE",
"52.734 184.57 QCURVE SMOOTH",
"55.664 174.805 OFFCURVE",
"63.721 167.969 OFFCURVE",
"71.777 161.133 OFFCURVE",
"83.984 156.738 OFFCURVE",
"96.191 152.344 OFFCURVE",
"111.816 150.146 OFFCURVE",
"127.441 147.949 OFFCURVE",
"145.508 147.461 QCURVE SMOOTH",
"180.664 146.484 OFFCURVE",
"264.16 157.715 QCURVE",
"305.664 162.598 OFFCURVE",
"333.74 169.922 OFFCURVE",
"361.816 177.246 OFFCURVE",
"378.418 186.523 QCURVE SMOOTH",
"402.832 199.707 OFFCURVE",
"414.551 227.539 QCURVE",
"429.199 248.535 OFFCURVE",
"435.547 247.314 OFFCURVE",
"441.895 246.094 OFFCURVE",
"441.895 221.191 QCURVE SMOOTH",
"441.895 215.332 OFFCURVE",
"441.406 211.426 OFFCURVE",
"440.918 207.52 OFFCURVE",
"440.43 206.055 QCURVE",
"440.43 206.543 LINE",
"429.199 171.387 OFFCURVE",
"408.203 120.117 QCURVE SMOOTH",
"396.973 93.75 OFFCURVE",
"381.836 71.045 OFFCURVE",
"366.699 48.34 OFFCURVE",
"348.145 28.32 QCURVE",
"340.82 24.414 LINE"
);
}
);
width = 347;
}
);
},
{
glyphname = "behDotless-ar.medi.dal";
layers = (
{
anchors = (
{
name = bottom;
position = "{193, -171}";
},
{
name = bottom.mark;
position = "{202, -171}";
},
{
name = entry;
position = "{233, 18}";
},
{
name = exit;
position = "{0, 0}";
},
{
name = top;
position = "{242, 387}";
},
{
name = top.mark;
position = "{281, 435}";
}
);
layerId = "1467EB51-6BD4-4CFC-AEAA-3E4EB1A95CFA";
paths = (
{
closed = 1;
nodes = (
"196 23 OFFCURVE",
"82 -14 OFFCURVE",
"40 6 CURVE SMOOTH",
"-27 39 OFFCURVE",
"1 150 OFFCURVE",
"47 203 CURVE SMOOTH",
"53 210 OFFCURVE",
"52 209 OFFCURVE",
"52 202 CURVE SMOOTH",
"52 172 OFFCURVE",
"60 139 OFFCURVE",
"86 132 CURVE SMOOTH",
"135 120 OFFCURVE",
"246 146 OFFCURVE",
"275 162 CURVE SMOOTH",
"294 173 OFFCURVE",
"309 190 OFFCURVE",
"317 211 CURVE SMOOTH",
"324 221 OFFCURVE",
"323 200 OFFCURVE",
"321 197 CURVE SMOOTH",
"308 154 OFFCURVE",
"274 86 OFFCURVE",
"242 26 CURVE SMOOTH",
"235 14 OFFCURVE",
"219 12 OFFCURVE",
"226 35 CURVE"
);
}
);
width = 228;
},
{
anchors = (
{
name = bottom;
position = "{193, -171}";
},
{
name = bottom.mark;
position = "{202, -171}";
},
{
name = entry;
position = "{226, 18}";
},
{
name = exit;
position = "{0, 0}";
},
{
name = top;
position = "{242, 387}";
},
{
name = top.mark;
position = "{281, 435}";
}
);
layerId = "EF321139-F770-433D-B2B6-C3EFA1B16465";
paths = (
{
closed = 1;
nodes = (
"324 231 OFFCURVE",
"326 225 OFFCURVE",
"326 213 CURVE SMOOTH",
"326 209 OFFCURVE",
"325 207 OFFCURVE",
"325 204 CURVE SMOOTH",
"325 201 OFFCURVE",
"325 200 OFFCURVE",
"324 199 CURVE SMOOTH",
"304 140 OFFCURVE",
"274 84 OFFCURVE",
"247 31 CURVE SMOOTH",
"242 22 OFFCURVE",
"233 17 OFFCURVE",
"222 17 CURVE",
"215 18 OFFCURVE",
"210 21 OFFCURVE",
"208 28 CURVE",
"170 16 OFFCURVE",
"124 -1 OFFCURVE",
"76 -1 CURVE SMOOTH",
"21 -1 OFFCURVE",
"-10 34 OFFCURVE",
"-10 83 CURVE SMOOTH",
"-10 116 OFFCURVE",
"0 144 OFFCURVE",
"10 168 CURVE SMOOTH",
"18 186 OFFCURVE",
"27 202 OFFCURVE",
"39 216 CURVE",
"44 220 OFFCURVE",
"47 222 OFFCURVE",
"51 222 CURVE SMOOTH",
"60 222 OFFCURVE",
"64 217 OFFCURVE",
"64 207 CURVE SMOOTH",
"64 204 LINE SMOOTH",
"64 191 OFFCURVE",
"67 179 OFFCURVE",
"71 168 CURVE",
"77 149 OFFCURVE",
"95 147 OFFCURVE",
"119 147 CURVE SMOOTH",
"157 147 OFFCURVE",
"203 158 OFFCURVE",
"232 167 CURVE SMOOTH",
"266 177 OFFCURVE",
"286 189 OFFCURVE",
"298 220 CURVE",
"301 225 OFFCURVE",
"307 231 OFFCURVE",
"312 231 CURVE SMOOTH"
);
}
);
width = 228;
},
{
associatedMasterId = "1467EB51-6BD4-4CFC-AEAA-3E4EB1A95CFA";
layerId = "EE74D2CC-E245-46FD-93F6-2FA6F6D6AC1F";
name = Back;
paths = (
{
closed = 1;
nodes = (
"203.613 25.391 OFFCURVE",
"137.207 8.301 QCURVE SMOOTH",
"101.562 -0.977 OFFCURVE",
"75.684 -0.977 QCURVE SMOOTH",
"54.199 -0.977 OFFCURVE",
"39.551 5.859 QCURVE SMOOTH",
"-0.977 25.879 OFFCURVE",
"-0.977 74.219 QCURVE SMOOTH",
"-0.977 84.473 OFFCURVE",
"0.977 96.68 QCURVE SMOOTH",
"11.719 162.598 OFFCURVE",
"46.875 202.637 QCURVE SMOOTH",
"49.316 205.078 OFFCURVE",
"50.293 205.078 QCURVE SMOOTH",
"51.758 205.078 OFFCURVE",
"51.758 202.148 QCURVE SMOOTH",
"51.758 199.219 LINE SMOOTH",
"51.758 177.734 OFFCURVE",
"59.082 158.203 QCURVE",
"66.406 136.719 OFFCURVE",
"85.938 132.324 QCURVE",
"101.074 128.418 OFFCURVE",
"120.605 128.418 QCURVE SMOOTH",
"148.926 128.418 OFFCURVE",
"187.5 136.719 QCURVE SMOOTH",
"251.953 149.902 OFFCURVE",
"273.926 162.109 QCURVE SMOOTH",
"303.223 177.734 OFFCURVE",
"316.895 210.938 QCURVE",
"319.336 214.355 OFFCURVE",
"320.312 214.355 QCURVE SMOOTH",
"322.266 214.355 OFFCURVE",
"322.266 209.961 QCURVE SMOOTH",
"322.266 208.984 LINE",
"321.777 199.707 OFFCURVE",
"320.801 197.266 QCURVE SMOOTH",
"310.547 165.039 OFFCURVE",
"287.842 117.676 OFFCURVE",
"265.137 70.312 OFFCURVE",
"241.699 25.879 QCURVE SMOOTH",
"236.816 17.09 OFFCURVE",
"229.004 17.09 QCURVE SMOOTH",
"228.516 17.09 LINE",
"224.121 17.578 OFFCURVE",
"224.121 23.438 QCURVE SMOOTH",
"224.121 27.832 OFFCURVE",
"226.074 34.668 QCURVE"
);
}
);
width = 228;
},
{
associatedMasterId = "EF321139-F770-433D-B2B6-C3EFA1B16465";
layerId = "12FE8C12-EC33-4D4D-B68E-3B98EEBBA4D6";
name = Back;
paths = (
{
closed = 1;
nodes = (
"210.938 18.066 OFFCURVE",
"208.008 27.832 QCURVE",
"195.312 23.926 OFFCURVE",
"177.734 19.043 OFFCURVE",
"160.156 14.16 OFFCURVE",
"138.184 8.301 QCURVE SMOOTH",
"121.094 3.906 OFFCURVE",
"104.736 1.465 OFFCURVE",
"88.379 -0.977 OFFCURVE",
"75.684 -0.977 QCURVE SMOOTH",
"52.734 -0.977 OFFCURVE",
"35.645 6.836 QCURVE SMOOTH",
"-10.254 28.809 OFFCURVE",
"-10.254 83.496 QCURVE SMOOTH",
"-10.254 88.867 OFFCURVE",
"-9.766 95.215 OFFCURVE",
"-9.277 101.562 OFFCURVE",
"-8.301 106.934 QCURVE SMOOTH",
"-2.441 140.137 OFFCURVE",
"9.521 167.725 OFFCURVE",
"21.484 195.312 OFFCURVE",
"39.062 215.82 QCURVE",
"45.898 221.68 OFFCURVE",
"51.27 221.68 QCURVE SMOOTH",
"64.453 221.68 OFFCURVE",
"64.453 207.031 QCURVE SMOOTH",
"64.453 204.102 LINE SMOOTH",
"64.453 184.57 OFFCURVE",
"70.801 168.457 QCURVE",
"75.195 153.809 OFFCURVE",
"87.891 150.879 QCURVE SMOOTH",
"94.727 149.414 OFFCURVE",
"102.051 148.438 OFFCURVE",
"109.375 147.461 OFFCURVE",
"119.141 147.461 QCURVE SMOOTH",
"133.301 147.461 OFFCURVE",
"148.438 149.414 OFFCURVE",
"163.574 151.367 OFFCURVE",
"181.641 155.273 QCURVE SMOOTH",
"211.914 161.133 OFFCURVE",
"231.689 167.236 OFFCURVE",
"251.465 173.34 OFFCURVE",
"261.719 178.711 QCURVE SMOOTH",
"286.621 191.895 OFFCURVE",
"297.852 219.727 QCURVE",
"301.758 226.074 OFFCURVE",
"306.152 228.516 OFFCURVE",
"310.547 230.957 OFFCURVE",
"312.012 230.957 QCURVE SMOOTH",
"320.312 230.957 OFFCURVE",
"322.998 227.051 OFFCURVE",
"325.684 223.145 OFFCURVE",
"325.684 213.379 QCURVE",
"325.195 208.008 OFFCURVE",
"325.195 204.102 OFFCURVE",
"325.195 200.195 OFFCURVE",
"324.219 198.73 QCURVE SMOOTH",
"318.848 182.617 OFFCURVE",
"310.547 162.598 OFFCURVE",
"302.246 142.578 OFFCURVE",
"291.504 120.117 QCURVE SMOOTH",
"280.273 97.168 OFFCURVE",
"269.043 74.951 OFFCURVE",
"257.812 52.734 OFFCURVE",
"246.582 30.762 QCURVE",
"238.77 16.602 OFFCURVE",
"221.68 16.602 QCURVE"
);
}
);
width = 228;
}
);
},
{
glyphname = "behDotless-ar.medi.feh";
layers = (
{
anchors = (
{
name = bottom;
position = "{338, -167}";
},
{
name = bottom.mark;
position = "{374, -171}";
},
{
name = entry;
position = "{400, 35}";
},
{
name = exit;
position = "{0, 0}";
},
{
name = top;
position = "{422, 461}";
},
{
name = top.mark;
position = "{453, 492}";
}
);
layerId = "1467EB51-6BD4-4CFC-AEAA-3E4EB1A95CFA";
paths = (
{
closed = 1;
nodes = (
"28 4 OFFCURVE",
"1 19 OFFCURVE",
"0 48 CURVE",
"13 98 OFFCURVE",
"26 140 OFFCURVE",
"39 175 CURVE",
"52 132 OFFCURVE",
"119 126 OFFCURVE",
"179 129 CURVE",
"207 130 OFFCURVE",
"252 135 OFFCURVE",
"316 144 CURVE SMOOTH",
"380 153 OFFCURVE",
"421 163 OFFCURVE",
"442 175 CURVE",
"462 186 OFFCURVE",
"476 202 OFFCURVE",
"485 224 CURVE",
"489 229 OFFCURVE",
"490 228 OFFCURVE",
"490 222 CURVE SMOOTH",
"490 216 OFFCURVE",
"490 212 OFFCURVE",
"489 210 CURVE SMOOTH",
"482 187 OFFCURVE",
"471 158 OFFCURVE",
"456 123 CURVE SMOOTH",
"441 88 OFFCURVE",
"421 57 OFFCURVE",
"396 31 CURVE",
"391 30 OFFCURVE",
"390 36 OFFCURVE",
"394 48 CURVE",
"360 34 OFFCURVE",
"306 22 OFFCURVE",
"230 11 CURVE SMOOTH",
"154 0 OFFCURVE",
"96 -3 OFFCURVE",
"56 1 CURVE SMOOTH"
);
}
);
width = 395;
},
{
anchors = (
{
name = bottom;
position = "{338, -167}";
},
{
name = bottom.mark;
position = "{374, -171}";
},
{
name = entry;
position = "{400, 35}";
},
{
name = exit;
position = "{0, 0}";
},
{
name = top;
position = "{422, 461}";
},
{
name = top.mark;
position = "{453, 492}";
}
);
layerId = "EF321139-F770-433D-B2B6-C3EFA1B16465";
paths = (
{
closed = 1;
nodes = (
"42 3 OFFCURVE",
"28 8 OFFCURVE",
"15 16 CURVE SMOOTH",
"0 25 OFFCURVE",
"-8 39 OFFCURVE",
"-8 59 CURVE",
"4 104 OFFCURVE",
"16 147 OFFCURVE",
"31 186 CURVE SMOOTH",
"33 190 OFFCURVE",
"37 193 OFFCURVE",
"42 193 CURVE SMOOTH",
"48 193 OFFCURVE",
"51 190 OFFCURVE",
"53 185 CURVE SMOOTH",
"63 152 OFFCURVE",
"113 147 OFFCURVE",
"155 147 CURVE SMOOTH",
"160 147 OFFCURVE",
"161 147 OFFCURVE",
"166 147 CURVE SMOOTH",
"206 147 OFFCURVE",
"330 165 OFFCURVE",
"382 177 CURVE SMOOTH",
"424 187 OFFCURVE",
"448 198 OFFCURVE",
"462 233 CURVE",
"476 254 OFFCURVE",
"490 262 OFFCURVE",
"490 227 CURVE SMOOTH",
"490 219 OFFCURVE",
"489 213 OFFCURVE",
"487 210 CURVE",
"478 184 OFFCURVE",
"466 152 OFFCURVE",
"455 125 CURVE SMOOTH",
"440 90 OFFCURVE",
"420 59 OFFCURVE",
"393 30 CURVE",
"380 29 OFFCURVE",
"373 33 OFFCURVE",
"371 41 CURVE",
"312 22 OFFCURVE",
"228 9 OFFCURVE",
"154 3 CURVE SMOOTH",
"132 1 OFFCURVE",
"111 0 OFFCURVE",
"93 0 CURVE SMOOTH",
"79 0 OFFCURVE",
"68 0 OFFCURVE",
"58 1 CURVE",
"57 1 LINE"
);
}
);
width = 395;
},
{
associatedMasterId = "1467EB51-6BD4-4CFC-AEAA-3E4EB1A95CFA";
layerId = "23E7CBCD-ED66-4452-BE75-83C282265109";
name = Back;
paths = (
{
closed = 1;
nodes = (
"35.156 3.418 OFFCURVE",
"18.066 14.648 OFFCURVE",
"0.977 25.879 OFFCURVE",
"0 47.852 QCURVE",
"19.043 122.559 OFFCURVE",
"39.062 175.293 QCURVE",
"47.852 145.508 OFFCURVE",
"87.646 135.742 OFFCURVE",
"127.441 125.977 OFFCURVE",
"178.711 128.906 QCURVE",
"220.215 130.371 OFFCURVE",
"315.674 144.043 OFFCURVE",
"411.133 157.715 OFFCURVE",
"441.895 175.293 QCURVE",
"471.68 191.406 OFFCURVE",
"484.863 224.121 QCURVE",
"490.234 231.445 OFFCURVE",
"490.234 222.168 OFFCURVE",
"490.234 212.891 OFFCURVE",
"488.77 210.449 QCURVE",
"478.027 175.293 OFFCURVE",
"455.811 122.803 OFFCURVE",
"433.594 70.312 OFFCURVE",
"396.484 30.762 QCURVE",
"388.672 29.785 OFFCURVE",
"394.043 47.852 QCURVE",
"343.262 27.344 OFFCURVE",
"229.736 11.475 OFFCURVE",
"116.211 -4.395 OFFCURVE",
"56.152 1.465 QCURVE SMOOTH"
);
}
);
width = 395;
},
{
associatedMasterId = "EF321139-F770-433D-B2B6-C3EFA1B16465";
layerId = "5C5D5E15-5C9B-4EA7-BD99-8EE26D8DB968";
name = Back;
paths = (
{
closed = 1;
nodes = (
"34.18 3.906 OFFCURVE",
"15.137 16.113 QCURVE",
"-7.324 29.785 OFFCURVE",
"-7.812 59.082 QCURVE",
"1.953 96.191 OFFCURVE",
"11.475 127.686 OFFCURVE",
"20.996 159.18 OFFCURVE",
"31.25 185.547 QCURVE SMOOTH",
"32.715 189.453 OFFCURVE",
"35.889 191.406 OFFCURVE",
"39.062 193.359 OFFCURVE",
"42.48 193.359 OFFCURVE",
"45.898 193.359 OFFCURVE",
"48.828 191.162 OFFCURVE",
"51.758 188.965 OFFCURVE",
"53.223 184.57 QCURVE SMOOTH",
"56.641 173.34 OFFCURVE",
"66.406 165.771 OFFCURVE",
"76.172 158.203 OFFCURVE",
"91.309 154.297 QCURVE SMOOTH",
"121.094 147.461 OFFCURVE",
"155.273 147.461 QCURVE SMOOTH",
"160.645 147.461 OFFCURVE",
"165.527 147.461 OFFCURVE",
"170.41 147.461 OFFCURVE",
"175.781 147.949 QCURVE SMOOTH",
"214.844 149.414 OFFCURVE",
"307.129 162.598 QCURVE SMOOTH",
"353.027 169.434 OFFCURVE",
"382.324 176.514 OFFCURVE",
"411.621 183.594 OFFCURVE",
"425.293 191.406 QCURVE SMOOTH",
"450.684 205.078 OFFCURVE",
"462.402 233.398 QCURVE",
"475.098 251.953 OFFCURVE",
"482.422 250.732 OFFCURVE",
"489.746 249.512 OFFCURVE",
"489.746 226.562 QCURVE SMOOTH",
"489.746 214.355 OFFCURVE",
"487.305 209.961 QCURVE",
"481.445 193.359 OFFCURVE",
"473.145 171.143 OFFCURVE",
"464.844 148.926 OFFCURVE",
"455.078 125.488 QCURVE SMOOTH",
"432.617 73.242 OFFCURVE",
"392.578 30.273 QCURVE",
"373.047 28.32 OFFCURVE",
"370.605 40.527 QCURVE",
"345.215 32.227 OFFCURVE",
"309.326 24.902 OFFCURVE",
"273.438 17.578 OFFCURVE",
"227.539 10.742 QCURVE",
"187.012 5.371 OFFCURVE",
"153.809 2.686 OFFCURVE",
"120.605 0 OFFCURVE",
"93.262 0 QCURVE SMOOTH",
"72.754 0 OFFCURVE",
"57.617 1.465 QCURVE",
"57.129 1.465 LINE"
);
}
);
width = 395;
}
);
},
{
glyphname = "behDotless-ar.medi.hah";
layers = (
{
anchors = (
{
name = bottom;
position = "{461, 0}";
},
{
name = bottom.mark;
position = "{400, 18}";
},
{
name = entry;
position = "{356, 184}";
},
{
name = exit;
position = "{-31, 7}";
},
{
name = top;
position = "{229, 488}";
},
{
name = top.mark;
position = "{312, 580}";
}
);
layerId = "1467EB51-6BD4-4CFC-AEAA-3E4EB1A95CFA";
paths = (
{
closed = 1;
nodes = (
"9 -1 OFFCURVE",
"0 -1 OFFCURVE",
"0 5 CURVE SMOOTH",
"3 43 OFFCURVE",
"17 106 OFFCURVE",
"30 138 CURVE",
"51 164 OFFCURVE",
"74 192 OFFCURVE",
"100 218 CURVE",
"143 263 OFFCURVE",
"201 312 OFFCURVE",
"260 340 CURVE",
"291 354 OFFCURVE",
"319 361 OFFCURVE",
"345 361 CURVE SMOOTH",
"372 361 OFFCURVE",
"381 333 OFFCURVE",
"393 318 CURVE",
"395 317 OFFCURVE",
"396 317 OFFCURVE",
"398 317 CURVE SMOOTH",
"431 322 LINE",
"369 188 LINE",
"361 186 OFFCURVE",
"354 183 OFFCURVE",
"350 183 CURVE",
"333 182 OFFCURVE",
"322 190 OFFCURVE",
"317 206 CURVE",
"308 224 OFFCURVE",
"287 245 OFFCURVE",
"257 233 CURVE SMOOTH",
"216 218 OFFCURVE",
"178 196 OFFCURVE",
"143 167 CURVE SMOOTH",
"106 137 OFFCURVE",
"81 110 OFFCURVE",
"67 89 CURVE SMOOTH",
"53 68 OFFCURVE",
"35 38 OFFCURVE",
"12 2 CURVE"
);
}
);
width = 452;
},
{
anchors = (
{
name = bottom;
position = "{461, 0}";
},
{
name = bottom.mark;
position = "{400, 18}";
},
{
name = entry;
position = "{356, 189}";
},
{
name = exit;
position = "{-32, 0}";
},
{
name = top;
position = "{229, 488}";
},
{
name = top.mark;
position = "{312, 580}";
}
);
layerId = "EF321139-F770-433D-B2B6-C3EFA1B16465";
paths = (
{
closed = 1;
nodes = (
"16 -5 OFFCURVE",
"-8 1 OFFCURVE",
"-8 18 CURVE SMOOTH",
"-5 63 OFFCURVE",
"7 112 OFFCURVE",
"23 152 CURVE",
"44 178 OFFCURVE",
"67 206 OFFCURVE",
"92 231 CURVE",
"135 276 OFFCURVE",
"192 323 OFFCURVE",
"250 351 CURVE",
"281 365 OFFCURVE",
"310 372 OFFCURVE",
"337 372 CURVE SMOOTH",
"354 372 OFFCURVE",
"367 366 OFFCURVE",
"375 352 CURVE SMOOTH",
"380 343 OFFCURVE",
"385 336 OFFCURVE",
"390 330 CURVE",
"419 334 LINE SMOOTH",
"428 335 OFFCURVE",
"436 328 OFFCURVE",
"431 318 CURVE SMOOTH",
"371 189 LINE SMOOTH",
"370 186 OFFCURVE",
"347 177 OFFCURVE",
"344 177 CURVE SMOOTH",
"321 176 OFFCURVE",
"306 185 OFFCURVE",
"299 205 CURVE",
"295 214 OFFCURVE",
"284 229 OFFCURVE",
"269 229 CURVE SMOOTH",
"264 229 OFFCURVE",
"260 228 OFFCURVE",
"256 226 CURVE SMOOTH",
"202 206 OFFCURVE",
"144 164 OFFCURVE",
"105 125 CURVE SMOOTH",
"93 113 OFFCURVE",
"85 101 OFFCURVE",
"78 91 CURVE",
"78 92 LINE",
"25 8 LINE"
);
}
);
width = 452;
},
{
associatedMasterId = "1467EB51-6BD4-4CFC-AEAA-3E4EB1A95CFA";
layerId = "FCF99BE0-30F0-4FF8-8D6B-C9BF88E0B174";
name = Back;
paths = (
{
closed = 1;
nodes = (
"9.277 0 OFFCURVE",
"4.639 0.488 OFFCURVE",
"0 0.977 OFFCURVE",
"0 5.371 QCURVE SMOOTH",
"1.465 25.879 OFFCURVE",
"9.033 65.674 OFFCURVE",
"16.602 105.469 OFFCURVE",
"29.785 138.184 QCURVE",
"42.969 154.785 OFFCURVE",
"60.547 175.537 OFFCURVE",
"78.125 196.289 OFFCURVE",
"100.098 218.262 QCURVE",
"133.789 253.418 OFFCURVE",
"175.049 286.377 OFFCURVE",
"216.309 319.336 OFFCURVE",
"259.766 339.844 QCURVE",
"306.152 360.84 OFFCURVE",
"344.727 360.84 QCURVE SMOOTH",
"364.258 360.84 OFFCURVE",
"373.779 345.459 OFFCURVE",
"383.301 330.078 OFFCURVE",
"392.578 318.359 QCURVE",
"394.043 317.871 OFFCURVE",
"395.508 317.383 OFFCURVE",
"396.973 316.895 OFFCURVE",
"398.438 316.895 QCURVE SMOOTH",
"431.152 321.777 LINE",
"369.141 187.988 LINE",
"356.445 185.059 OFFCURVE",
"350.098 183.105 QCURVE",
"324.219 182.129 OFFCURVE",
"317.383 205.566 QCURVE",
"310.059 220.703 OFFCURVE",
"293.945 230.957 OFFCURVE",
"277.832 241.211 OFFCURVE",
"256.836 232.91 QCURVE SMOOTH",
"195.312 209.961 OFFCURVE",
"142.578 166.992 QCURVE SMOOTH",
"87.402 121.582 OFFCURVE",
"66.65 89.355 OFFCURVE",
"45.898 57.129 OFFCURVE",
"11.719 2.441 QCURVE"
);
}
);
width = 452;
},
{
associatedMasterId = "EF321139-F770-433D-B2B6-C3EFA1B16465";
layerId = "1F6B012F-C695-4731-A3A8-45E1C14197E7";
name = Back;
paths = (
{
closed = 1;
nodes = (
"20.02 1.953 OFFCURVE",
"14.648 0.977 OFFCURVE",
"9.277 0 OFFCURVE",
"4.15 1.465 OFFCURVE",
"-0.977 2.93 OFFCURVE",
"-4.639 6.836 OFFCURVE",
"-8.301 10.742 OFFCURVE",
"-8.301 17.578 QCURVE SMOOTH",
"-6.836 40.527 OFFCURVE",
"0.488 77.148 QCURVE SMOOTH",
"7.812 113.77 OFFCURVE",
"22.949 152.344 QCURVE",
"36.621 169.434 OFFCURVE",
"53.955 189.941 OFFCURVE",
"71.289 210.449 OFFCURVE",
"91.797 230.957 QCURVE",
"125.488 266.113 OFFCURVE",
"166.016 298.34 OFFCURVE",
"206.543 330.566 OFFCURVE",
"249.512 351.074 QCURVE",
"295.898 372.07 OFFCURVE",
"336.914 372.07 QCURVE SMOOTH",
"361.816 372.07 OFFCURVE",
"374.512 351.562 QCURVE SMOOTH",
"382.324 338.379 OFFCURVE",
"389.648 329.59 QCURVE",
"418.945 334.473 LINE SMOOTH",
"426.27 335.449 OFFCURVE",
"430.42 330.078 OFFCURVE",
"434.57 324.707 OFFCURVE",
"431.152 317.871 QCURVE SMOOTH",
"371.094 188.965 LINE SMOOTH",
"370.117 186.523 OFFCURVE",
"358.643 181.885 OFFCURVE",
"347.168 177.246 OFFCURVE",
"343.75 176.758 QCURVE SMOOTH",
"308.594 175.781 OFFCURVE",
"298.828 207.031 QCURVE",
"299.316 205.078 LINE",
"294.434 216.309 OFFCURVE",
"281.25 225.098 QCURVE SMOOTH",
"275.879 228.516 OFFCURVE",
"269.043 228.516 QCURVE SMOOTH",
"266.113 228.516 OFFCURVE",
"262.695 228.027 OFFCURVE",
"259.277 227.539 OFFCURVE",
"255.859 226.074 QCURVE SMOOTH",
"199.707 205.078 OFFCURVE",
"148.926 164.062 QCURVE SMOOTH",
"123.047 142.578 OFFCURVE",
"105.225 124.756 OFFCURVE",
"87.402 106.934 OFFCURVE",
"77.637 91.309 QCURVE",
"77.637 91.797 LINE",
"24.902 7.812 LINE",
"23.438 5.859 LINE SMOOTH"
);
}
);
width = 452;
}
);
},
{
glyphname = "behDotless-ar.medi.heh";
layers = (
{
anchors = (
{
name = bottom;
position = "{413, -79}";
},
{
name = bottom.mark;
position = "{466, -83}";
},
{
name = entry;
position = "{475, 132}";
},
{
name = exit;
position = "{0, 0}";
},
{
name = top;
position = "{404, 514}";
},
{
name = top.mark;
position = "{417, 541}";
}
);
layerId = "1467EB51-6BD4-4CFC-AEAA-3E4EB1A95CFA";
paths = (
{
closed = 1;
nodes = (
"186 20 OFFCURVE",
"134 -44 OFFCURVE",
"111 -98 CURVE SMOOTH",
"96 -134 OFFCURVE",
"73 -190 OFFCURVE",
"44 -248 CURVE SMOOTH",
"25 -288 OFFCURVE",
"12 -299 OFFCURVE",
"6 -282 CURVE SMOOTH",
"0 -265 OFFCURVE",
"-1 -235 OFFCURVE",
"2 -194 CURVE SMOOTH",
"5 -156 LINE",
"5 -155 LINE",
"58 -90 LINE",
"58 -91 LINE",
"54 -121 LINE",
"62 -105 LINE",
"63 -103 LINE",
"102 -25 OFFCURVE",
"144 55 OFFCURVE",
"196 122 CURVE SMOOTH",
"211 141 OFFCURVE",
"231 165 OFFCURVE",
"256 194 CURVE SMOOTH",
"281 223 OFFCURVE",
"307 249 OFFCURVE",
"336 270 CURVE SMOOTH",
"365 291 OFFCURVE",
"395 303 OFFCURVE",
"425 307 CURVE SMOOTH",
"455 311 OFFCURVE",
"482 297 OFFCURVE",
"507 266 CURVE",
"507 266 OFFCURVE",
"507 266 OFFCURVE",
"512 264 CURVE",
"545 269 LINE",
"483 135 LINE",
"477 133 OFFCURVE",
"470 131 OFFCURVE",
"464 130 CURVE",
"446 129 OFFCURVE",
"436 137 OFFCURVE",
"432 153 CURVE",
"420 177 OFFCURVE",
"402 186 OFFCURVE",
"379 180 CURVE SMOOTH",
"325 165 OFFCURVE",
"273 115 OFFCURVE",
"237 76 CURVE SMOOTH"
);
}
);
width = 572;
},
{
anchors = (
{
name = bottom;
position = "{413, -79}";
},
{
name = bottom.mark;
position = "{466, -83}";
},
{
name = entry;
position = "{475, 132}";
},
{
name = exit;
position = "{0, 0}";
},
{
name = top;
position = "{404, 514}";
},
{
name = top.mark;
position = "{417, 541}";
}
);
layerId = "EF321139-F770-433D-B2B6-C3EFA1B16465";
paths = (
{
closed = 1;
nodes = (
"196 27 OFFCURVE",
"149 -25 OFFCURVE",
"122 -88 CURVE SMOOTH",
"103 -133 OFFCURVE",
"84 -177 OFFCURVE",
"61 -225 CURVE SMOOTH",
"60 -228 OFFCURVE",
"60 -230 OFFCURVE",
"58 -232 CURVE SMOOTH",
"43 -264 OFFCURVE",
"17 -308 OFFCURVE",
"0 -265 CURVE SMOOTH",
"-5 -251 OFFCURVE",
"-7 -232 OFFCURVE",
"-7 -212 CURVE SMOOTH",
"-7 -201 OFFCURVE",
"-6 -188 OFFCURVE",
"-5 -175 CURVE SMOOTH",
"-2 -133 LINE",
"52 -69 LINE SMOOTH",
"55 -65 OFFCURVE",
"58 -63 OFFCURVE",
"63 -64 CURVE",
"99 7 OFFCURVE",
"137 75 OFFCURVE",
"185 136 CURVE SMOOTH",
"214 172 OFFCURVE",
"245 215 OFFCURVE",
"281 247 CURVE SMOOTH",
"295 260 OFFCURVE",
"309 272 OFFCURVE",
"323 282 CURVE",
"348 299 OFFCURVE",
"380 315 OFFCURVE",
"414 320 CURVE SMOOTH",
"447 324 OFFCURVE",
"475 310 OFFCURVE",
"501 279 CURVE",
"530 284 LINE SMOOTH",
"539 285 OFFCURVE",
"547 277 OFFCURVE",
"542 267 CURVE SMOOTH",
"482 137 LINE SMOOTH",
"481 135 OFFCURVE",
"478 132 OFFCURVE",
"475 131 CURVE SMOOTH",
"463 127 LINE",
"437 122 OFFCURVE",
"418 133 OFFCURVE",
"411 154 CURVE",
"405 168 OFFCURVE",
"395 175 OFFCURVE",
"384 175 CURVE SMOOTH",
"367 175 OFFCURVE",
"356 168 OFFCURVE",
"342 161 CURVE SMOOTH",
"304 141 OFFCURVE",
"270 108 OFFCURVE",
"242 77 CURVE SMOOTH"
);
}
);
width = 572;
},
{
associatedMasterId = "1467EB51-6BD4-4CFC-AEAA-3E4EB1A95CFA";
layerId = "23CC453C-AB0F-4965-88EC-709D3E898101";
name = Back;
paths = (
{
closed = 1;
nodes = (
"133.301 -44.434 OFFCURVE",
"110.596 -98.389 OFFCURVE",
"87.891 -152.344 OFFCURVE",
"46.875 -240.723 QCURVE",
"46.387 -241.699 LINE SMOOTH",
"45.898 -243.652 OFFCURVE",
"43.945 -247.559 QCURVE SMOOTH",
"15.137 -308.105 OFFCURVE",
"6.348 -282.227 OFFCURVE",
"-2.441 -256.348 OFFCURVE",
"1.953 -194.336 QCURVE SMOOTH",
"4.883 -155.762 LINE",
"4.883 -155.273 LINE",
"58.105 -89.844 LINE",
"58.105 -91.309 LINE",
"53.711 -120.605 LINE",
"61.523 -104.98 LINE",
"62.988 -102.539 LINE",
"91.309 -45.41 OFFCURVE",
"123.291 12.207 OFFCURVE",
"155.273 69.824 OFFCURVE",
"195.801 121.582 QCURVE SMOOTH",
"218.262 150.391 OFFCURVE",
"255.615 194.336 OFFCURVE",
"292.969 238.281 OFFCURVE",
"336.426 269.775 OFFCURVE",
"379.883 301.27 OFFCURVE",
"424.805 306.885 OFFCURVE",
"469.727 312.5 OFFCURVE",
"506.836 265.625 QCURVE",
"504.883 266.113 OFFCURVE",
"512.207 263.672 QCURVE",
"545.41 269.043 LINE",
"483.398 134.766 LINE",
"478.516 133.301 OFFCURVE",
"473.633 132.324 OFFCURVE",
"468.75 131.348 OFFCURVE",
"464.355 130.371 QCURVE",
"437.988 129.395 OFFCURVE",
"431.641 152.832 QCURVE",
"414.062 189.453 OFFCURVE",
"379.15 179.932 OFFCURVE",
"344.238 170.41 OFFCURVE",
"306.885 141.113 OFFCURVE",
"269.531 111.816 OFFCURVE",
"237.305 76.416 OFFCURVE",
"205.078 41.016 OFFCURVE",
"192.871 26.367 QCURVE SMOOTH"
);
}
);
width = 572;
},
{
associatedMasterId = "EF321139-F770-433D-B2B6-C3EFA1B16465";
layerId = "323213C8-62A3-48DD-81CB-0A84FE1BC239";
name = Back;
paths = (
{
closed = 1;
nodes = (
"171.875 -3.418 OFFCURVE",
"152.344 -32.959 OFFCURVE",
"132.812 -62.5 OFFCURVE",
"122.07 -87.891 QCURVE SMOOTH",
"110.84 -114.258 OFFCURVE",
"95.947 -148.438 OFFCURVE",
"81.055 -182.617 OFFCURVE",
"61.035 -225.098 QCURVE SMOOTH",
"60.059 -227.051 OFFCURVE",
"59.57 -229.004 OFFCURVE",
"59.082 -230.957 OFFCURVE",
"57.617 -232.91 QCURVE SMOOTH",
"58.105 -232.422 LINE",
"38.574 -273.438 OFFCURVE",
"23.438 -280.273 OFFCURVE",
"8.301 -287.109 OFFCURVE",
"-0.488 -264.648 QCURVE SMOOTH",
"-3.906 -255.859 OFFCURVE",
"-5.371 -242.676 OFFCURVE",
"-6.836 -229.492 OFFCURVE",
"-6.836 -212.402 QCURVE SMOOTH",
"-6.836 -195.312 OFFCURVE",
"-5.371 -175.293 QCURVE SMOOTH",
"-1.953 -133.301 LINE",
"51.758 -68.848 LINE SMOOTH",
"56.641 -62.5 OFFCURVE",
"63.477 -64.453 QCURVE",
"89.844 -12.207 OFFCURVE",
"118.896 38.818 OFFCURVE",
"147.949 89.844 OFFCURVE",
"184.57 136.23 QCURVE SMOOTH",
"195.801 150.391 OFFCURVE",
"209.961 167.969 OFFCURVE",
"224.121 185.547 OFFCURVE",
"242.188 207.031 QCURVE SMOOTH",
"260.742 228.516 OFFCURVE",
"281.494 247.314 OFFCURVE",
"302.246 266.113 OFFCURVE",
"322.754 281.738 QCURVE",
"344.238 296.875 OFFCURVE",
"367.92 306.885 OFFCURVE",
"391.602 316.895 OFFCURVE",
"413.574 319.824 QCURVE SMOOTH",
"462.402 325.684 OFFCURVE",
"501.465 278.809 QCURVE",
"530.273 283.691 LINE SMOOTH",
"537.598 284.668 OFFCURVE",
"541.748 279.297 OFFCURVE",
"545.898 273.926 OFFCURVE",
"542.48 267.09 QCURVE SMOOTH",
"482.422 137.207 LINE SMOOTH",
"481.445 135.254 OFFCURVE",
"479.004 133.301 OFFCURVE",
"476.562 131.348 OFFCURVE",
"474.609 130.859 QCURVE SMOOTH",
"462.891 127.441 LINE",
"456.055 125.977 LINE",
"419.434 125 OFFCURVE",
"410.156 156.25 QCURVE",
"410.645 154.297 LINE",
"401.367 175.293 OFFCURVE",
"384.277 175.293 QCURVE SMOOTH",
"381.836 175.293 OFFCURVE",
"379.395 175.049 OFFCURVE",
"376.953 174.805 OFFCURVE",
"374.023 174.316 QCURVE SMOOTH",
"358.398 169.922 OFFCURVE",
"341.797 161.133 OFFCURVE",
"325.195 152.344 OFFCURVE",
"308.105 138.672 QCURVE SMOOTH",
"272.461 110.84 OFFCURVE",
"242.188 77.148 QCURVE SMOOTH",
"226.562 60.059 OFFCURVE",
"216.309 48.34 OFFCURVE",
"206.055 36.621 OFFCURVE",
"199.707 29.785 QCURVE SMOOTH"
);
}
);
width = 572;
}
);
},
{
glyphname = "behDotless-ar.medi.high";
layers = (
{
anchors = (
{
name = bottom;
position = "{167, -123}";
},
{
name = bottom.mark;
position = "{229, -158}";
},
{
name = entry;
position = "{229, 171}";
},
{
name = exit;
position = "{0, 0}";
},
{
name = top;
position = "{132, 492}";
},
{
name = top.mark;
position = "{224, 628}";
}
);
layerId = "1467EB51-6BD4-4CFC-AEAA-3E4EB1A95CFA";
paths = (
{
closed = 1;
nodes = (
"223 254 OFFCURVE",
"216 283 OFFCURVE",
"198 352 CURVE",
"274 465 LINE SMOOTH",
"276 468 OFFCURVE",
"283 443 OFFCURVE",
"294 390 CURVE SMOOTH",
"305 337 OFFCURVE",
"303 280 OFFCURVE",
"286 218 CURVE",
"261 116 OFFCURVE",
"188 49 OFFCURVE",
"82 21 CURVE SMOOTH",
"55 14 OFFCURVE",
"28 7 OFFCURVE",
"0 0 CURVE",
"58 133 LINE",
"118 144 OFFCURVE",
"173 158 OFFCURVE",
"223 179 CURVE"
);
}
);
width = 326;
},
{
anchors = (
{
name = bottom;
position = "{167, -123}";
},
{
name = bottom.mark;
position = "{229, -158}";
},
{
name = entry;
position = "{229, 171}";
},
{
name = exit;
position = "{0, 0}";
},
{
name = top;
position = "{132, 492}";
},
{
name = top.mark;
position = "{224, 628}";
}
);
layerId = "EF321139-F770-433D-B2B6-C3EFA1B16465";
paths = (
{
closed = 1;
nodes = (
"264 476 OFFCURVE",
"270 475 OFFCURVE",
"277 462 CURVE SMOOTH",
"289 441 OFFCURVE",
"306 370 OFFCURVE",
"306 326 CURVE SMOOTH",
"306 286 OFFCURVE",
"299 253 OFFCURVE",
"290 219 CURVE",
"270 141 OFFCURVE",
"225 85 OFFCURVE",
"160 50 CURVE",
"116 28 OFFCURVE",
"58 15 OFFCURVE",
"6 0 CURVE SMOOTH",
"-4 -3 OFFCURVE",
"-13 7 OFFCURVE",
"-8 17 CURVE SMOOTH",
"47 146 LINE SMOOTH",
"48 148 OFFCURVE",
"53 151 OFFCURVE",
"56 152 CURVE SMOOTH",
"112 161 OFFCURVE",
"159 173 OFFCURVE",
"206 192 CURVE",
"206 252 OFFCURVE",
"195 299 OFFCURVE",
"182 349 CURVE SMOOTH",
"181 351 OFFCURVE",
"183 357 OFFCURVE",
"184 358 CURVE SMOOTH",
"258 468 LINE SMOOTH"
);
}
);
width = 326;
},
{
associatedMasterId = "1467EB51-6BD4-4CFC-AEAA-3E4EB1A95CFA";
layerId = "1118CA9D-2297-4F75-97D9-78185F5372B9";
name = Back;
paths = (
{
closed = 1;
nodes = (
"274.414 465.332 LINE SMOOTH",
"277.344 469.727 OFFCURVE",
"294.434 390.381 OFFCURVE",
"311.523 311.035 OFFCURVE",
"285.645 217.773 QCURVE",
"257.812 104.004 OFFCURVE",
"156.738 50.293 QCURVE SMOOTH",
"122.07 31.738 OFFCURVE",
"81.787 21.24 OFFCURVE",
"41.504 10.742 OFFCURVE",
"0 0 QCURVE",
"57.617 133.301 LINE",
"102.051 141.113 OFFCURVE",
"143.555 151.855 OFFCURVE",
"185.059 162.598 OFFCURVE",
"222.656 178.711 QCURVE",
"222.656 223.145 OFFCURVE",
"217.529 258.789 OFFCURVE",
"212.402 294.434 OFFCURVE",
"197.754 352.051 QCURVE"
);
}
);
width = 326;
},
{
associatedMasterId = "EF321139-F770-433D-B2B6-C3EFA1B16465";
layerId = "2292CCE1-D111-43A0-8B04-C1CF9F534A87";
name = Back;
paths = (
{
closed = 1;
nodes = (
"266.113 480.957 OFFCURVE",
"276.611 462.158 OFFCURVE",
"287.109 443.359 OFFCURVE",
"298.34 391.113 QCURVE SMOOTH",
"305.664 358.887 OFFCURVE",
"305.664 326.172 QCURVE SMOOTH",
"305.664 300.293 OFFCURVE",
"301.758 273.926 OFFCURVE",
"297.852 247.559 OFFCURVE",
"290.039 218.75 QCURVE",
"290.039 219.238 LINE",
"275.879 162.598 OFFCURVE",
"242.92 119.873 OFFCURVE",
"209.961 77.148 OFFCURVE",
"159.668 49.805 QCURVE",
"131.836 35.645 OFFCURVE",
"97.656 25.391 OFFCURVE",
"63.477 15.137 OFFCURVE",
"29.785 6.836 QCURVE SMOOTH",
"18.066 3.906 OFFCURVE",
"5.859 0.488 QCURVE SMOOTH",
"-1.953 -1.953 OFFCURVE",
"-6.836 3.662 OFFCURVE",
"-11.719 9.277 OFFCURVE",
"-8.301 16.602 QCURVE SMOOTH",
"47.363 145.508 LINE SMOOTH",
"48.34 147.461 OFFCURVE",
"51.27 149.658 OFFCURVE",
"54.199 151.855 OFFCURVE",
"56.152 152.344 QCURVE SMOOTH",
"97.656 159.18 OFFCURVE",
"134.277 168.701 OFFCURVE",
"170.898 178.223 OFFCURVE",
"206.055 192.383 QCURVE",
"206.055 211.914 OFFCURVE",
"204.59 227.539 OFFCURVE",
"203.125 243.164 OFFCURVE",
"200.684 259.766 QCURVE SMOOTH",
"198.242 278.32 OFFCURVE",
"193.604 300.537 OFFCURVE",
"188.965 322.754 OFFCURVE",
"182.129 349.121 QCURVE SMOOTH",
"181.641 350.586 OFFCURVE",
"182.129 354.004 OFFCURVE",
"182.617 357.422 OFFCURVE",
"183.594 358.398 QCURVE SMOOTH",
"257.812 468.262 LINE SMOOTH"
);
}
);
width = 326;
}
);
},
{
glyphname = "behDotless-ar.medi.high2";
layers = (
{
anchors = (
{
name = bottom;
position = "{189, -158}";
},
{
name = bottom.mark;
position = "{272, -171}";
},
{
name = entry;
position = "{237, 0}";
},
{
name = exit;
position = "{0, 0}";
},
{
name = top;
position = "{244, 586}";
},
{
name = top.mark;
position = "{250, 545}";
}
);
layerId = "1467EB51-6BD4-4CFC-AEAA-3E4EB1A95CFA";
paths = (
{
closed = 1;
nodes = (
"289 411 LINE",
"311 117 LINE",
"237 0 LINE",
"229 107 LINE",
"209 85 OFFCURVE",
"185 66 OFFCURVE",
"156 50 CURVE",
"0 0 LINE",
"65 137 LINE",
"121 147 OFFCURVE",
"177 159 OFFCURVE",
"224 179 CURVE",
"215 293 LINE"
);
}
);
width = 236;
},
{
anchors = (
{
name = bottom;
position = "{189, -158}";
},
{
name = bottom.mark;
position = "{272, -171}";
},
{
name = entry;
position = "{237, 0}";
},
{
name = exit;
position = "{0, 0}";
},
{
name = top;
position = "{244, 586}";
},
{
name = top.mark;
position = "{250, 545}";
}
);
layerId = "EF321139-F770-433D-B2B6-C3EFA1B16465";
paths = (
{
closed = 1;
nodes = (
"272 415 LINE SMOOTH",
"278 424 OFFCURVE",
"293 422 OFFCURVE",
"294 410 CURVE SMOOTH",
"315 122 LINE",
"241 6 LINE SMOOTH",
"235 -3 OFFCURVE",
"221 -1 OFFCURVE",
"220 11 CURVE SMOOTH",
"214 88 LINE",
"197 72 OFFCURVE",
"179 61 OFFCURVE",
"158 49 CURVE",
"6 0 LINE",
"-4 -4 OFFCURVE",
"-13 7 OFFCURVE",
"-8 17 CURVE SMOOTH",
"55 149 LINE SMOOTH",
"56 151 OFFCURVE",
"61 155 OFFCURVE",
"64 156 CURVE SMOOTH",
"113 165 OFFCURVE",
"165 175 OFFCURVE",
"207 192 CURVE",
"198 298 LINE"
);
}
);
width = 236;
},
{
associatedMasterId = "1467EB51-6BD4-4CFC-AEAA-3E4EB1A95CFA";
layerId = "0EEB818F-1AB5-43BF-BEC2-2C038932EA55";
name = Back;
paths = (
{
closed = 1;
nodes = (
"289.062 410.645 LINE",
"310.547 117.188 LINE",
"236.816 0 LINE",
"229.004 107.422 LINE",
"199.707 73.73 OFFCURVE",
"156.25 50.293 QCURVE",
"0 0 LINE",
"0 0 LINE",
"65.43 136.719 LINE",
"104.98 143.555 OFFCURVE",
"145.508 153.076 OFFCURVE",
"186.035 162.598 OFFCURVE",
"223.633 178.711 QCURVE",
"215.332 293.457 LINE"
);
}
);
width = 236;
},
{
associatedMasterId = "EF321139-F770-433D-B2B6-C3EFA1B16465";
layerId = "0174A1DE-5DCD-46AD-9987-481BDC9DA28C";
name = Back;
paths = (
{
closed = 1;
nodes = (
"271.973 414.551 LINE SMOOTH",
"274.414 418.457 OFFCURVE",
"278.076 419.678 OFFCURVE",
"281.738 420.898 OFFCURVE",
"285.156 420.166 OFFCURVE",
"288.574 419.434 OFFCURVE",
"291.016 416.748 OFFCURVE",
"293.457 414.062 OFFCURVE",
"293.945 409.668 QCURVE SMOOTH",
"314.941 122.07 LINE",
"241.211 5.859 LINE SMOOTH",
"238.77 1.953 OFFCURVE",
"235.352 0.732 OFFCURVE",
"231.934 -0.488 OFFCURVE",
"228.516 0.244 OFFCURVE",
"225.098 0.977 OFFCURVE",
"222.656 3.662 OFFCURVE",
"220.215 6.348 OFFCURVE",
"219.727 10.742 QCURVE SMOOTH",
"213.867 88.379 LINE",
"201.172 76.66 OFFCURVE",
"187.5 67.383 OFFCURVE",
"173.828 58.105 OFFCURVE",
"157.715 48.828 QCURVE",
"6.348 0.488 LINE SMOOTH",
"2.441 -0.977 OFFCURVE",
"-0.977 0 OFFCURVE",
"-4.395 0.977 OFFCURVE",
"-6.592 3.662 OFFCURVE",
"-8.789 6.348 OFFCURVE",
"-9.521 9.766 OFFCURVE",
"-10.254 13.184 OFFCURVE",
"-8.301 17.09 QCURVE SMOOTH",
"55.176 148.926 LINE SMOOTH",
"56.152 150.879 OFFCURVE",
"58.838 153.076 OFFCURVE",
"61.523 155.273 OFFCURVE",
"63.965 155.762 QCURVE SMOOTH",
"99.121 162.109 OFFCURVE",
"135.986 170.654 OFFCURVE",
"172.852 179.199 OFFCURVE",
"206.543 192.383 QCURVE",
"198.242 298.34 LINE"
);
}
);
width = 236;
}
);
},
{
glyphname = "behDotless-ar.medi.meem";
layers = (
{
anchors = (
{
name = bottom;
position = "{347, -88}";
},
{
name = bottom.mark;
position = "{281, -114}";
},
{
name = entry;
position = "{286, 92}";
},
{
name = exit;
position = "{-24, -49}";
},
{
name = top;
position = "{224, 461}";
},
{
name = top.mark;
position = "{246, 466}";
}
);
layerId = "1467EB51-6BD4-4CFC-AEAA-3E4EB1A95CFA";
paths = (
{
closed = 1;
nodes = (
"118 115 OFFCURVE",
"69 55 OFFCURVE",
"30 0 CURVE",
"0 8 LINE",
"0 8 LINE",
"34 80 OFFCURVE",
"90 167 OFFCURVE",
"145 220 CURVE SMOOTH",
"164 238 OFFCURVE",
"183 251 OFFCURVE",
"203 260 CURVE SMOOTH",
"223 269 OFFCURVE",
"242 272 OFFCURVE",
"262 268 CURVE",
"283 263 OFFCURVE",
"304 248 OFFCURVE",
"322 225 CURVE",
"328 224 LINE",
"361 229 LINE",
"298 94 LINE",
"292 92 OFFCURVE",
"285 91 OFFCURVE",
"279 90 CURVE",
"261 89 OFFCURVE",
"251 96 OFFCURVE",
"247 112 CURVE",
"233 141 OFFCURVE",
"212 151 OFFCURVE",
"185 141 CURVE SMOOTH"
);
}
);
width = 287;
},
{
anchors = (
{
name = bottom;
position = "{347, -88}";
},
{
name = bottom.mark;
position = "{281, -114}";
},
{
name = entry;
position = "{286, 92}";
},
{
name = exit;
position = "{-24, -49}";
},
{
name = top;
position = "{224, 461}";
},
{
name = top.mark;
position = "{246, 466}";
}
);
layerId = "EF321139-F770-433D-B2B6-C3EFA1B16465";
paths = (
{
closed = 1;
nodes = (
"277 284 OFFCURVE",
"302 263 OFFCURVE",
"321 240 CURVE",
"350 245 LINE SMOOTH",
"359 246 OFFCURVE",
"367 238 OFFCURVE",
"363 228 CURVE SMOOTH",
"302 98 LINE SMOOTH",
"301 96 OFFCURVE",
"297 92 OFFCURVE",
"294 91 CURVE SMOOTH",
"282 88 LINE",
"276 87 LINE",
"251 86 OFFCURVE",
"236 96 OFFCURVE",
"230 115 CURVE",
"222 131 OFFCURVE",
"213 140 OFFCURVE",
"201 140 CURVE SMOOTH",
"195 140 OFFCURVE",
"191 138 OFFCURVE",
"186 136 CURVE",
"186 137 LINE",
"157 127 OFFCURVE",
"131 108 OFFCURVE",
"107 83 CURVE",
"81 57 OFFCURVE",
"59 31 OFFCURVE",
"41 5 CURVE SMOOTH",
"39 2 OFFCURVE",
"34 -1 OFFCURVE",
"29 0 CURVE SMOOTH",
"0 8 LINE SMOOTH",
"-19 13 OFFCURVE",
"-1 40 OFFCURVE",
"6 52 CURVE SMOOTH",
"40 115 OFFCURVE",
"85 185 OFFCURVE",
"135 232 CURVE SMOOTH",
"161 257 OFFCURVE",
"195 284 OFFCURVE",
"239 284 CURVE SMOOTH"
);
}
);
width = 287;
},
{
associatedMasterId = "1467EB51-6BD4-4CFC-AEAA-3E4EB1A95CFA";
layerId = "79FD3F1B-0A6B-4381-B9D1-EBE547731F86";
name = Back;
paths = (
{
closed = 1;
nodes = (
"136.719 122.07 OFFCURVE",
"98.633 83.008 OFFCURVE",
"60.547 43.945 OFFCURVE",
"29.785 0 QCURVE",
"29.785 0 LINE",
"0 7.812 LINE",
"0 8.301 LINE",
"11.719 33.203 OFFCURVE",
"33.691 71.289 OFFCURVE",
"55.664 109.375 OFFCURVE",
"83.496 147.949 QCURVE SMOOTH",
"113.77 189.941 OFFCURVE",
"145.02 219.727 QCURVE SMOOTH",
"172.852 246.094 OFFCURVE",
"202.881 260.01 OFFCURVE",
"232.91 273.926 OFFCURVE",
"262.207 267.578 QCURVE",
"294.434 259.766 OFFCURVE",
"321.777 225.098 QCURVE",
"327.637 223.633 OFFCURVE",
"327.637 223.633 QCURVE",
"360.84 228.516 LINE",
"298.34 94.238 LINE",
"293.457 92.773 OFFCURVE",
"288.574 91.797 OFFCURVE",
"283.691 90.82 OFFCURVE",
"279.297 89.844 QCURVE",
"252.93 88.867 OFFCURVE",
"246.582 112.305 QCURVE",
"225.586 156.25 OFFCURVE",
"185.059 140.625 QCURVE SMOOTH"
);
}
);
width = 287;
},
{
associatedMasterId = "EF321139-F770-433D-B2B6-C3EFA1B16465";
layerId = "781F9B4A-048C-4AE3-8FF5-9DB1B914BD36";
name = Back;
paths = (
{
closed = 1;
nodes = (
"142.578 121.094 OFFCURVE",
"106.934 83.496 QCURVE",
"68.359 43.945 OFFCURVE",
"41.016 5.371 QCURVE SMOOTH",
"39.551 2.93 OFFCURVE",
"35.889 1.221 OFFCURVE",
"32.227 -0.488 OFFCURVE",
"28.809 0.488 QCURVE SMOOTH",
"0 8.301 LINE SMOOTH",
"-5.371 9.766 OFFCURVE",
"-7.812 14.648 OFFCURVE",
"-10.254 19.531 OFFCURVE",
"-7.812 24.902 QCURVE SMOOTH",
"-2.441 36.133 OFFCURVE",
"5.859 51.514 OFFCURVE",
"14.16 66.895 OFFCURVE",
"25.391 86.426 QCURVE SMOOTH",
"46.875 124.023 OFFCURVE",
"74.219 161.621 QCURVE SMOOTH",
"104.004 203.125 OFFCURVE",
"135.254 232.422 QCURVE SMOOTH",
"159.668 255.859 OFFCURVE",
"186.035 270.02 OFFCURVE",
"212.402 284.18 OFFCURVE",
"239.258 284.18 QCURVE SMOOTH",
"244.141 284.18 OFFCURVE",
"249.023 283.691 OFFCURVE",
"253.906 283.203 OFFCURVE",
"259.277 281.738 QCURVE SMOOTH",
"275.391 277.344 OFFCURVE",
"291.016 267.09 OFFCURVE",
"306.641 256.836 OFFCURVE",
"320.801 239.746 QCURVE",
"350.098 244.629 LINE SMOOTH",
"357.91 245.605 OFFCURVE",
"361.816 240.234 OFFCURVE",
"365.723 234.863 OFFCURVE",
"362.793 228.027 QCURVE SMOOTH",
"302.246 98.145 LINE SMOOTH",
"301.27 96.191 OFFCURVE",
"298.584 93.994 OFFCURVE",
"295.898 91.797 OFFCURVE",
"293.945 91.309 QCURVE SMOOTH",
"282.227 88.379 LINE",
"275.879 86.914 LINE",
"257.324 86.426 OFFCURVE",
"246.094 93.75 OFFCURVE",
"234.863 101.074 OFFCURVE",
"229.98 117.188 QCURVE",
"230.469 115.234 LINE",
"218.75 139.648 OFFCURVE",
"201.172 139.648 QCURVE SMOOTH",
"197.754 139.648 OFFCURVE",
"194.092 138.672 OFFCURVE",
"190.43 137.695 OFFCURVE",
"185.547 136.23 QCURVE",
"186.035 136.719 LINE"
);
}
);
width = 287;
}
);
},
{
glyphname = "behDotless-ar.medi.noon";
layers = (
{
anchors = (
{
name = bottom;
position = "{88, -101}";
},
{
name = bottom.mark;
position = "{136, -176}";
},
{
name = entry;
position = "{242, 0}";
},
{
name = exit;
position = "{0, 44}";
},
{
name = top;
position = "{158, 457}";
},
{
name = top.mark;
position = "{224, 497}";
}
);
layerId = "1467EB51-6BD4-4CFC-AEAA-3E4EB1A95CFA";
paths = (
{
closed = 1;
nodes = (
"302 276 OFFCURVE",
"309 202 OFFCURVE",
"315 128 CURVE",
"242 0 LINE",
"229 195 LINE",
"192 152 OFFCURVE",
"144 124 OFFCURVE",
"82 108 CURVE SMOOTH",
"55 101 OFFCURVE",
"28 94 OFFCURVE",
"0 87 CURVE",
"18 220 LINE",
"59 214 OFFCURVE",
"110 224 OFFCURVE",
"172 251 CURVE SMOOTH",
"236 279 OFFCURVE",
"275 311 OFFCURVE",
"289 345 CURVE SMOOTH",
"292 352 OFFCURVE",
"295 355 OFFCURVE",
"299 357 CURVE SMOOTH",
"302 358 OFFCURVE",
"304 357 OFFCURVE",
"304 354 CURVE SMOOTH"
);
}
);
width = 241;
},
{
anchors = (
{
name = bottom;
position = "{88, -101}";
},
{
name = bottom.mark;
position = "{136, -176}";
},
{
name = entry;
position = "{234, 0}";
},
{
name = exit;
position = "{0, 44}";
},
{
name = top;
position = "{158, 457}";
},
{
name = top.mark;
position = "{224, 497}";
}
);
layerId = "EF321139-F770-433D-B2B6-C3EFA1B16465";
paths = (
{
closed = 1;
nodes = (
"308 345 OFFCURVE",
"308 338 OFFCURVE",
"308 329 CURVE SMOOTH",
"308 273 OFFCURVE",
"311 227 OFFCURVE",
"315 174 CURVE SMOOTH",
"318 142 LINE",
"247 6 LINE SMOOTH",
"241 -4 OFFCURVE",
"226 -1 OFFCURVE",
"225 11 CURVE",
"213 173 LINE",
"196 157 OFFCURVE",
"180 146 OFFCURVE",
"160 134 CURVE",
"121 114 OFFCURVE",
"70 100 OFFCURVE",
"23 89 CURVE SMOOTH",
"5 84 LINE",
"-4 81 OFFCURVE",
"-10 88 OFFCURVE",
"-9 97 CURVE SMOOTH",
"8 226 LINE",
"11 241 OFFCURVE",
"27 234 OFFCURVE",
"43 234 CURVE SMOOTH",
"76 234 OFFCURVE",
"116 245 OFFCURVE",
"164 266 CURVE SMOOTH",
"220 290 OFFCURVE",
"256 318 OFFCURVE",
"271 350 CURVE",
"271 349 LINE",
"274 357 OFFCURVE",
"279 364 OFFCURVE",
"286 368 CURVE",
"301 375 OFFCURVE",
"308 370 OFFCURVE",
"308 354 CURVE SMOOTH"
);
}
);
width = 241;
},
{
associatedMasterId = "1467EB51-6BD4-4CFC-AEAA-3E4EB1A95CFA";
layerId = "EB8D480D-FD73-4681-8A4C-944D4D917665";
name = Back;
paths = (
{
closed = 1;
nodes = (
"302.246 297.852 OFFCURVE",
"306.396 241.455 OFFCURVE",
"310.547 185.059 OFFCURVE",
"314.941 127.93 QCURVE",
"241.699 0 LINE",
"228.516 194.824 LINE",
"197.266 158.691 OFFCURVE",
"156.738 137.207 QCURVE SMOOTH",
"122.07 118.652 OFFCURVE",
"81.787 107.91 OFFCURVE",
"41.504 97.168 OFFCURVE",
"0 86.914 QCURVE",
"17.578 220.215 LINE",
"79.59 210.938 OFFCURVE",
"171.875 251.465 QCURVE SMOOTH",
"267.471 293.446 OFFCURVE",
"289.062 344.727 QCURVE SMOOTH",
"293.278 354.738 OFFCURVE",
"299.316 357.422 QCURVE SMOOTH",
"303.711 359.375 OFFCURVE",
"303.711 354.492 QCURVE SMOOTH"
);
}
);
width = 241;
},
{
associatedMasterId = "EF321139-F770-433D-B2B6-C3EFA1B16465";
layerId = "F3EAEA8F-66A9-486E-91BE-03B782064664";
name = Back;
paths = (
{
closed = 1;
nodes = (
"308.105 347.656 OFFCURVE",
"307.861 341.553 OFFCURVE",
"307.617 335.449 OFFCURVE",
"307.617 329.102 QCURVE SMOOTH",
"307.617 288.574 OFFCURVE",
"309.814 251.465 OFFCURVE",
"312.012 214.355 OFFCURVE",
"315.43 173.828 QCURVE SMOOTH",
"317.871 142.09 LINE",
"246.582 6.348 LINE SMOOTH",
"244.141 1.953 OFFCURVE",
"240.723 0.488 OFFCURVE",
"237.305 -0.977 OFFCURVE",
"233.887 -0.244 OFFCURVE",
"230.469 0.488 OFFCURVE",
"227.783 3.418 OFFCURVE",
"225.098 6.348 OFFCURVE",
"224.609 10.742 QCURVE SMOOTH",
"213.379 172.852 LINE",
"200.684 160.645 OFFCURVE",
"187.5 151.367 OFFCURVE",
"174.316 142.09 OFFCURVE",
"159.668 133.789 QCURVE",
"129.883 118.652 OFFCURVE",
"94.238 107.91 OFFCURVE",
"58.594 97.168 OFFCURVE",
"23.438 88.867 QCURVE SMOOTH",
"5.371 84.473 LINE SMOOTH",
"-0.977 82.52 OFFCURVE",
"-5.615 86.426 OFFCURVE",
"-10.254 90.332 OFFCURVE",
"-9.277 97.168 QCURVE SMOOTH",
"7.812 226.074 LINE SMOOTH",
"8.789 230.957 OFFCURVE",
"12.451 234.131 OFFCURVE",
"16.113 237.305 OFFCURVE",
"20.996 236.328 QCURVE SMOOTH",
"26.855 235.352 OFFCURVE",
"32.471 234.863 OFFCURVE",
"38.086 234.375 OFFCURVE",
"43.457 234.375 QCURVE SMOOTH",
"92.773 234.375 OFFCURVE",
"164.062 265.625 QCURVE SMOOTH",
"248.047 302.246 OFFCURVE",
"270.996 350.098 QCURVE",
"270.996 349.121 LINE",
"275.879 361.328 OFFCURVE",
"286.133 367.676 QCURVE",
"308.105 378.418 OFFCURVE",
"308.105 354.492 QCURVE SMOOTH"
);
}
);
width = 241;
}
);
},
{
glyphname = "behDotless-ar.medi.ragaa";
layers = (
{
anchors = (
{
name = bottom;
position = "{206, -255}";
},
{
name = bottom.mark;
position = "{206, -255}";
},
{
name = entry;
position = "{285, 91}";
},
{
name = exit;
position = "{0, 0}";
},
{
name = top;
position = "{247, 494}";
},
{
name = top.mark;
position = "{247, 537}";
}
);
layerId = "1467EB51-6BD4-4CFC-AEAA-3E4EB1A95CFA";
paths = (
{
closed = 1;
nodes = (
"231 132 OFFCURVE",
"209 153 OFFCURVE",
"179 141 CURVE SMOOTH",
"153 131 OFFCURVE",
"130 112 OFFCURVE",
"107 82 CURVE SMOOTH",
"84 52 OFFCURVE",
"64 25 OFFCURVE",
"47 1 CURVE",
"47 0 LINE",
"0 32 LINE",
"5 46 OFFCURVE",
"19 71 OFFCURVE",
"42 105 CURVE SMOOTH",
"65 139 OFFCURVE",
"83 163 OFFCURVE",
"94 176 CURVE SMOOTH",
"116 201 OFFCURVE",
"141 223 OFFCURVE",
"169 241 CURVE SMOOTH",
"197 259 OFFCURVE",
"230 269 OFFCURVE",
"267 269 CURVE SMOOTH",
"294 269 OFFCURVE",
"303 242 OFFCURVE",
"315 227 CURVE",
"316 227 OFFCURVE",
"318 226 OFFCURVE",
"321 225 CURVE",
"354 230 LINE",
"292 96 LINE",
"282 93 OFFCURVE",
"274 92 OFFCURVE",
"272 91 CURVE",
"254 90 OFFCURVE",
"244 98 OFFCURVE",
"240 114 CURVE"
);
}
);
width = 259;
},
{
anchors = (
{
name = bottom;
position = "{206, -255}";
},
{
name = bottom.mark;
position = "{206, -255}";
},
{
name = entry;
position = "{285, 91}";
},
{
name = exit;
position = "{0, 0}";
},
{
name = top;
position = "{247, 494}";
},
{
name = top.mark;
position = "{247, 537}";
}
);
layerId = "EF321139-F770-433D-B2B6-C3EFA1B16465";
paths = (
{
closed = 1;
nodes = (
"243 87 OFFCURVE",
"228 97 OFFCURVE",
"223 118 CURVE",
"219 125 OFFCURVE",
"207 139 OFFCURVE",
"193 139 CURVE SMOOTH",
"188 139 OFFCURVE",
"185 139 OFFCURVE",
"181 137 CURVE SMOOTH",
"159 128 OFFCURVE",
"137 110 OFFCURVE",
"116 84 CURVE",
"116 84 LINE",
"96 57 OFFCURVE",
"78 33 OFFCURVE",
"59 6 CURVE SMOOTH",
"56 1 OFFCURVE",
"48 -2 OFFCURVE",
"42 2 CURVE SMOOTH",
"-4 33 LINE SMOOTH",
"-7 35 OFFCURVE",
"-12 42 OFFCURVE",
"-9 48 CURVE SMOOTH",
"-5 61 OFFCURVE",
"9 86 OFFCURVE",
"33 121 CURVE SMOOTH",
"70 177 OFFCURVE",
"105 222 OFFCURVE",
"160 256 CURVE SMOOTH",
"187 274 OFFCURVE",
"219 284 OFFCURVE",
"261 285 CURVE SMOOTH",
"278 285 OFFCURVE",
"291 278 OFFCURVE",
"300 264 CURVE",
"304 256 OFFCURVE",
"308 250 OFFCURVE",
"314 243 CURVE",
"342 247 LINE SMOOTH",
"352 248 OFFCURVE",
"362 240 OFFCURVE",
"356 229 CURVE SMOOTH",
"296 100 LINE SMOOTH",
"295 98 OFFCURVE",
"290 94 OFFCURVE",
"287 93 CURVE SMOOTH",
"267 88 LINE"
);
}
);
width = 259;
},
{
associatedMasterId = "1467EB51-6BD4-4CFC-AEAA-3E4EB1A95CFA";
layerId = "02EC1695-E446-47E1-9DF5-A240B2D8D11C";
name = Back;
paths = (
{
closed = 1;
nodes = (
"232.91 128.418 OFFCURVE",
"216.797 138.916 OFFCURVE",
"200.684 149.414 OFFCURVE",
"179.199 141.113 QCURVE SMOOTH",
"140.625 126.465 OFFCURVE",
"106.689 82.031 OFFCURVE",
"72.754 37.598 OFFCURVE",
"47.363 0.977 QCURVE",
"46.875 0 LINE",
"0 32.227 LINE",
"7.324 53.711 OFFCURVE",
"42.236 105.225 OFFCURVE",
"77.148 156.738 OFFCURVE",
"93.75 175.781 QCURVE SMOOTH",
"127.441 213.867 OFFCURVE",
"169.434 241.211 OFFCURVE",
"211.426 268.555 OFFCURVE",
"267.09 269.043 QCURVE SMOOTH",
"287.109 269.043 OFFCURVE",
"296.631 253.662 OFFCURVE",
"306.152 238.281 OFFCURVE",
"315.43 226.562 QCURVE",
"316.895 226.074 OFFCURVE",
"320.801 225.098 QCURVE",
"354.004 229.98 LINE",
"291.504 96.191 LINE",
"275.879 92.285 OFFCURVE",
"272.461 91.309 QCURVE",
"245.605 90.332 OFFCURVE",
"240.234 113.77 QCURVE"
);
}
);
width = 259;
},
{
associatedMasterId = "EF321139-F770-433D-B2B6-C3EFA1B16465";
layerId = "A3CCB06F-3A1C-4D10-9C61-E30AA4ED39F6";
name = Back;
paths = (
{
closed = 1;
nodes = (
"229.98 86.914 OFFCURVE",
"222.656 118.164 QCURVE",
"217.773 126.953 OFFCURVE",
"205.078 135.742 QCURVE SMOOTH",
"202.148 137.207 OFFCURVE",
"199.463 138.184 OFFCURVE",
"196.777 139.16 OFFCURVE",
"193.359 139.16 QCURVE SMOOTH",
"186.035 139.16 OFFCURVE",
"180.664 136.719 QCURVE SMOOTH",
"146.973 123.535 OFFCURVE",
"115.723 84.473 QCURVE",
"116.211 84.473 LINE",
"100.098 62.5 OFFCURVE",
"85.693 43.457 OFFCURVE",
"71.289 24.414 OFFCURVE",
"58.594 5.859 QCURVE SMOOTH",
"56.152 1.465 OFFCURVE",
"50.781 0.488 OFFCURVE",
"45.41 -0.488 OFFCURVE",
"41.504 2.441 QCURVE SMOOTH",
"-3.906 33.203 LINE SMOOTH",
"-7.324 35.645 OFFCURVE",
"-8.789 40.039 OFFCURVE",
"-10.254 44.434 OFFCURVE",
"-8.789 47.852 QCURVE SMOOTH",
"-2.441 67.871 OFFCURVE",
"33.203 121.094 QCURVE SMOOTH",
"50.293 146.973 OFFCURVE",
"62.988 164.062 OFFCURVE",
"75.684 181.152 OFFCURVE",
"83.984 190.43 QCURVE SMOOTH",
"101.562 209.961 OFFCURVE",
"120.361 226.562 OFFCURVE",
"139.16 243.164 OFFCURVE",
"159.668 255.859 QCURVE",
"181.152 270.02 OFFCURVE",
"206.299 277.1 OFFCURVE",
"231.445 284.18 OFFCURVE",
"260.742 284.668 QCURVE SMOOTH",
"286.133 284.668 OFFCURVE",
"299.805 263.672 QCURVE",
"303.223 257.324 OFFCURVE",
"306.641 252.441 OFFCURVE",
"310.059 247.559 OFFCURVE",
"313.965 242.676 QCURVE",
"342.285 247.07 LINE SMOOTH",
"350.586 248.047 OFFCURVE",
"355.225 242.432 OFFCURVE",
"359.863 236.816 OFFCURVE",
"355.957 229.004 QCURVE SMOOTH",
"295.898 100.098 LINE SMOOTH",
"294.922 98.145 OFFCURVE",
"291.992 95.947 OFFCURVE",
"289.062 93.75 OFFCURVE",
"287.109 93.262 QCURVE SMOOTH",
"266.602 87.891 LINE"
);
}
);
width = 259;
}
);
},
{
glyphname = "behDotless-ar.medi.reh";
layers = (
{
anchors = (
{
name = bottom;
position = "{198, -158}";
},
{
name = bottom.mark;
position = "{242, -167}";
},
{
name = entry;
position = "{264, 22}";
},
{
name = exit;
position = "{0, 0}";
},
{
name = top;
position = "{198, 453}";
},
{
name = top.mark;
position = "{229, 426}";
}
);
layerId = "1467EB51-6BD4-4CFC-AEAA-3E4EB1A95CFA";
paths = (
{
closed = 1;
nodes = (
"280 26 OFFCURVE",
"252 22 OFFCURVE",
"225 18 CURVE SMOOTH",
"198 14 OFFCURVE",
"186 27 OFFCURVE",
"191 58 CURVE",
"192 69 OFFCURVE",
"178 70 OFFCURVE",
"148 63 CURVE SMOOTH",
"118 56 OFFCURVE",
"91 49 OFFCURVE",
"70 41 CURVE",
"58 34 OFFCURVE",
"45 24 OFFCURVE",
"34 13 CURVE",
"16 -13 OFFCURVE",
"-6 4 OFFCURVE",
"1 32 CURVE",
"0 34 OFFCURVE",
"10 51 OFFCURVE",
"11 52 CURVE SMOOTH",
"21 76 OFFCURVE",
"28 103 OFFCURVE",
"40 126 CURVE SMOOTH",
"51 147 OFFCURVE",
"82 165 OFFCURVE",
"134 181 CURVE SMOOTH",
"177 194 OFFCURVE",
"260 218 OFFCURVE",
"259 190 CURVE",
"255 159 OFFCURVE",
"279 150 OFFCURVE",
"309 154 CURVE",
"307 31 LINE"
);
}
);
width = 324;
},
{
anchors = (
{
name = bottom;
position = "{198, -158}";
},
{
name = bottom.mark;
position = "{242, -167}";
},
{
name = entry;
position = "{264, 22}";
},
{
name = exit;
position = "{0, 0}";
},
{
name = top;
position = "{198, 453}";
},
{
name = top.mark;
position = "{229, 426}";
}
);
layerId = "EF321139-F770-433D-B2B6-C3EFA1B16465";
paths = (
{
closed = 1;
nodes = (
"34 3 OFFCURVE",
"21 -9 OFFCURVE",
"3 5 CURVE SMOOTH",
"-7 13 OFFCURVE",
"-12 23 OFFCURVE",
"-8 42 CURVE",
"-10 51 OFFCURVE",
"-2 58 OFFCURVE",
"1 66 CURVE SMOOTH",
"11 90 OFFCURVE",
"19 116 OFFCURVE",
"31 139 CURVE SMOOTH",
"42 162 OFFCURVE",
"74 181 OFFCURVE",
"128 198 CURVE SMOOTH",
"180 214 OFFCURVE",
"218 222 OFFCURVE",
"242 219 CURVE SMOOTH",
"258 217 OFFCURVE",
"266 209 OFFCURVE",
"265 194 CURVE",
"262 174 OFFCURVE",
"280 170 OFFCURVE",
"300 173 CURVE SMOOTH",
"308 174 OFFCURVE",
"313 168 OFFCURVE",
"313 161 CURVE SMOOTH",
"311 42 LINE SMOOTH",
"311 36 OFFCURVE",
"306 31 OFFCURVE",
"301 30 CURVE SMOOTH",
"222 17 LINE SMOOTH",
"186 12 OFFCURVE",
"169 30 OFFCURVE",
"175 67 CURVE",
"175 65 OFFCURVE",
"174 65 OFFCURVE",
"172 65 CURVE SMOOTH",
"164 65 OFFCURVE",
"156 63 OFFCURVE",
"148 62 CURVE",
"122 55 OFFCURVE",
"97 50 OFFCURVE",
"75 41 CURVE",
"64 34 OFFCURVE",
"54 26 OFFCURVE",
"43 16 CURVE",
"45 18 LINE"
);
}
);
width = 324;
},
{
associatedMasterId = "1467EB51-6BD4-4CFC-AEAA-3E4EB1A95CFA";
layerId = "325C090F-A401-41EF-942B-5BCE9423AD7C";
name = Back;
paths = (
{
closed = 1;
nodes = (
"266.113 23.926 OFFCURVE",
"225.098 17.578 OFFCURVE",
"184.082 11.23 OFFCURVE",
"191.406 57.617 QCURVE",
"192.871 73.73 OFFCURVE",
"147.705 63.477 OFFCURVE",
"102.539 53.223 OFFCURVE",
"70.312 40.527 QCURVE",
"52.734 29.785 OFFCURVE",
"34.668 13.672 QCURVE",
"34.18 13.184 LINE",
"20.508 -6.836 OFFCURVE",
"8.545 2.441 OFFCURVE",
"-3.418 11.719 OFFCURVE",
"1.465 32.227 QCURVE",
"0.488 33.691 OFFCURVE",
"4.883 41.016 OFFCURVE",
"9.277 48.34 OFFCURVE",
"10.742 51.758 QCURVE SMOOTH",
"18.066 68.848 OFFCURVE",
"24.414 88.379 OFFCURVE",
"30.762 107.91 OFFCURVE",
"40.039 125.977 QCURVE SMOOTH",
"56.152 157.227 OFFCURVE",
"133.789 181.396 OFFCURVE",
"211.426 205.566 OFFCURVE",
"246.582 202.148 QCURVE SMOOTH",
"259.766 200.684 OFFCURVE",
"259.277 189.941 QCURVE",
"256.348 166.992 OFFCURVE",
"271.484 159.18 OFFCURVE",
"286.621 151.367 OFFCURVE",
"309.082 154.297 QCURVE",
"307.129 30.762 LINE"
);
}
);
width = 324;
},
{
associatedMasterId = "EF321139-F770-433D-B2B6-C3EFA1B16465";
layerId = "32352993-7E75-4866-9FAC-58BEEC5F290A";
name = Back;
paths = (
{
closed = 1;
nodes = (
"311.035 37.598 OFFCURVE",
"308.105 34.18 OFFCURVE",
"305.176 30.762 OFFCURVE",
"301.27 29.785 QCURVE SMOOTH",
"222.168 17.09 LINE SMOOTH",
"195.801 13.184 OFFCURVE",
"183.35 26.123 OFFCURVE",
"170.898 39.062 OFFCURVE",
"175.293 67.383 QCURVE",
"174.805 64.941 OFFCURVE",
"172.363 64.941 QCURVE SMOOTH",
"167.969 64.941 OFFCURVE",
"161.377 63.965 OFFCURVE",
"154.785 62.988 OFFCURVE",
"147.461 62.012 QCURVE",
"147.949 62.012 LINE",
"126.953 56.641 OFFCURVE",
"108.643 51.514 OFFCURVE",
"90.332 46.387 OFFCURVE",
"75.195 40.527 QCURVE",
"68.359 36.133 OFFCURVE",
"60.791 30.029 OFFCURVE",
"53.223 23.926 OFFCURVE",
"43.457 15.625 QCURVE",
"44.922 18.066 LINE",
"34.668 3.418 OFFCURVE",
"24.414 -0.244 OFFCURVE",
"14.16 -3.906 OFFCURVE",
"2.93 4.883 QCURVE SMOOTH",
"-5.371 11.23 OFFCURVE",
"-8.301 20.02 OFFCURVE",
"-11.23 28.809 OFFCURVE",
"-8.301 41.992 QCURVE",
"-9.277 47.363 OFFCURVE",
"-6.104 51.758 OFFCURVE",
"-2.93 56.152 OFFCURVE",
"-0.488 61.523 QCURVE SMOOTH",
"0 62.5 OFFCURVE",
"0.488 63.477 OFFCURVE",
"0.977 64.453 OFFCURVE",
"1.465 65.918 QCURVE SMOOTH",
"6.836 78.613 OFFCURVE",
"12.207 93.262 QCURVE SMOOTH",
"16.113 103.516 OFFCURVE",
"20.264 114.746 OFFCURVE",
"24.414 125.977 OFFCURVE",
"30.762 138.672 QCURVE SMOOTH",
"47.852 173.34 OFFCURVE",
"128.418 198.242 QCURVE SMOOTH",
"206.055 222.656 OFFCURVE",
"242.188 218.75 QCURVE SMOOTH",
"266.602 216.309 OFFCURVE",
"265.137 193.848 QCURVE",
"263.184 179.688 OFFCURVE",
"273.682 175.049 OFFCURVE",
"284.18 170.41 OFFCURVE",
"299.805 172.852 QCURVE SMOOTH",
"305.664 173.828 OFFCURVE",
"309.326 170.166 OFFCURVE",
"312.988 166.504 OFFCURVE",
"312.988 161.133 QCURVE SMOOTH",
"311.035 41.504 LINE SMOOTH"
);
}
);
width = 324;
}
);
},
{
glyphname = "behDotless-ar.medi.sad";
layers = (
{
anchors = (
{
name = bottom;
position = "{435, -149}";
},
{
name = bottom.mark;
position = "{448, -167}";
},
{
name = entry;
position = "{489, 48}";
},
{
name = exit;
position = "{0, 0}";
},
{
name = top;
position = "{532, 483}";
},
{
name = top.mark;
position = "{541, 457}";
}
);
layerId = "1467EB51-6BD4-4CFC-AEAA-3E4EB1A95CFA";
paths = (
{
closed = 1;
nodes = (
"108 333 OFFCURVE",
"111 332 OFFCURVE",
"111 329 CURVE SMOOTH",
"111 328 OFFCURVE",
"111 327 OFFCURVE",
"110 325 CURVE SMOOTH",
"83 273 OFFCURVE",
"70 232 OFFCURVE",
"70 203 CURVE SMOOTH",
"70 191 OFFCURVE",
"73 180 OFFCURVE",
"78 172 CURVE SMOOTH",
"99 137 OFFCURVE",
"137 129 OFFCURVE",
"194 129 CURVE SMOOTH",
"314 129 OFFCURVE",
"443 160 OFFCURVE",
"535 192 CURVE",
"555 203 OFFCURVE",
"569 220 OFFCURVE",
"578 241 CURVE",
"580 243 OFFCURVE",
"581 245 OFFCURVE",
"582 245 CURVE SMOOTH",
"583 245 OFFCURVE",
"583 243 OFFCURVE",
"583 239 CURVE SMOOTH",
"583 233 OFFCURVE",
"583 230 OFFCURVE",
"582 228 CURVE SMOOTH",
"575 205 OFFCURVE",
"564 175 OFFCURVE",
"549 140 CURVE SMOOTH",
"534 105 OFFCURVE",
"514 75 OFFCURVE",
"489 48 CURVE",
"489 48 LINE SMOOTH",
"486 48 OFFCURVE",
"485 50 OFFCURVE",
"485 54 CURVE SMOOTH",
"485 57 OFFCURVE",
"486 60 OFFCURVE",
"487 65 CURVE",
"438 44 OFFCURVE",
"353 28 OFFCURVE",
"287 17 CURVE SMOOTH",
"230 8 OFFCURVE",
"178 0 OFFCURVE",
"118 0 CURVE SMOOTH",
"58 0 OFFCURVE",
"14 15 OFFCURVE",
"5 56 CURVE SMOOTH",
"3 67 OFFCURVE",
"1 78 OFFCURVE",
"1 90 CURVE SMOOTH",
"1 110 OFFCURVE",
"5 132 OFFCURVE",
"12 154 CURVE SMOOTH",
"23 190 OFFCURVE",
"37 224 OFFCURVE",
"57 258 CURVE SMOOTH",
"77 292 OFFCURVE",
"92 315 OFFCURVE",
"102 330 CURVE SMOOTH",
"103 332 OFFCURVE",
"104 333 OFFCURVE",
"106 333 CURVE SMOOTH"
);
}
);
width = 488;
},
{
anchors = (
{
name = bottom;
position = "{435, -149}";
},
{
name = bottom.mark;
position = "{448, -167}";
},
{
name = entry;
position = "{477, 46}";
},
{
name = exit;
position = "{0, 0}";
},
{
name = top;
position = "{532, 483}";
},
{
name = top.mark;
position = "{541, 457}";
}
);
layerId = "EF321139-F770-433D-B2B6-C3EFA1B16465";
paths = (
{
closed = 1;
nodes = (
"118 345 OFFCURVE",
"124 340 OFFCURVE",
"124 330 CURVE SMOOTH",
"124 327 OFFCURVE",
"124 326 OFFCURVE",
"123 324 CURVE SMOOTH",
"97 273 OFFCURVE",
"84 234 OFFCURVE",
"84 208 CURVE SMOOTH",
"84 198 OFFCURVE",
"86 191 OFFCURVE",
"90 185 CURVE SMOOTH",
"105 160 OFFCURVE",
"136 148 OFFCURVE",
"180 148 CURVE SMOOTH",
"186 148 OFFCURVE",
"186 148 OFFCURVE",
"193 148 CURVE SMOOTH",
"245 148 OFFCURVE",
"296 156 OFFCURVE",
"344 164 CURVE",
"403 176 OFFCURVE",
"464 190 OFFCURVE",
"517 208 CURVE",
"533 218 OFFCURVE",
"545 232 OFFCURVE",
"553 250 CURVE",
"556 255 OFFCURVE",
"560 260 OFFCURVE",
"567 260 CURVE SMOOTH",
"576 260 OFFCURVE",
"580 254 OFFCURVE",
"580 243 CURVE SMOOTH",
"580 221 OFFCURVE",
"572 208 OFFCURVE",
"565 189 CURVE SMOOTH",
"545 137 OFFCURVE",
"522 87 OFFCURVE",
"486 50 CURVE SMOOTH",
"485 49 OFFCURVE",
"479 46 OFFCURVE",
"477 46 CURVE SMOOTH",
"469 46 OFFCURVE",
"464 50 OFFCURVE",
"462 57 CURVE",
"376 27 OFFCURVE",
"273 11 OFFCURVE",
"168 2 CURVE SMOOTH",
"151 1 OFFCURVE",
"136 0 OFFCURVE",
"119 0 CURVE SMOOTH",
"37 0 OFFCURVE",
"-5 24 OFFCURVE",
"-5 99 CURVE SMOOTH",
"-5 147 OFFCURVE",
"9 182 OFFCURVE",
"24 217 CURVE SMOOTH",
"31 235 OFFCURVE",
"41 251 OFFCURVE",
"50 267 CURVE SMOOTH",
"65 293 OFFCURVE",
"81 318 OFFCURVE",
"97 341 CURVE SMOOTH",
"99 344 OFFCURVE",
"102 345 OFFCURVE",
"108 345 CURVE SMOOTH"
);
}
);
width = 488;
},
{
associatedMasterId = "1467EB51-6BD4-4CFC-AEAA-3E4EB1A95CFA";
layerId = "1FD10A37-0816-4168-BCEB-1CAD50666263";
name = Back;
paths = (
{
closed = 1;
nodes = (
"564.453 208.984 OFFCURVE",
"577.637 241.211 QCURVE",
"580.078 244.629 OFFCURVE",
"581.543 244.629 QCURVE SMOOTH",
"583.008 244.629 OFFCURVE",
"583.008 239.258 QCURVE SMOOTH",
"583.008 229.98 OFFCURVE",
"582.031 227.539 QCURVE SMOOTH",
"570.801 192.383 OFFCURVE",
"548.828 140.137 OFFCURVE",
"526.855 87.891 OFFCURVE",
"489.258 47.852 QCURVE",
"488.77 47.852 LINE SMOOTH",
"484.863 47.852 OFFCURVE",
"484.863 53.711 QCURVE SMOOTH",
"484.863 58.105 OFFCURVE",
"486.816 65.43 QCURVE",
"458.008 53.223 OFFCURVE",
"403.076 40.039 OFFCURVE",
"348.145 26.855 OFFCURVE",
"286.865 16.846 OFFCURVE",
"225.586 6.836 OFFCURVE",
"168.457 2.441 QCURVE SMOOTH",
"140.137 0.488 OFFCURVE",
"117.676 0.488 QCURVE SMOOTH",
"95.215 0.488 OFFCURVE",
"78.613 2.441 QCURVE SMOOTH",
"14.648 11.719 OFFCURVE",
"4.883 56.152 QCURVE SMOOTH",
"1.465 72.266 OFFCURVE",
"1.465 90.332 QCURVE SMOOTH",
"1.465 120.117 OFFCURVE",
"11.719 153.809 QCURVE SMOOTH",
"27.832 207.52 OFFCURVE",
"57.129 257.812 OFFCURVE",
"86.426 308.105 OFFCURVE",
"102.051 330.078 QCURVE SMOOTH",
"104.004 332.52 OFFCURVE",
"106.445 332.52 QCURVE SMOOTH",
"107.422 332.52 OFFCURVE",
"108.887 332.031 QCURVE SMOOTH",
"110.84 331.543 OFFCURVE",
"110.84 329.102 QCURVE SMOOTH",
"110.84 327.637 OFFCURVE",
"109.863 325.195 QCURVE SMOOTH",
"69.824 246.582 OFFCURVE",
"69.824 203.125 QCURVE SMOOTH",
"69.824 184.57 OFFCURVE",
"77.637 172.363 QCURVE SMOOTH",
"102.051 131.836 OFFCURVE",
"166.504 129.883 QCURVE SMOOTH",
"180.176 129.395 OFFCURVE",
"194.336 129.395 QCURVE SMOOTH",
"269.531 129.395 OFFCURVE",
"353.027 145.02 QCURVE SMOOTH",
"451.66 163.574 OFFCURVE",
"535.156 192.383 QCURVE"
);
}
);
width = 488;
},
{
associatedMasterId = "EF321139-F770-433D-B2B6-C3EFA1B16465";
layerId = "FFEBF932-CBAB-41E5-A93D-1AEEEF8BE25C";
name = Back;
paths = (
{
closed = 1;
nodes = (
"364.746 167.969 OFFCURVE",
"387.695 173.096 OFFCURVE",
"410.645 178.223 OFFCURVE",
"433.594 184.082 OFFCURVE",
"456.543 189.941 OFFCURVE",
"478.027 196.289 OFFCURVE",
"499.512 202.637 OFFCURVE",
"517.09 208.496 QCURVE",
"541.016 223.145 OFFCURVE",
"552.734 250 QCURVE",
"556.152 255.371 OFFCURVE",
"559.814 257.568 OFFCURVE",
"563.477 259.766 OFFCURVE",
"566.895 259.766 QCURVE SMOOTH",
"580.078 259.766 OFFCURVE",
"580.078 243.164 QCURVE SMOOTH",
"580.078 236.816 OFFCURVE",
"579.59 233.154 OFFCURVE",
"579.102 229.492 OFFCURVE",
"578.613 228.027 QCURVE",
"578.613 228.516 LINE",
"573.242 210.449 OFFCURVE",
"564.941 188.965 OFFCURVE",
"556.641 167.48 OFFCURVE",
"545.898 142.578 QCURVE SMOOTH",
"534.668 116.211 OFFCURVE",
"520.02 93.262 OFFCURVE",
"505.371 70.312 OFFCURVE",
"485.84 49.805 QCURVE SMOOTH",
"484.863 48.828 OFFCURVE",
"481.689 47.607 OFFCURVE",
"478.516 46.387 OFFCURVE",
"477.051 46.387 QCURVE SMOOTH",
"464.355 46.387 OFFCURVE",
"461.914 57.129 QCURVE",
"449.219 52.734 OFFCURVE",
"433.105 48.34 OFFCURVE",
"416.992 43.945 OFFCURVE",
"396.973 39.062 QCURVE SMOOTH",
"370.605 32.715 OFFCURVE",
"342.041 26.855 OFFCURVE",
"313.477 20.996 OFFCURVE",
"283.691 16.113 QCURVE SMOOTH",
"254.395 11.23 OFFCURVE",
"225.342 8.057 OFFCURVE",
"196.289 4.883 OFFCURVE",
"168.457 2.441 QCURVE SMOOTH",
"154.785 1.465 OFFCURVE",
"142.334 0.977 OFFCURVE",
"129.883 0.488 OFFCURVE",
"118.652 0.488 QCURVE SMOOTH",
"106.445 0.488 OFFCURVE",
"96.924 0.977 OFFCURVE",
"87.402 1.465 OFFCURVE",
"79.102 2.441 QCURVE SMOOTH",
"9.766 11.719 OFFCURVE",
"-1.465 63.477 QCURVE",
"-1.465 62.988 LINE",
"-3.906 72.266 OFFCURVE",
"-4.639 81.055 OFFCURVE",
"-5.371 89.844 OFFCURVE",
"-5.371 99.121 QCURVE SMOOTH",
"-5.371 105.957 OFFCURVE",
"-4.639 114.258 OFFCURVE",
"-3.906 122.559 OFFCURVE",
"-2.441 131.104 OFFCURVE",
"-0.977 139.648 OFFCURVE",
"0.977 147.949 OFFCURVE",
"2.93 156.25 OFFCURVE",
"4.883 163.574 QCURVE SMOOTH",
"13.184 189.941 OFFCURVE",
"24.414 216.797 OFFCURVE",
"35.645 243.652 OFFCURVE",
"49.805 267.09 QCURVE",
"62.5 289.062 OFFCURVE",
"74.463 307.617 OFFCURVE",
"86.426 326.172 OFFCURVE",
"96.68 340.82 QCURVE SMOOTH",
"99.609 344.727 OFFCURVE",
"107.91 344.727 QCURVE SMOOTH",
"108.887 344.727 OFFCURVE",
"110.596 344.482 OFFCURVE",
"112.305 344.238 OFFCURVE",
"115.234 343.262 QCURVE SMOOTH",
"113.77 343.75 LINE SMOOTH",
"119.629 342.285 OFFCURVE",
"121.826 338.623 OFFCURVE",
"124.023 334.961 OFFCURVE",
"124.023 329.59 QCURVE SMOOTH",
"124.023 327.148 OFFCURVE",
"123.779 325.928 OFFCURVE",
"123.535 324.707 OFFCURVE",
"123.047 323.73 QCURVE SMOOTH",
"83.984 247.07 OFFCURVE",
"83.984 208.008 QCURVE SMOOTH",
"83.984 193.359 OFFCURVE",
"89.844 184.57 QCURVE SMOOTH",
"109.863 151.367 OFFCURVE",
"166.504 148.926 QCURVE SMOOTH",
"173.34 148.438 OFFCURVE",
"179.688 148.438 OFFCURVE",
"186.035 148.438 OFFCURVE",
"192.871 148.438 QCURVE SMOOTH",
"228.027 148.438 OFFCURVE",
"266.113 152.588 OFFCURVE",
"304.199 156.738 OFFCURVE",
"343.75 163.574 QCURVE"
);
}
);
width = 488;
}
);
},
{
glyphname = "behDotless-ar.medi.yeh";
layers = (
{
anchors = (
{
name = bottom;
position = "{321, -110}";
},
{
name = bottom.mark;
position = "{294, -123}";
},
{
name = entry;
position = "{286, 92}";
},
{
name = exit;
position = "{10, 0}";
},
{
name = top;
position = "{242, 470}";
},
{
name = top.mark;
position = "{242, 483}";
}
);
layerId = "1467EB51-6BD4-4CFC-AEAA-3E4EB1A95CFA";
paths = (
{
closed = 1;
nodes = (
"282 264 LINE",
"297 256 OFFCURVE",
"304 237 OFFCURVE",
"314 225 CURVE",
"318 224 OFFCURVE",
"319 224 OFFCURVE",
"319 224 CURVE",
"353 229 LINE",
"291 94 LINE",
"283 92 OFFCURVE",
"276 91 OFFCURVE",
"271 90 CURVE",
"254 89 OFFCURVE",
"243 96 OFFCURVE",
"239 112 CURVE",
"232 127 OFFCURVE",
"221 137 OFFCURVE",
"208 141 CURVE",
"208 141 LINE",
"208 142 LINE",
"198 146 OFFCURVE",
"188 145 OFFCURVE",
"177 141 CURVE SMOOTH",
"110 115 OFFCURVE",
"60 55 OFFCURVE",
"21 0 CURVE",
"0 7 LINE",
"28 91 OFFCURVE",
"73 158 OFFCURVE",
"131 213 CURVE SMOOTH",
"164 245 OFFCURVE",
"204 263 OFFCURVE",
"249 268 CURVE SMOOTH",
"263 270 OFFCURVE",
"274 269 OFFCURVE",
"282 265 CURVE",
"281 264 LINE"
);
}
);
width = 258;
},
{
anchors = (
{
name = bottom;
position = "{321, -110}";
},
{
name = bottom.mark;
position = "{294, -123}";
},
{
name = entry;
position = "{286, 92}";
},
{
name = exit;
position = "{10, 0}";
},
{
name = top;
position = "{242, 470}";
},
{
name = top.mark;
position = "{242, 483}";
}
);
layerId = "EF321139-F770-433D-B2B6-C3EFA1B16465";
paths = (
{
closed = 1;
nodes = (
"185 139 OFFCURVE",
"182 139 OFFCURVE",
"179 137 CURVE SMOOTH",
"151 127 OFFCURVE",
"124 108 OFFCURVE",
"99 83 CURVE SMOOTH",
"74 58 OFFCURVE",
"53 33 OFFCURVE",
"33 5 CURVE SMOOTH",
"30 2 OFFCURVE",
"26 -1 OFFCURVE",
"20 0 CURVE SMOOTH",
"0 7 LINE SMOOTH",
"-5 9 OFFCURVE",
"-10 15 OFFCURVE",
"-8 22 CURVE SMOOTH",
"7 68 OFFCURVE",
"27 109 OFFCURVE",
"54 146 CURVE SMOOTH",
"74 173 OFFCURVE",
"98 203 OFFCURVE",
"122 226 CURVE SMOOTH",
"156 259 OFFCURVE",
"196 278 OFFCURVE",
"242 282 CURVE SMOOTH",
"258 284 OFFCURVE",
"271 282 OFFCURVE",
"281 277 CURVE",
"296 268 OFFCURVE",
"304 254 OFFCURVE",
"313 240 CURVE",
"342 245 LINE SMOOTH",
"350 246 OFFCURVE",
"358 238 OFFCURVE",
"355 229 CURVE",
"377 222 OFFCURVE",
"381 218 OFFCURVE",
"350 217 CURVE",
"295 98 LINE SMOOTH",
"294 96 OFFCURVE",
"290 92 OFFCURVE",
"287 91 CURVE SMOOTH",
"266 87 LINE",
"244 87 OFFCURVE",
"230 96 OFFCURVE",
"223 117 CURVE",
"217 127 OFFCURVE",
"205 139 OFFCURVE",
"190 139 CURVE SMOOTH"
);
}
);
width = 258;
},
{
associatedMasterId = "1467EB51-6BD4-4CFC-AEAA-3E4EB1A95CFA";
layerId = "34145D71-C743-4234-AFE3-AAB780D7449C";
name = Back;
paths = (
{
closed = 1;
nodes = (
"193.359 146.973 OFFCURVE",
"177.246 140.625 QCURVE SMOOTH",
"128.906 122.07 OFFCURVE",
"90.576 83.008 OFFCURVE",
"52.246 43.945 OFFCURVE",
"21.484 0 QCURVE",
"21.484 0 LINE",
"0 7.324 LINE",
"0 7.324 LINE",
"8.301 32.227 OFFCURVE",
"18.555 56.641 OFFCURVE",
"28.809 81.055 OFFCURVE",
"44.434 105.957 QCURVE SMOOTH",
"81.055 165.527 OFFCURVE",
"131.104 213.135 OFFCURVE",
"181.152 260.742 OFFCURVE",
"248.535 267.578 QCURVE SMOOTH",
"269.531 270.02 OFFCURVE",
"281.738 264.648 QCURVE",
"281.25 263.672 LINE",
"281.25 263.672 OFFCURVE",
"281.494 263.672 OFFCURVE",
"281.738 263.672 OFFCURVE",
"281.738 263.672 QCURVE",
"292.969 257.324 OFFCURVE",
"299.805 245.605 OFFCURVE",
"306.641 233.887 OFFCURVE",
"313.965 225.098 QCURVE",
"319.824 223.633 OFFCURVE",
"319.336 223.633 QCURVE SMOOTH",
"352.539 228.516 LINE",
"290.527 94.238 LINE",
"277.832 91.309 OFFCURVE",
"270.996 89.844 QCURVE",
"245.117 88.867 OFFCURVE",
"238.77 112.305 QCURVE",
"228.027 134.277 OFFCURVE",
"208.008 140.625 QCURVE",
"207.52 141.113 LINE",
"208.008 141.602 LINE"
);
}
);
width = 258;
},
{
associatedMasterId = "EF321139-F770-433D-B2B6-C3EFA1B16465";
layerId = "CA259560-C970-49BD-BDA5-EB709C11FC05";
name = Back;
paths = (
{
closed = 1;
nodes = (
"197.266 137.695 OFFCURVE",
"196.777 138.184 QCURVE SMOOTH",
"194.824 138.672 OFFCURVE",
"193.359 138.916 OFFCURVE",
"191.895 139.16 OFFCURVE",
"190.43 139.16 QCURVE SMOOTH",
"183.594 139.16 OFFCURVE",
"178.711 136.719 QCURVE",
"136.719 121.094 OFFCURVE",
"99.121 83.496 QCURVE SMOOTH",
"79.59 63.965 OFFCURVE",
"63.477 44.678 OFFCURVE",
"47.363 25.391 OFFCURVE",
"33.203 5.371 QCURVE SMOOTH",
"30.762 2.441 OFFCURVE",
"27.344 0.977 OFFCURVE",
"23.926 -0.488 OFFCURVE",
"20.02 0.488 QCURVE SMOOTH",
"-0.488 7.324 LINE SMOOTH",
"-5.371 9.277 OFFCURVE",
"-7.568 13.672 OFFCURVE",
"-9.766 18.066 OFFCURVE",
"-8.301 22.461 QCURVE SMOOTH",
"-0.488 45.898 OFFCURVE",
"10.01 70.557 OFFCURVE",
"20.508 95.215 OFFCURVE",
"36.133 120.117 QCURVE SMOOTH",
"43.945 132.324 OFFCURVE",
"54.443 146.484 OFFCURVE",
"64.941 160.645 OFFCURVE",
"76.172 175.049 OFFCURVE",
"87.402 189.453 OFFCURVE",
"99.121 202.637 OFFCURVE",
"110.84 215.82 OFFCURVE",
"121.582 226.074 QCURVE SMOOTH",
"173.34 275.879 OFFCURVE",
"242.188 282.227 QCURVE",
"241.699 282.227 LINE",
"266.113 284.668 OFFCURVE",
"281.25 276.855 QCURVE",
"290.527 271.484 OFFCURVE",
"296.631 263.916 OFFCURVE",
"302.734 256.348 OFFCURVE",
"308.105 248.047 QCURVE SMOOTH",
"312.988 240.234 LINE",
"342.285 244.629 LINE SMOOTH",
"349.121 245.605 OFFCURVE",
"353.271 240.479 OFFCURVE",
"357.422 235.352 OFFCURVE",
"354.98 229.004 QCURVE",
"371.582 223.633 OFFCURVE",
"372.07 220.459 OFFCURVE",
"372.559 217.285 OFFCURVE",
"349.609 216.797 QCURVE",
"294.922 98.145 LINE SMOOTH",
"293.945 96.191 OFFCURVE",
"291.26 93.994 OFFCURVE",
"288.574 91.797 OFFCURVE",
"286.621 91.309 QCURVE SMOOTH",
"266.113 86.914 LINE",
"232.422 86.426 OFFCURVE",
"222.656 117.188 QCURVE",
"218.262 124.023 OFFCURVE",
"212.646 129.15 OFFCURVE",
"207.031 134.277 OFFCURVE",
"199.707 136.719 QCURVE SMOOTH"
);
}
);
width = 258;
}
);
},
{
glyphname = "behDotless-ar.init";
layers = (
{
anchors = (
{
name = bottom;
position = "{189, -136}";
},
{
name = bottom.mark;
position = "{149, -171}";
},
{
name = exit;
position = "{0, 0}";
},
{
name = top;
position = "{218, 496}";
},
{
name = top.mark;
position = "{193, 527}";
}
);
layerId = "1467EB51-6BD4-4CFC-AEAA-3E4EB1A95CFA";
paths = (
{
closed = 1;
nodes = (
"282 310 OFFCURVE",
"286 209 OFFCURVE",
"244 140 CURVE SMOOTH",
"210 83 OFFCURVE",
"169 37 OFFCURVE",
"103 18 CURVE SMOOTH",
"75 10 OFFCURVE",
"40 4 OFFCURVE",
"0 0 CURVE",
"22 125 LINE",
"23 125 LINE",
"75 131 OFFCURVE",
"113 138 OFFCURVE",
"137 144 CURVE SMOOTH",
"161 150 OFFCURVE",
"182 159 OFFCURVE",
"201 172 CURVE",
"201 186 OFFCURVE",
"192 222 OFFCURVE",
"175 280 CURVE",
"252 393 LINE"
);
}
);
width = 294;
},
{
anchors = (
{
name = bottom;
position = "{189, -136}";
},
{
name = bottom.mark;
position = "{149, -171}";
},
{
name = exit;
position = "{0, 0}";
},
{
name = top;
position = "{218, 496}";
},
{
name = top.mark;
position = "{193, 527}";
}
);
layerId = "EF321139-F770-433D-B2B6-C3EFA1B16465";
paths = (
{
closed = 1;
nodes = (
"139 22 OFFCURVE",
"78 7 OFFCURVE",
"3 0 CURVE SMOOTH",
"-5 -1 OFFCURVE",
"-10 6 OFFCURVE",
"-9 14 CURVE SMOOTH",
"13 134 LINE SMOOTH",
"14 139 OFFCURVE",
"18 144 OFFCURVE",
"23 145 CURVE SMOOTH",
"106 155 OFFCURVE",
"138 155 OFFCURVE",
"185 184 CURVE",
"180 215 OFFCURVE",
"170 243 OFFCURVE",
"160 279 CURVE SMOOTH",
"159 282 OFFCURVE",
"161 288 OFFCURVE",
"162 289 CURVE SMOOTH",
"236 398 LINE SMOOTH",
"242 407 OFFCURVE",
"254 406 OFFCURVE",
"257 396 CURVE SMOOTH",
"273 351 OFFCURVE",
"281 305 OFFCURVE",
"280 260 CURVE SMOOTH",
"279 214 OFFCURVE",
"269 174 OFFCURVE",
"248 141 CURVE SMOOTH",
"229 110 OFFCURVE",
"208 82 OFFCURVE",
"182 60 CURVE SMOOTH"
);
}
);
width = 294;
},
{
associatedMasterId = "1467EB51-6BD4-4CFC-AEAA-3E4EB1A95CFA";
layerId = "FF4770E9-5C2F-4FF2-9BA4-B137CE62969F";
name = Back;
paths = (
{
closed = 1;
nodes = (
"214.355 90.82 OFFCURVE",
"177.734 59.082 QCURVE SMOOTH",
"145.508 30.762 OFFCURVE",
"102.783 18.311 OFFCURVE",
"60.059 5.859 OFFCURVE",
"0 0 QCURVE",
"21.973 125 LINE",
"22.949 125 LINE",
"101.562 134.277 OFFCURVE",
"137.451 143.555 OFFCURVE",
"173.34 152.832 OFFCURVE",
"201.172 171.875 QCURVE",
"200.684 192.383 OFFCURVE",
"175.293 279.785 QCURVE",
"251.953 393.066 LINE",
"276.367 325.684 OFFCURVE",
"275.146 257.568 OFFCURVE",
"273.926 189.453 OFFCURVE",
"244.141 140.137 OFFCURVE"
);
}
);
width = 294;
},
{
associatedMasterId = "EF321139-F770-433D-B2B6-C3EFA1B16465";
layerId = "43E97B70-EC7C-4463-B449-ACAA905898FA";
name = Back;
paths = (
{
closed = 1;
nodes = (
"165.039 45.41 OFFCURVE",
"146.484 35.4 OFFCURVE",
"127.93 25.391 OFFCURVE",
"105.957 18.555 OFFCURVE",
"83.984 11.719 OFFCURVE",
"58.594 7.324 OFFCURVE",
"33.203 2.93 OFFCURVE",
"3.418 0 QCURVE SMOOTH",
"-2.93 -0.977 OFFCURVE",
"-6.592 3.418 OFFCURVE",
"-10.254 7.812 OFFCURVE",
"-9.277 13.672 QCURVE SMOOTH",
"12.695 134.277 LINE SMOOTH",
"13.672 138.184 OFFCURVE",
"16.602 141.113 OFFCURVE",
"19.531 144.043 OFFCURVE",
"22.949 144.531 QCURVE SMOOTH",
"99.609 153.32 OFFCURVE",
"131.836 161.621 QCURVE SMOOTH",
"145.508 165.527 OFFCURVE",
"159.424 171.387 OFFCURVE",
"173.34 177.246 OFFCURVE",
"184.57 184.082 QCURVE",
"182.617 195.801 OFFCURVE",
"176.514 219.238 OFFCURVE",
"170.41 242.676 OFFCURVE",
"160.156 278.809 QCURVE SMOOTH",
"159.668 280.762 OFFCURVE",
"160.156 284.18 OFFCURVE",
"160.645 287.598 OFFCURVE",
"161.621 288.574 QCURVE SMOOTH",
"235.84 398.438 LINE SMOOTH",
"240.234 404.785 OFFCURVE",
"247.559 403.809 OFFCURVE",
"254.883 402.832 OFFCURVE",
"257.324 395.508 QCURVE SMOOTH",
"281.25 327.637 OFFCURVE",
"279.785 259.766 QCURVE",
"278.809 190.918 OFFCURVE",
"248.047 141.113 QCURVE SMOOTH",
"232.91 116.211 OFFCURVE",
"216.553 95.947 OFFCURVE",
"200.195 75.684 OFFCURVE",
"181.641 60.059 QCURVE"
);
}
);
width = 294;
}
);
},
{
glyphname = "behDotless-ar.init.ain";
layers = (
{
anchors = (
{
name = bottom;
position = "{303, -163}";
},
{
name = bottom.mark;
position = "{334, -171}";
},
{
name = exit;
position = "{0, 0}";
},
{
name = top;
position = "{360, 519}";
},
{
name = top.mark;
position = "{299, 527}";
}
);
layerId = "1467EB51-6BD4-4CFC-AEAA-3E4EB1A95CFA";
paths = (
{
closed = 1;
nodes = (
"446 379 LINE SMOOTH",
"449 383 OFFCURVE",
"452 370 OFFCURVE",
"459 340 CURVE SMOOTH",
"466 310 OFFCURVE",
"469 288 OFFCURVE",
"467 272 CURVE SMOOTH",
"455 172 OFFCURVE",
"401 86 OFFCURVE",
"323 46 CURVE",
"286 26 OFFCURVE",
"242 12 OFFCURVE",
"191 6 CURVE SMOOTH",
"140 0 OFFCURVE",
"95 -2 OFFCURVE",
"56 2 CURVE SMOOTH",
"28 5 OFFCURVE",
"1 20 OFFCURVE",
"0 49 CURVE",
"13 99 OFFCURVE",
"26 141 OFFCURVE",
"39 176 CURVE",
"52 129 OFFCURVE",
"127 124 OFFCURVE",
"191 129 CURVE SMOOTH",
"257 134 OFFCURVE",
"342 154 OFFCURVE",
"389 174 CURVE",
"390 195 OFFCURVE",
"383 226 OFFCURVE",
"369 266 CURVE"
);
}
);
width = 492;
},
{
anchors = (
{
name = bottom;
position = "{303, -163}";
},
{
name = bottom.mark;
position = "{334, -171}";
},
{
name = exit;
position = "{0, 0}";
},
{
name = top;
position = "{360, 519}";
},
{
name = top.mark;
position = "{299, 527}";
}
);
layerId = "EF321139-F770-433D-B2B6-C3EFA1B16465";
paths = (
{
closed = 1;
nodes = (
"441 409 OFFCURVE",
"454 364 OFFCURVE",
"459 343 CURVE SMOOTH",
"466 312 OFFCURVE",
"469 289 OFFCURVE",
"467 273 CURVE SMOOTH",
"456 175 OFFCURVE",
"400 85 OFFCURVE",
"322 46 CURVE SMOOTH",
"265 17 OFFCURVE",
"190 0 OFFCURVE",
"105 0 CURVE SMOOTH",
"49 0 OFFCURVE",
"-6 6 OFFCURVE",
"-8 60 CURVE",
"4 105 OFFCURVE",
"16 148 OFFCURVE",
"31 187 CURVE SMOOTH",
"33 191 OFFCURVE",
"36 194 OFFCURVE",
"42 194 CURVE SMOOTH",
"48 194 OFFCURVE",
"51 191 OFFCURVE",
"53 186 CURVE SMOOTH",
"62 153 OFFCURVE",
"114 147 OFFCURVE",
"160 147 CURVE SMOOTH",
"167 147 OFFCURVE",
"167 147 OFFCURVE",
"174 147 CURVE SMOOTH",
"216 147 OFFCURVE",
"257 155 OFFCURVE",
"292 165 CURVE",
"323 173 OFFCURVE",
"348 180 OFFCURVE",
"368 188 CURVE",
"366 215 OFFCURVE",
"359 239 OFFCURVE",
"349 265 CURVE SMOOTH",
"348 268 OFFCURVE",
"350 273 OFFCURVE",
"351 275 CURVE SMOOTH",
"425 385 LINE SMOOTH"
);
}
);
width = 492;
},
{
associatedMasterId = "1467EB51-6BD4-4CFC-AEAA-3E4EB1A95CFA";
layerId = "8A7C40D7-89D7-4D4D-BDA4-063E0C9C6FBA";
name = Back;
paths = (
{
closed = 1;
nodes = (
"445.801 379.395 LINE SMOOTH",
"449.707 384.766 OFFCURVE",
"459.473 340.088 OFFCURVE",
"469.238 295.41 OFFCURVE",
"466.797 271.973 QCURVE SMOOTH",
"455.566 175.293 OFFCURVE",
"397.949 106.445 QCURVE SMOOTH",
"365.234 67.383 OFFCURVE",
"323.242 45.898 QCURVE",
"267.09 15.625 OFFCURVE",
"190.918 6.104 OFFCURVE",
"114.746 -3.418 OFFCURVE",
"56.152 2.441 QCURVE SMOOTH",
"35.156 4.395 OFFCURVE",
"18.066 15.625 OFFCURVE",
"0.977 26.855 OFFCURVE",
"0 48.828 QCURVE",
"19.043 123.535 OFFCURVE",
"39.062 176.27 QCURVE",
"48.34 144.043 OFFCURVE",
"92.041 134.277 OFFCURVE",
"135.742 124.512 OFFCURVE",
"190.918 128.662 OFFCURVE",
"246.094 132.812 OFFCURVE",
"301.514 146.484 OFFCURVE",
"356.934 160.156 OFFCURVE",
"389.648 174.316 QCURVE",
"389.16 174.316 LINE",
"390.137 206.055 OFFCURVE",
"369.141 266.113 QCURVE"
);
}
);
width = 492;
},
{
associatedMasterId = "EF321139-F770-433D-B2B6-C3EFA1B16465";
layerId = "AAA99DF0-84D3-49D0-9311-82FCF89AB5D7";
name = Back;
paths = (
{
closed = 1;
nodes = (
"433.105 397.461 OFFCURVE",
"442.383 387.207 OFFCURVE",
"451.66 376.953 OFFCURVE",
"459.473 342.773 QCURVE",
"469.238 296.387 OFFCURVE",
"466.797 272.949 QCURVE SMOOTH",
"456.543 177.246 OFFCURVE",
"397.461 106.934 QCURVE SMOOTH",
"364.746 67.383 OFFCURVE",
"321.289 45.898 QCURVE",
"321.777 45.898 LINE",
"294.434 31.738 OFFCURVE",
"260.254 21.484 OFFCURVE",
"226.074 11.23 OFFCURVE",
"189.941 5.859 QCURVE SMOOTH",
"167.969 2.93 OFFCURVE",
"146.484 1.465 OFFCURVE",
"125 0 OFFCURVE",
"105.469 0 QCURVE SMOOTH",
"92.285 0 OFFCURVE",
"80.078 0.732 OFFCURVE",
"67.871 1.465 OFFCURVE",
"56.641 2.441 QCURVE SMOOTH",
"33.691 4.883 OFFCURVE",
"14.648 17.09 QCURVE SMOOTH",
"-6.836 30.762 OFFCURVE",
"-7.812 60.059 QCURVE",
"1.953 97.168 OFFCURVE",
"11.475 128.662 OFFCURVE",
"20.996 160.156 OFFCURVE",
"30.762 186.523 QCURVE SMOOTH",
"32.227 190.43 OFFCURVE",
"35.645 192.383 OFFCURVE",
"39.062 194.336 OFFCURVE",
"42.48 194.336 OFFCURVE",
"45.898 194.336 OFFCURVE",
"48.828 192.139 OFFCURVE",
"51.758 189.941 OFFCURVE",
"53.223 185.547 QCURVE SMOOTH",
"59.57 161.133 OFFCURVE",
"95.215 152.832 QCURVE SMOOTH",
"109.375 149.902 OFFCURVE",
"125.732 148.438 OFFCURVE",
"142.09 146.973 OFFCURVE",
"159.668 146.973 QCURVE SMOOTH",
"166.504 146.973 OFFCURVE",
"173.584 146.973 OFFCURVE",
"180.664 146.973 OFFCURVE",
"187.988 147.461 QCURVE SMOOTH",
"214.355 149.902 OFFCURVE",
"240.723 153.809 OFFCURVE",
"267.09 157.715 OFFCURVE",
"291.992 164.551 QCURVE",
"338.379 176.27 OFFCURVE",
"368.164 188.477 QCURVE",
"367.188 202.148 OFFCURVE",
"362.793 221.191 OFFCURVE",
"358.398 240.234 OFFCURVE",
"349.121 265.137 QCURVE SMOOTH",
"348.145 267.09 OFFCURVE",
"348.877 270.264 OFFCURVE",
"349.609 273.438 OFFCURVE",
"350.586 275.391 QCURVE SMOOTH",
"424.805 385.254 LINE SMOOTH"
);
}
);
width = 492;
}
);
},
{
glyphname = "behDotless-ar.init.ascend";
layers = (
{
anchors = (
{
name = bottom;
position = "{163, -136}";
},
{
name = bottom.mark;
position = "{145, -145}";
},
{
name = exit;
position = "{0, 0}";
},
{
name = top;
position = "{211, 422}";
},
{
name = top.mark;
position = "{198, 422}";
}
);
layerId = "1467EB51-6BD4-4CFC-AEAA-3E4EB1A95CFA";
paths = (
{
closed = 1;
nodes = (
"301 215 OFFCURVE",
"291 179 OFFCURVE",
"274 136 CURVE SMOOTH",
"257 93 OFFCURVE",
"233 61 OFFCURVE",
"201 43 CURVE SMOOTH",
"161 20 OFFCURVE",
"94 6 OFFCURVE",
"0 0 CURVE",
"18 134 LINE",
"120 139 OFFCURVE",
"187 148 OFFCURVE",
"221 160 CURVE SMOOTH",
"255 172 OFFCURVE",
"281 201 OFFCURVE",
"298 247 CURVE",
"301 245 LINE"
);
}
);
width = 313;
},
{
anchors = (
{
name = bottom;
position = "{163, -136}";
},
{
name = bottom.mark;
position = "{145, -145}";
},
{
name = exit;
position = "{0, 0}";
},
{
name = top;
position = "{211, 422}";
},
{
name = top.mark;
position = "{198, 422}";
}
);
layerId = "EF321139-F770-433D-B2B6-C3EFA1B16465";
paths = (
{
closed = 1;
nodes = (
"284 267 OFFCURVE",
"305 260 OFFCURVE",
"305 249 CURVE SMOOTH",
"304 208 OFFCURVE",
"292 174 OFFCURVE",
"278 139 CURVE SMOOTH",
"260 94 OFFCURVE",
"235 62 OFFCURVE",
"202 43 CURVE",
"203 43 LINE",
"164 21 OFFCURVE",
"97 7 OFFCURVE",
"3 0 CURVE SMOOTH",
"-4 -1 OFFCURVE",
"-10 6 OFFCURVE",
"-9 13 CURVE",
"5 143 LINE SMOOTH",
"6 148 OFFCURVE",
"12 152 OFFCURVE",
"17 153 CURVE SMOOTH",
"66 156 OFFCURVE",
"106 159 OFFCURVE",
"139 163 CURVE SMOOTH",
"172 167 OFFCURVE",
"196 171 OFFCURVE",
"212 177 CURVE",
"244 190 OFFCURVE",
"266 219 OFFCURVE",
"279 254 CURVE SMOOTH"
);
}
);
width = 313;
},
{
associatedMasterId = "1467EB51-6BD4-4CFC-AEAA-3E4EB1A95CFA";
layerId = "5DB3620D-6914-4A26-A106-95643619917E";
name = Back;
paths = (
{
closed = 1;
nodes = (
"300.293 200.684 OFFCURVE",
"274.17 135.742 OFFCURVE",
"248.047 70.801 OFFCURVE",
"200.684 43.457 QCURVE SMOOTH",
"141.113 9.277 OFFCURVE",
"0 0 QCURVE",
"0 0 LINE",
"18.343 134.44 LINE",
"170.938 142.274 OFFCURVE",
"221.436 159.912 QCURVE SMOOTH",
"272.461 177.734 OFFCURVE",
"297.852 246.582 QCURVE",
"300.781 245.117 LINE"
);
}
);
width = 313;
},
{
associatedMasterId = "EF321139-F770-433D-B2B6-C3EFA1B16465";
layerId = "5FD277FB-07E6-4D65-989C-62E4A3B9F024";
name = Back;
paths = (
{
closed = 1;
nodes = (
"300.781 257.812 OFFCURVE",
"302.979 254.639 OFFCURVE",
"305.176 251.465 OFFCURVE",
"305.176 248.535 QCURVE SMOOTH",
"304.688 225.586 OFFCURVE",
"297.852 198.486 OFFCURVE",
"291.016 171.387 OFFCURVE",
"277.832 138.672 QCURVE SMOOTH",
"251.465 71.777 OFFCURVE",
"202.148 43.457 QCURVE",
"202.637 43.457 LINE",
"144.043 9.766 OFFCURVE",
"3.418 0 QCURVE SMOOTH",
"-1.953 -0.488 OFFCURVE",
"-6.104 3.662 OFFCURVE",
"-10.254 7.812 OFFCURVE",
"-9.277 13.184 QCURVE SMOOTH",
"5.371 143.066 LINE SMOOTH",
"5.859 146.973 OFFCURVE",
"9.277 149.902 OFFCURVE",
"12.695 152.832 OFFCURVE",
"16.602 153.32 QCURVE SMOOTH",
"89.844 157.227 OFFCURVE",
"138.916 163.086 OFFCURVE",
"187.988 168.945 OFFCURVE",
"212.402 177.246 QCURVE",
"233.398 185.547 OFFCURVE",
"250.732 205.078 OFFCURVE",
"268.066 224.609 OFFCURVE",
"279.297 254.395 QCURVE SMOOTH",
"281.25 259.277 OFFCURVE",
"285.889 260.986 OFFCURVE",
"290.527 262.695 OFFCURVE",
"295.41 260.254 QCURVE",
"298.34 259.277 LINE"
);
}
);
width = 313;
}
);
},
{
glyphname = "behDotless-ar.init.dal";
layers = (
{
anchors = (
{
name = bottom;
position = "{171, -154}";
},
{
name = bottom.mark;
position = "{220, -145}";
},
{
name = exit;
position = "{0, 0}";
},
{
name = top;
position = "{213, 409}";
},
{
name = top.mark;
position = "{316, 409}";
}
);
layerId = "1467EB51-6BD4-4CFC-AEAA-3E4EB1A95CFA";
paths = (
{
closed = 1;
nodes = (
"352 90 OFFCURVE",
"164 -46 OFFCURVE",
"38 15 CURVE SMOOTH",
"-30 48 OFFCURVE",
"5 159 OFFCURVE",
"48 215 CURVE SMOOTH",
"50 218 OFFCURVE",
"51 216 OFFCURVE",
"51 215 CURVE SMOOTH",
"45 184 OFFCURVE",
"57 148 OFFCURVE",
"84 141 CURVE SMOOTH",
"177 117 OFFCURVE",
"321 170 OFFCURVE",
"352 255 CURVE SMOOTH",
"353 257 OFFCURVE",
"355 256 OFFCURVE",
"355 253 CURVE SMOOTH"
);
}
);
width = 373;
},
{
anchors = (
{
name = bottom;
position = "{171, -154}";
},
{
name = bottom.mark;
position = "{220, -145}";
},
{
name = exit;
position = "{0, 0}";
},
{
name = top;
position = "{213, 409}";
},
{
name = top.mark;
position = "{316, 409}";
}
);
layerId = "EF321139-F770-433D-B2B6-C3EFA1B16465";
paths = (
{
closed = 1;
nodes = (
"354 273 OFFCURVE",
"358 265 OFFCURVE",
"358 256 CURVE SMOOTH",
"358 256 LINE",
"357 214 OFFCURVE",
"346 174 OFFCURVE",
"324 139 CURVE",
"324 139 LINE",
"303 104 OFFCURVE",
"278 74 OFFCURVE",
"245 50 CURVE",
"208 24 OFFCURVE",
"164 0 OFFCURVE",
"104 0 CURVE SMOOTH",
"80 0 OFFCURVE",
"57 5 OFFCURVE",
"35 16 CURVE SMOOTH",
"5 31 OFFCURVE",
"-10 55 OFFCURVE",
"-10 89 CURVE SMOOTH",
"-10 100 OFFCURVE",
"-9 108 OFFCURVE",
"-6 117 CURVE",
"3 162 OFFCURVE",
"19 199 OFFCURVE",
"40 227 CURVE",
"40 226 LINE",
"42 230 OFFCURVE",
"47 233 OFFCURVE",
"52 233 CURVE SMOOTH",
"64 233 OFFCURVE",
"64 228 OFFCURVE",
"64 217 CURVE",
"63 212 OFFCURVE",
"62 209 OFFCURVE",
"62 205 CURVE SMOOTH",
"62 185 OFFCURVE",
"71 162 OFFCURVE",
"87 160 CURVE",
"101 156 OFFCURVE",
"117 154 OFFCURVE",
"134 154 CURVE SMOOTH",
"165 154 OFFCURVE",
"197 161 OFFCURVE",
"232 175 CURVE SMOOTH",
"285 195 OFFCURVE",
"319 224 OFFCURVE",
"333 262 CURVE SMOOTH",
"335 267 OFFCURVE",
"340 273 OFFCURVE",
"346 273 CURVE SMOOTH"
);
}
);
width = 373;
},
{
associatedMasterId = "1467EB51-6BD4-4CFC-AEAA-3E4EB1A95CFA";
layerId = "2D77083B-B9E8-405F-A8ED-973CF3D29264";
name = Back;
paths = (
{
closed = 1;
nodes = (
"354.004 191.406 OFFCURVE",
"322.021 138.184 OFFCURVE",
"290.039 84.961 OFFCURVE",
"242.676 49.805 OFFCURVE",
"195.312 14.648 OFFCURVE",
"140.137 3.906 QCURVE SMOOTH",
"122.07 0 OFFCURVE",
"104.98 0 QCURVE SMOOTH",
"69.336 0 OFFCURVE",
"38.086 15.137 QCURVE SMOOTH",
"-1.465 34.668 OFFCURVE",
"-1.465 79.59 QCURVE SMOOTH",
"-1.465 91.797 OFFCURVE",
"1.953 106.445 QCURVE SMOOTH",
"15.625 172.363 OFFCURVE",
"47.852 214.844 QCURVE SMOOTH",
"49.316 217.285 OFFCURVE",
"50.293 217.285 QCURVE SMOOTH",
"50.781 217.285 OFFCURVE",
"50.781 214.844 QCURVE SMOOTH",
"49.316 207.031 OFFCURVE",
"49.316 199.707 QCURVE SMOOTH",
"49.316 184.082 OFFCURVE",
"55.664 168.945 QCURVE",
"64.453 145.996 OFFCURVE",
"84.473 141.602 QCURVE",
"108.887 135.254 OFFCURVE",
"135.254 135.254 QCURVE SMOOTH",
"184.57 135.254 OFFCURVE",
"241.211 157.227 QCURVE SMOOTH",
"328.613 190.43 OFFCURVE",
"352.051 254.395 QCURVE SMOOTH",
"353.516 258.301 OFFCURVE",
"354.492 258.301 QCURVE SMOOTH",
"355.469 258.301 OFFCURVE",
"355.469 252.93 QCURVE SMOOTH"
);
}
);
width = 373;
},
{
associatedMasterId = "EF321139-F770-433D-B2B6-C3EFA1B16465";
layerId = "E52B9AA8-4691-4C21-92D8-15BC3E14B5DD";
name = Back;
paths = (
{
closed = 1;
nodes = (
"356.934 192.383 OFFCURVE",
"323.73 139.16 QCURVE",
"324.219 139.16 LINE",
"293.457 86.426 OFFCURVE",
"244.629 50.293 QCURVE",
"219.727 32.715 OFFCURVE",
"194.092 20.996 OFFCURVE",
"168.457 9.277 OFFCURVE",
"140.625 3.906 QCURVE SMOOTH",
"131.836 1.953 OFFCURVE",
"123.047 0.977 OFFCURVE",
"114.258 0 OFFCURVE",
"104.492 0 QCURVE SMOOTH",
"68.359 0 OFFCURVE",
"34.668 16.113 QCURVE SMOOTH",
"-10.254 38.086 OFFCURVE",
"-10.254 88.867 QCURVE SMOOTH",
"-10.254 95.215 OFFCURVE",
"-9.521 102.295 OFFCURVE",
"-8.789 109.375 OFFCURVE",
"-6.348 117.676 QCURVE",
"-6.348 117.188 LINE",
"7.812 184.082 OFFCURVE",
"39.551 226.562 QCURVE",
"39.551 226.074 LINE",
"41.992 229.98 OFFCURVE",
"45.41 231.689 OFFCURVE",
"48.828 233.398 OFFCURVE",
"51.758 233.398 QCURVE SMOOTH",
"61.035 233.398 OFFCURVE",
"62.5 229.004 OFFCURVE",
"63.965 224.609 OFFCURVE",
"63.965 217.285 QCURVE",
"62.5 209.961 OFFCURVE",
"62.5 204.59 QCURVE SMOOTH",
"62.5 191.895 OFFCURVE",
"67.383 179.199 QCURVE SMOOTH",
"74.219 162.109 OFFCURVE",
"87.402 160.156 QCURVE",
"108.398 154.297 OFFCURVE",
"133.789 154.297 QCURVE SMOOTH",
"179.688 154.297 OFFCURVE",
"231.934 174.805 QCURVE SMOOTH",
"311.035 205.078 OFFCURVE",
"332.52 261.719 QCURVE SMOOTH",
"334.473 267.09 OFFCURVE",
"338.379 270.02 OFFCURVE",
"342.285 272.949 OFFCURVE",
"345.703 272.949 QCURVE SMOOTH",
"350.098 272.949 OFFCURVE",
"354.248 268.799 OFFCURVE",
"358.398 264.648 OFFCURVE",
"358.398 256.348 QCURVE SMOOTH",
"358.398 255.859 LINE"
);
}
);
width = 373;
}
);
},
{
glyphname = "behDotless-ar.init.feh";
layers = (
{
anchors = (
{
name = bottom;
position = "{356, -141}";
},
{
name = bottom.mark;
position = "{413, -114}";
},
{
name = exit;
position = "{0, 0}";
},
{
name = top;
position = "{448, 541}";
},
{
name = top.mark;
position = "{404, 510}";
}
);
layerId = "1467EB51-6BD4-4CFC-AEAA-3E4EB1A95CFA";
paths = (
{
closed = 1;
nodes = (
"509 392 LINE SMOOTH",
"512 396 OFFCURVE",
"516 383 OFFCURVE",
"523 353 CURVE SMOOTH",
"530 323 OFFCURVE",
"532 301 OFFCURVE",
"530 285 CURVE SMOOTH",
"523 221 OFFCURVE",
"500 165 OFFCURVE",
"461 119 CURVE",
"404 53 OFFCURVE",
"333 26 OFFCURVE",
"219 10 CURVE SMOOTH",
"150 0 OFFCURVE",
"95 -2 OFFCURVE",
"56 2 CURVE SMOOTH",
"28 5 OFFCURVE",
"1 19 OFFCURVE",
"0 48 CURVE",
"13 98 OFFCURVE",
"26 140 OFFCURVE",
"39 175 CURVE",
"54 123 OFFCURVE",
"149 124 OFFCURVE",
"223 132 CURVE SMOOTH",
"296 140 OFFCURVE",
"400 164 OFFCURVE",
"452 187 CURVE",
"453 209 OFFCURVE",
"447 240 OFFCURVE",
"433 279 CURVE"
);
}
);
width = 559;
},
{
anchors = (
{
name = bottom;
position = "{356, -141}";
},
{
name = bottom.mark;
position = "{413, -114}";
},
{
name = exit;
position = "{0, 0}";
},
{
name = top;
position = "{448, 541}";
},
{
name = top.mark;
position = "{404, 510}";
}
);
layerId = "EF321139-F770-433D-B2B6-C3EFA1B16465";
paths = (
{
closed = 1;
nodes = (
"507 428 OFFCURVE",
"525 341 OFFCURVE",
"528 315 CURVE SMOOTH",
"529 303 OFFCURVE",
"529 294 OFFCURVE",
"528 286 CURVE SMOOTH",
"511 148 OFFCURVE",
"433 64 OFFCURVE",
"311 29 CURVE SMOOTH",
"283 21 OFFCURVE",
"253 15 OFFCURVE",
"218 10 CURVE",
"177 4 OFFCURVE",
"138 0 OFFCURVE",
"96 0 CURVE SMOOTH",
"43 0 OFFCURVE",
"-5 9 OFFCURVE",
"-7 60 CURVE",
"5 105 OFFCURVE",
"16 147 OFFCURVE",
"31 186 CURVE SMOOTH",
"33 190 OFFCURVE",
"37 193 OFFCURVE",
"43 193 CURVE SMOOTH",
"49 193 OFFCURVE",
"52 190 OFFCURVE",
"54 185 CURVE SMOOTH",
"63 151 OFFCURVE",
"116 147 OFFCURVE",
"160 147 CURVE SMOOTH",
"248 147 OFFCURVE",
"325 167 OFFCURVE",
"393 188 CURVE SMOOTH",
"408 193 OFFCURVE",
"420 197 OFFCURVE",
"430 201 CURVE",
"428 228 OFFCURVE",
"420 251 OFFCURVE",
"411 277 CURVE SMOOTH",
"410 280 OFFCURVE",
"412 286 OFFCURVE",
"413 288 CURVE SMOOTH",
"486 397 LINE SMOOTH"
);
}
);
width = 559;
},
{
associatedMasterId = "1467EB51-6BD4-4CFC-AEAA-3E4EB1A95CFA";
layerId = "B1655022-E34F-4B62-95C5-DA9D8B3A7E0A";
name = Back;
paths = (
{
closed = 1;
nodes = (
"508.789 392.09 LINE SMOOTH",
"512.695 397.461 OFFCURVE",
"522.705 352.783 OFFCURVE",
"532.715 308.105 OFFCURVE",
"529.785 284.668 QCURVE SMOOTH",
"519.531 188.477 OFFCURVE",
"461.426 119.141 QCURVE",
"428.711 81.543 OFFCURVE",
"386.719 58.594 QCURVE SMOOTH",
"323.73 24.902 OFFCURVE",
"219.482 10.498 OFFCURVE",
"115.234 -3.906 OFFCURVE",
"56.152 1.953 QCURVE SMOOTH",
"35.156 3.906 OFFCURVE",
"18.066 15.137 OFFCURVE",
"0.977 26.367 OFFCURVE",
"0 48.34 QCURVE",
"19.043 123.047 OFFCURVE",
"39.062 175.293 QCURVE",
"48.828 140.137 OFFCURVE",
"102.539 132.324 OFFCURVE",
"156.25 124.512 OFFCURVE",
"223.389 131.836 OFFCURVE",
"290.527 139.16 OFFCURVE",
"355.469 156.006 OFFCURVE",
"420.41 172.852 OFFCURVE",
"452.637 187.012 QCURVE",
"452.148 187.012 LINE",
"453.125 219.727 OFFCURVE",
"432.617 278.809 QCURVE"
);
}
);
width = 559;
},
{
associatedMasterId = "EF321139-F770-433D-B2B6-C3EFA1B16465";
layerId = "4203375D-DE44-489C-A43B-7E61E8CA54BB";
name = Back;
paths = (
{
closed = 1;
nodes = (
"494.629 409.668 OFFCURVE",
"503.906 399.414 OFFCURVE",
"513.184 389.16 OFFCURVE",
"520.508 354.98 QCURVE",
"520.508 355.469 LINE",
"525.879 333.008 OFFCURVE",
"527.588 315.186 OFFCURVE",
"529.297 297.363 OFFCURVE",
"528.32 285.645 QCURVE SMOOTH",
"522.461 237.793 OFFCURVE",
"505.371 195.801 OFFCURVE",
"488.281 153.809 OFFCURVE",
"459.473 119.141 QCURVE",
"442.871 100.098 OFFCURVE",
"424.072 84.961 OFFCURVE",
"405.273 69.824 OFFCURVE",
"383.789 58.105 QCURVE SMOOTH",
"352.051 41.016 OFFCURVE",
"310.791 29.297 OFFCURVE",
"269.531 17.578 OFFCURVE",
"217.773 9.766 QCURVE",
"181.641 4.883 OFFCURVE",
"151.367 2.686 OFFCURVE",
"121.094 0.488 OFFCURVE",
"95.703 0.488 QCURVE SMOOTH",
"73.73 0.488 OFFCURVE",
"57.129 1.953 QCURVE SMOOTH",
"34.18 4.395 OFFCURVE",
"15.137 16.602 QCURVE SMOOTH",
"-6.348 30.273 OFFCURVE",
"-7.324 59.57 QCURVE",
"2.441 96.68 OFFCURVE",
"11.963 128.174 OFFCURVE",
"21.484 159.668 OFFCURVE",
"31.25 185.547 QCURVE SMOOTH",
"32.715 189.453 OFFCURVE",
"36.133 191.406 OFFCURVE",
"39.551 193.359 OFFCURVE",
"42.969 193.359 OFFCURVE",
"46.387 193.359 OFFCURVE",
"49.316 191.162 OFFCURVE",
"52.246 188.965 OFFCURVE",
"53.711 184.57 QCURVE SMOOTH",
"57.129 170.898 OFFCURVE",
"70.312 162.842 OFFCURVE",
"83.496 154.785 OFFCURVE",
"105.469 151.367 QCURVE SMOOTH",
"118.652 148.926 OFFCURVE",
"132.324 148.193 OFFCURVE",
"145.996 147.461 OFFCURVE",
"160.156 147.461 QCURVE SMOOTH",
"173.828 147.461 OFFCURVE",
"188.477 148.193 OFFCURVE",
"203.125 148.926 OFFCURVE",
"218.75 150.879 QCURVE SMOOTH",
"251.465 154.785 OFFCURVE",
"283.203 160.156 OFFCURVE",
"314.941 165.527 OFFCURVE",
"345.215 173.828 QCURVE SMOOTH",
"370.605 180.664 OFFCURVE",
"392.822 187.5 OFFCURVE",
"415.039 194.336 OFFCURVE",
"429.688 200.684 QCURVE",
"428.711 214.844 OFFCURVE",
"424.072 233.887 OFFCURVE",
"419.434 252.93 OFFCURVE",
"411.133 277.344 QCURVE SMOOTH",
"410.156 279.297 OFFCURVE",
"410.889 282.715 OFFCURVE",
"411.621 286.133 OFFCURVE",
"412.598 287.598 QCURVE SMOOTH",
"486.328 397.461 LINE SMOOTH"
);
}
);
width = 559;
}
);
},
{
glyphname = "behDotless-ar.init.hah";
layers = (
{
anchors = (
{
name = bottom;
position = "{378, -29}";
},
{
name = bottom.mark;
position = "{286, -66}";
},
{
name = exit;
position = "{-44, -107}";
},
{
name = top;
position = "{308, 412}";
},
{
name = top.mark;
position = "{308, 472}";
}
);
layerId = "1467EB51-6BD4-4CFC-AEAA-3E4EB1A95CFA";
paths = (
{
closed = 1;
nodes = (
"3 5 OFFCURVE",
"13 20 OFFCURVE",
"31 44 CURVE SMOOTH",
"49 68 OFFCURVE",
"77 98 OFFCURVE",
"116 135 CURVE SMOOTH",
"155 172 OFFCURVE",
"201 202 OFFCURVE",
"255 224 CURVE SMOOTH",
"257 224 OFFCURVE",
"259 225 OFFCURVE",
"262 226 CURVE",
"262 226 LINE",
"263 226 LINE SMOOTH",
"302 244 OFFCURVE",
"336 247 OFFCURVE",
"366 235 CURVE",
"371 229 LINE",
"356 192 OFFCURVE",
"342 153 OFFCURVE",
"324 119 CURVE SMOOTH",
"319 110 OFFCURVE",
"307 111 OFFCURVE",
"296 113 CURVE SMOOTH",
"273 115 OFFCURVE",
"253 114 OFFCURVE",
"234 109 CURVE",
"234 109 LINE",
"189 94 OFFCURVE",
"151 72 OFFCURVE",
"119 44 CURVE SMOOTH",
"103 30 OFFCURVE",
"88 15 OFFCURVE",
"74 0 CURVE",
"1 0 LINE"
);
}
);
width = 423;
},
{
anchors = (
{
name = bottom;
position = "{378, -29}";
},
{
name = bottom.mark;
position = "{286, -66}";
},
{
name = exit;
position = "{-44, -107}";
},
{
name = top;
position = "{308, 412}";
},
{
name = top.mark;
position = "{308, 472}";
}
);
layerId = "EF321139-F770-433D-B2B6-C3EFA1B16465";
paths = (
{
closed = 1;
nodes = (
"-17 0 OFFCURVE",
"-4 21 OFFCURVE",
"3 32 CURVE SMOOTH",
"31 75 OFFCURVE",
"66 113 OFFCURVE",
"107 151 CURVE SMOOTH",
"146 188 OFFCURVE",
"192 217 OFFCURVE",
"247 239 CURVE",
"247 240 LINE",
"271 248 OFFCURVE",
"290 258 OFFCURVE",
"320 258 CURVE SMOOTH",
"334 258 OFFCURVE",
"349 255 OFFCURVE",
"365 248 CURVE",
"371 240 LINE SMOOTH",
"372 238 OFFCURVE",
"375 232 OFFCURVE",
"373 229 CURVE SMOOTH",
"358 192 OFFCURVE",
"345 154 OFFCURVE",
"326 120 CURVE SMOOTH",
"319 108 OFFCURVE",
"305 105 OFFCURVE",
"288 109 CURVE SMOOTH",
"284 110 OFFCURVE",
"281 110 OFFCURVE",
"278 110 CURVE SMOOTH",
"273 110 OFFCURVE",
"273 110 OFFCURVE",
"268 110 CURVE SMOOTH",
"255 110 OFFCURVE",
"243 108 OFFCURVE",
"232 105 CURVE",
"233 105 LINE",
"192 91 OFFCURVE",
"155 70 OFFCURVE",
"126 45 CURVE SMOOTH",
"112 32 OFFCURVE",
"95 17 OFFCURVE",
"83 4 CURVE SMOOTH",
"82 3 OFFCURVE",
"77 0 OFFCURVE",
"75 0 CURVE SMOOTH",
"4 0 LINE SMOOTH"
);
}
);
width = 423;
},
{
associatedMasterId = "1467EB51-6BD4-4CFC-AEAA-3E4EB1A95CFA";
layerId = "47C5E6BC-EA62-45ED-902E-60CB70FD79C8";
name = Back;
paths = (
{
closed = 1;
nodes = (
"4.395 7.812 OFFCURVE",
"30.762 43.945 OFFCURVE",
"57.129 80.078 OFFCURVE",
"115.967 135.254 OFFCURVE",
"174.805 190.43 OFFCURVE",
"255.371 223.633 QCURVE SMOOTH",
"257.812 224.121 OFFCURVE",
"261.719 226.074 QCURVE",
"261.719 225.586 LINE",
"262.207 226.074 OFFCURVE",
"262.695 226.074 QCURVE SMOOTH",
"321.289 253.418 OFFCURVE",
"366.211 234.863 QCURVE",
"371.094 229.004 LINE",
"359.863 201.66 OFFCURVE",
"348.877 173.096 OFFCURVE",
"337.891 144.531 OFFCURVE",
"324.219 118.652 QCURVE SMOOTH",
"319.824 111.328 OFFCURVE",
"310.791 111.572 OFFCURVE",
"301.758 111.816 OFFCURVE",
"295.898 112.793 QCURVE SMOOTH",
"261.719 116.211 OFFCURVE",
"233.887 109.375 QCURVE",
"233.887 108.887 LINE",
"166.504 86.426 OFFCURVE",
"119.141 43.945 QCURVE SMOOTH",
"95.703 22.949 OFFCURVE",
"74.219 0.488 QCURVE",
"1.465 0.488 LINE"
);
}
);
width = 423;
},
{
associatedMasterId = "EF321139-F770-433D-B2B6-C3EFA1B16465";
layerId = "6C3DFCAC-AA65-43DD-AF55-CAB0BBA1E5EA";
name = Back;
paths = (
{
closed = 1;
nodes = (
"-2.441 0.488 OFFCURVE",
"-5.615 5.127 OFFCURVE",
"-8.789 9.766 OFFCURVE",
"-6.348 16.602 QCURVE SMOOTH",
"-4.395 20.996 OFFCURVE",
"2.93 32.227 OFFCURVE",
"10.254 43.457 OFFCURVE",
"23.438 61.523 QCURVE SMOOTH",
"36.133 78.613 OFFCURVE",
"56.885 101.074 OFFCURVE",
"77.637 123.535 OFFCURVE",
"106.934 150.879 QCURVE SMOOTH",
"136.23 178.711 OFFCURVE",
"170.654 200.684 OFFCURVE",
"205.078 222.656 OFFCURVE",
"246.582 239.258 QCURVE",
"247.07 239.746 LINE",
"253.418 241.699 LINE",
"271.484 250 OFFCURVE",
"287.598 253.906 OFFCURVE",
"303.711 257.812 OFFCURVE",
"319.824 257.812 QCURVE SMOOTH",
"340.82 257.812 OFFCURVE",
"364.746 248.047 QCURVE",
"371.094 240.234 LINE SMOOTH",
"372.559 237.793 OFFCURVE",
"373.047 234.131 OFFCURVE",
"373.535 230.469 OFFCURVE",
"372.559 228.516 QCURVE SMOOTH",
"360.352 198.242 LINE SMOOTH",
"352.539 178.711 OFFCURVE",
"344.727 159.18 OFFCURVE",
"336.914 139.648 OFFCURVE",
"326.172 120.117 QCURVE SMOOTH",
"322.754 114.258 OFFCURVE",
"317.627 111.328 OFFCURVE",
"312.5 108.398 OFFCURVE",
"306.885 107.666 OFFCURVE",
"301.27 106.934 OFFCURVE",
"295.898 107.422 OFFCURVE",
"290.527 107.91 OFFCURVE",
"286.621 108.887 QCURVE",
"287.598 108.887 LINE",
"282.227 109.863 OFFCURVE",
"277.588 109.863 OFFCURVE",
"272.949 109.863 OFFCURVE",
"268.066 109.863 QCURVE SMOOTH",
"248.047 109.863 OFFCURVE",
"231.934 105.469 QCURVE",
"232.91 105.469 LINE",
"202.148 95.215 OFFCURVE",
"175.293 79.834 OFFCURVE",
"148.438 64.453 OFFCURVE",
"126.465 45.41 QCURVE",
"114.258 34.18 OFFCURVE",
"102.783 23.438 OFFCURVE",
"91.309 12.695 OFFCURVE",
"83.496 4.395 QCURVE SMOOTH",
"82.52 3.418 OFFCURVE",
"79.346 1.953 OFFCURVE",
"76.172 0.488 OFFCURVE",
"74.707 0.488 QCURVE SMOOTH",
"4.395 0.488 LINE SMOOTH"
);
}
);
width = 423;
}
);
},
{
glyphname = "behDotless-ar.init.heh";
layers = (
{
anchors = (
{
name = bottom;
position = "{387, -62}";
},
{
name = bottom.mark;
position = "{409, -79}";
},
{
name = exit;
position = "{0, 0}";
},
{
name = top;
position = "{417, 514}";
},
{
name = top.mark;
position = "{470, 501}";
}
);
layerId = "1467EB51-6BD4-4CFC-AEAA-3E4EB1A95CFA";
paths = (
{
closed = 1;
nodes = (
"300 146 OFFCURVE",
"243 85 OFFCURVE",
"193 26 CURVE SMOOTH",
"153 -21 OFFCURVE",
"126 -62 OFFCURVE",
"111 -98 CURVE SMOOTH",
"96 -134 OFFCURVE",
"73 -190 OFFCURVE",
"44 -248 CURVE SMOOTH",
"25 -288 OFFCURVE",
"12 -299 OFFCURVE",
"6 -282 CURVE SMOOTH",
"0 -265 OFFCURVE",
"-1 -235 OFFCURVE",
"2 -194 CURVE SMOOTH",
"5 -156 LINE",
"5 -155 LINE",
"58 -90 LINE",
"58 -91 LINE",
"54 -121 LINE",
"62 -105 LINE",
"63 -103 LINE",
"102 -25 OFFCURVE",
"144 55 OFFCURVE",
"196 122 CURVE SMOOTH",
"232 168 OFFCURVE",
"295 225 OFFCURVE",
"348 260 CURVE SMOOTH",
"380 281 OFFCURVE",
"411 296 OFFCURVE",
"443 307 CURVE SMOOTH",
"475 318 OFFCURVE",
"504 318 OFFCURVE",
"528 308 CURVE",
"528 308 OFFCURVE",
"528 308 OFFCURVE",
"533 302 CURVE",
"518 265 OFFCURVE",
"505 226 OFFCURVE",
"486 192 CURVE SMOOTH",
"481 183 OFFCURVE",
"469 184 OFFCURVE",
"458 186 CURVE SMOOTH",
"429 189 OFFCURVE",
"401 186 OFFCURVE",
"377 176 CURVE SMOOTH"
);
}
);
width = 559;
},
{
anchors = (
{
name = bottom;
position = "{387, -62}";
},
{
name = bottom.mark;
position = "{409, -79}";
},
{
name = exit;
position = "{0, 0}";
},
{
name = top;
position = "{417, 514}";
},
{
name = top.mark;
position = "{470, 501}";
}
);
layerId = "EF321139-F770-433D-B2B6-C3EFA1B16465";
paths = (
{
closed = 1;
nodes = (
"375 181 OFFCURVE",
"340 158 OFFCURVE",
"306 133 CURVE SMOOTH",
"266 104 OFFCURVE",
"232 68 OFFCURVE",
"200 30 CURVE SMOOTH",
"171 -6 OFFCURVE",
"139 -47 OFFCURVE",
"122 -88 CURVE SMOOTH",
"103 -132 OFFCURVE",
"83 -177 OFFCURVE",
"61 -225 CURVE SMOOTH",
"60 -228 OFFCURVE",
"60 -230 OFFCURVE",
"58 -232 CURVE",
"43 -264 OFFCURVE",
"17 -308 OFFCURVE",
"0 -265 CURVE SMOOTH",
"-5 -251 OFFCURVE",
"-7 -232 OFFCURVE",
"-7 -212 CURVE SMOOTH",
"-7 -201 OFFCURVE",
"-6 -188 OFFCURVE",
"-5 -175 CURVE SMOOTH",
"-2 -133 LINE",
"52 -69 LINE SMOOTH",
"55 -65 OFFCURVE",
"58 -63 OFFCURVE",
"63 -64 CURVE",
"97 4 OFFCURVE",
"139 78 OFFCURVE",
"184 136 CURVE SMOOTH",
"201 159 OFFCURVE",
"226 182 OFFCURVE",
"248 203 CURVE SMOOTH",
"288 241 OFFCURVE",
"331 274 OFFCURVE",
"382 300 CURVE SMOOTH",
"407 313 OFFCURVE",
"426 320 OFFCURVE",
"454 326 CURVE SMOOTH",
"462 328 OFFCURVE",
"471 329 OFFCURVE",
"478 329 CURVE SMOOTH",
"493 329 OFFCURVE",
"508 325 OFFCURVE",
"522 319 CURVE",
"526 315 OFFCURVE",
"533 308 OFFCURVE",
"530 300 CURVE SMOOTH",
"518 268 LINE SMOOTH",
"508 242 OFFCURVE",
"497 215 OFFCURVE",
"484 191 CURVE SMOOTH",
"473 173 OFFCURVE",
"452 181 OFFCURVE",
"428 181 CURVE SMOOTH"
);
}
);
width = 559;
},
{
associatedMasterId = "1467EB51-6BD4-4CFC-AEAA-3E4EB1A95CFA";
layerId = "6D1232F6-C65F-496C-89A0-CA2EAFCA4E9A";
name = Back;
paths = (
{
closed = 1;
nodes = (
"272.949 112.793 OFFCURVE",
"245.85 84.961 OFFCURVE",
"218.75 57.129 OFFCURVE",
"192.871 26.367 QCURVE SMOOTH",
"133.301 -44.434 OFFCURVE",
"110.596 -98.389 OFFCURVE",
"87.891 -152.344 OFFCURVE",
"46.875 -240.723 QCURVE",
"46.387 -241.699 LINE SMOOTH",
"45.898 -243.652 OFFCURVE",
"43.945 -247.559 QCURVE SMOOTH",
"15.137 -308.105 OFFCURVE",
"6.348 -282.227 OFFCURVE",
"-2.441 -256.348 OFFCURVE",
"1.953 -194.336 QCURVE SMOOTH",
"4.883 -155.762 LINE",
"4.883 -155.273 LINE",
"58.105 -89.844 LINE",
"58.105 -91.309 LINE",
"53.711 -120.605 LINE",
"61.523 -104.98 LINE",
"62.988 -102.539 LINE",
"91.309 -45.41 OFFCURVE",
"123.291 12.207 OFFCURVE",
"155.273 69.824 OFFCURVE",
"195.801 121.582 QCURVE SMOOTH",
"218.75 150.879 OFFCURVE",
"259.766 189.697 OFFCURVE",
"300.781 228.516 OFFCURVE",
"348.145 260.01 OFFCURVE",
"395.508 291.504 OFFCURVE",
"443.359 307.373 OFFCURVE",
"491.211 323.242 OFFCURVE",
"527.832 308.105 QCURVE",
"527.832 308.105 OFFCURVE",
"532.715 302.246 QCURVE",
"521.484 274.902 OFFCURVE",
"510.742 246.338 OFFCURVE",
"500 217.773 OFFCURVE",
"485.84 191.895 QCURVE SMOOTH",
"481.445 184.57 OFFCURVE",
"472.412 184.814 OFFCURVE",
"463.379 185.059 OFFCURVE",
"457.52 186.035 QCURVE SMOOTH",
"413.574 190.43 OFFCURVE",
"377.197 176.025 OFFCURVE",
"340.82 161.621 OFFCURVE",
"304.688 135.742 QCURVE SMOOTH"
);
}
);
width = 559;
},
{
associatedMasterId = "EF321139-F770-433D-B2B6-C3EFA1B16465";
layerId = "5401F9B4-BF49-4CE7-B3E7-959B0B4532DA";
name = Back;
paths = (
{
closed = 1;
nodes = (
"275.879 111.816 OFFCURVE",
"249.756 84.961 OFFCURVE",
"223.633 58.105 OFFCURVE",
"199.707 29.785 QCURVE",
"173.34 -2.441 OFFCURVE",
"152.832 -32.715 OFFCURVE",
"132.324 -62.988 OFFCURVE",
"122.07 -87.891 QCURVE SMOOTH",
"110.84 -114.258 OFFCURVE",
"95.703 -148.438 OFFCURVE",
"80.566 -182.617 OFFCURVE",
"61.035 -225.098 QCURVE SMOOTH",
"60.059 -227.051 OFFCURVE",
"59.326 -229.004 OFFCURVE",
"58.594 -230.957 OFFCURVE",
"57.129 -232.91 QCURVE SMOOTH",
"57.617 -232.422 LINE",
"38.574 -273.438 OFFCURVE",
"23.438 -280.273 OFFCURVE",
"8.301 -287.109 OFFCURVE",
"-0.488 -264.648 QCURVE SMOOTH",
"-3.906 -255.859 OFFCURVE",
"-5.371 -242.676 OFFCURVE",
"-6.836 -229.492 OFFCURVE",
"-6.836 -212.402 QCURVE SMOOTH",
"-6.836 -195.312 OFFCURVE",
"-5.371 -175.293 QCURVE SMOOTH",
"-1.953 -133.301 LINE",
"51.758 -68.848 LINE SMOOTH",
"56.641 -62.988 OFFCURVE",
"63.477 -64.453 QCURVE",
"89.355 -13.672 OFFCURVE",
"119.629 39.062 OFFCURVE",
"149.902 91.797 OFFCURVE",
"184.082 136.23 QCURVE SMOOTH",
"194.824 150.391 OFFCURVE",
"211.426 167.48 OFFCURVE",
"228.027 184.57 OFFCURVE",
"247.559 203.125 QCURVE SMOOTH",
"267.578 222.168 OFFCURVE",
"290.039 240.234 OFFCURVE",
"312.5 258.301 OFFCURVE",
"334.473 272.949 QCURVE",
"357.422 287.598 OFFCURVE",
"382.324 300.293 OFFCURVE",
"407.227 312.988 OFFCURVE",
"429.199 319.824 QCURVE SMOOTH",
"441.895 323.73 OFFCURVE",
"454.102 326.172 OFFCURVE",
"466.309 328.613 OFFCURVE",
"477.539 328.613 QCURVE SMOOTH",
"500.488 328.613 OFFCURVE",
"521.973 319.336 QCURVE",
"522.949 318.359 OFFCURVE",
"523.926 316.895 QCURVE SMOOTH",
"524.902 315.918 OFFCURVE",
"525.879 314.209 OFFCURVE",
"526.855 312.5 OFFCURVE",
"528.32 311.523 QCURVE",
"530.273 309.082 OFFCURVE",
"530.762 305.664 OFFCURVE",
"531.25 302.246 OFFCURVE",
"530.273 299.805 QCURVE SMOOTH",
"517.578 267.578 LINE SMOOTH",
"510.254 248.535 OFFCURVE",
"501.953 229.004 OFFCURVE",
"493.652 209.473 OFFCURVE",
"483.887 190.918 QCURVE SMOOTH",
"480.469 185.059 OFFCURVE",
"475.342 182.129 OFFCURVE",
"470.215 179.199 OFFCURVE",
"464.6 178.467 OFFCURVE",
"458.984 177.734 OFFCURVE",
"453.613 178.223 OFFCURVE",
"448.242 178.711 OFFCURVE",
"444.336 179.688 QCURVE",
"439.941 180.176 OFFCURVE",
"436.279 180.42 OFFCURVE",
"432.617 180.664 OFFCURVE",
"428.223 180.664 QCURVE SMOOTH",
"394.043 180.664 OFFCURVE",
"364.99 167.725 OFFCURVE",
"335.938 154.785 OFFCURVE",
"306.152 133.301 QCURVE SMOOTH"
);
}
);
width = 559;
}
);
},
{
glyphname = "behDotless-ar.init.meem";
layers = (
{
anchors = (
{
name = bottom;
position = "{356, -9}";
},
{
name = bottom.mark;
position = "{264, -35}";
},
{
name = exit;
position = "{0, 0}";
},
{
name = top;
position = "{286, 545}";
},
{
name = top.mark;
position = "{272, 479}";
}
);
layerId = "1467EB51-6BD4-4CFC-AEAA-3E4EB1A95CFA";
paths = (
{
closed = 1;
nodes = (
"270 187 OFFCURVE",
"249 205 OFFCURVE",
"224 203 CURVE SMOOTH",
"199 201 OFFCURVE",
"173 189 OFFCURVE",
"147 166 CURVE SMOOTH",
"121 143 OFFCURVE",
"96 116 OFFCURVE",
"73 83 CURVE SMOOTH",
"50 50 OFFCURVE",
"32 22 OFFCURVE",
"18 0 CURVE",
"0 0 LINE",
"1 1 OFFCURVE",
"3 6 OFFCURVE",
"5 13 CURVE SMOOTH",
"7 20 OFFCURVE",
"13 32 OFFCURVE",
"21 50 CURVE SMOOTH",
"31 71 OFFCURVE",
"46 101 OFFCURVE",
"66 138 CURVE SMOOTH",
"103 207 OFFCURVE",
"157 280 OFFCURVE",
"223 316 CURVE SMOOTH",
"254 333 OFFCURVE",
"287 332 OFFCURVE",
"320 313 CURVE",
"341 301 OFFCURVE",
"342 276 OFFCURVE",
"325 238 CURVE SMOOTH",
"308 200 OFFCURVE",
"296 170 OFFCURVE",
"288 149 CURVE"
);
}
);
width = 367;
},
{
anchors = (
{
name = bottom;
position = "{356, -9}";
},
{
name = bottom.mark;
position = "{264, -35}";
},
{
name = exit;
position = "{0, 0}";
},
{
name = top;
position = "{286, 545}";
},
{
name = top.mark;
position = "{272, 479}";
}
);
layerId = "EF321139-F770-433D-B2B6-C3EFA1B16465";
paths = (
{
closed = 1;
nodes = (
"249 198 OFFCURVE",
"227 205 OFFCURVE",
"187 186 CURVE SMOOTH",
"176 181 OFFCURVE",
"163 173 OFFCURVE",
"152 163 CURVE SMOOTH",
"128 142 OFFCURVE",
"105 115 OFFCURVE",
"83 84 CURVE",
"83 85 LINE",
"64 57 OFFCURVE",
"47 31 OFFCURVE",
"30 5 CURVE SMOOTH",
"29 3 OFFCURVE",
"23 0 OFFCURVE",
"20 0 CURVE SMOOTH",
"3 0 LINE SMOOTH",
"-23 0 OFFCURVE",
"7 54 OFFCURVE",
"12 65 CURVE SMOOTH",
"25 92 OFFCURVE",
"40 122 OFFCURVE",
"56 151 CURVE SMOOTH",
"93 222 OFFCURVE",
"144 290 OFFCURVE",
"213 328 CURVE SMOOTH",
"227 335 OFFCURVE",
"243 341 OFFCURVE",
"262 341 CURVE SMOOTH",
"281 341 OFFCURVE",
"300 336 OFFCURVE",
"318 325 CURVE SMOOTH",
"333 316 OFFCURVE",
"340 302 OFFCURVE",
"340 284 CURVE SMOOTH",
"340 266 OFFCURVE",
"334 251 OFFCURVE",
"328 236 CURVE",
"314 205 OFFCURVE",
"303 180 OFFCURVE",
"292 152 CURVE",
"271 151 LINE"
);
}
);
width = 367;
},
{
associatedMasterId = "1467EB51-6BD4-4CFC-AEAA-3E4EB1A95CFA";
layerId = "A5E99247-A443-4F1C-ABC2-B9701F45CF28";
name = Back;
paths = (
{
closed = 1;
nodes = (
"261.719 207.031 OFFCURVE",
"223.877 203.369 OFFCURVE",
"186.035 199.707 OFFCURVE",
"147.217 165.771 OFFCURVE",
"108.398 131.836 OFFCURVE",
"73.486 82.52 OFFCURVE",
"38.574 33.203 OFFCURVE",
"17.578 0 QCURVE",
"0 0 LINE",
"1.465 1.953 OFFCURVE",
"4.639 12.939 OFFCURVE",
"7.812 23.926 OFFCURVE",
"20.508 50.293 QCURVE SMOOTH",
"35.645 82.52 OFFCURVE",
"65.918 138.428 OFFCURVE",
"96.191 194.336 OFFCURVE",
"136.23 242.676 OFFCURVE",
"176.27 291.016 OFFCURVE",
"223.389 316.406 OFFCURVE",
"270.508 341.797 OFFCURVE",
"319.824 313.477 QCURVE",
"350.586 294.922 OFFCURVE",
"325.195 237.549 OFFCURVE",
"299.805 180.176 OFFCURVE",
"288.086 149.414 QCURVE"
);
}
);
width = 367;
},
{
associatedMasterId = "EF321139-F770-433D-B2B6-C3EFA1B16465";
layerId = "C1F85662-1CAD-434E-8EB8-57667C1A656A";
name = Back;
paths = (
{
closed = 1;
nodes = (
"248.535 199.219 OFFCURVE",
"219.727 196.289 QCURVE SMOOTH",
"203.613 194.336 OFFCURVE",
"186.523 186.279 OFFCURVE",
"169.434 178.223 OFFCURVE",
"152.344 162.598 QCURVE",
"116.211 131.348 OFFCURVE",
"83.008 84.473 QCURVE",
"83.008 84.961 LINE",
"66.406 61.035 OFFCURVE",
"53.223 41.016 OFFCURVE",
"40.039 20.996 OFFCURVE",
"29.785 5.371 QCURVE SMOOTH",
"28.809 3.418 OFFCURVE",
"25.391 1.709 OFFCURVE",
"21.973 0 OFFCURVE",
"20.02 0 QCURVE SMOOTH",
"2.93 0 LINE SMOOTH",
"-3.906 0 OFFCURVE",
"-7.324 4.639 OFFCURVE",
"-10.742 9.277 OFFCURVE",
"-8.301 15.625 QCURVE",
"-6.836 20.996 LINE",
"-4.883 25.879 OFFCURVE",
"-0.244 37.842 OFFCURVE",
"4.395 49.805 OFFCURVE",
"11.719 65.43 QCURVE SMOOTH",
"19.043 81.055 OFFCURVE",
"30.518 102.783 OFFCURVE",
"41.992 124.512 OFFCURVE",
"56.152 150.879 QCURVE SMOOTH",
"70.312 178.223 OFFCURVE",
"87.891 204.346 OFFCURVE",
"105.469 230.469 OFFCURVE",
"125.488 253.906 QCURVE SMOOTH",
"145.02 277.344 OFFCURVE",
"167.48 296.387 OFFCURVE",
"189.941 315.43 OFFCURVE",
"212.891 328.125 QCURVE SMOOTH",
"224.609 334.473 OFFCURVE",
"237.061 337.891 OFFCURVE",
"249.512 341.309 OFFCURVE",
"262.207 341.309 QCURVE SMOOTH",
"291.016 341.309 OFFCURVE",
"317.871 324.707 QCURVE SMOOTH",
"340.332 310.547 OFFCURVE",
"340.332 283.691 QCURVE SMOOTH",
"340.332 273.438 OFFCURVE",
"337.158 261.963 OFFCURVE",
"333.984 250.488 OFFCURVE",
"328.125 236.328 QCURVE",
"315.43 208.496 OFFCURVE",
"306.641 187.744 OFFCURVE",
"297.852 166.992 OFFCURVE",
"291.992 151.855 QCURVE",
"270.508 151.367 LINE"
);
}
);
width = 367;
}
);
},
{
glyphname = "behDotless-ar.init.ragaa";
layers = (
{
anchors = (
{
name = bottom;
position = "{419, 145}";
},
{
name = bottom.mark;
position = "{274, -102}";
},
{
name = exit;
position = "{0, 0}";
},
{
name = top;
position = "{199, 623}";
},
{
name = top.mark;
position = "{242, 639}";
}
);
layerId = "1467EB51-6BD4-4CFC-AEAA-3E4EB1A95CFA";
paths = (
{
closed = 1;
nodes = (
"233 228 OFFCURVE",
"225 258 OFFCURVE",
"220 273 CURVE",
"220 274 LINE",
"220 274 LINE",
"212 297 OFFCURVE",
"198 323 OFFCURVE",
"179 352 CURVE",
"242 463 LINE",
"280 426 OFFCURVE",
"299 377 OFFCURVE",
"298 316 CURVE",
"298 317 LINE",
"298 316 LINE SMOOTH",
"298 282 OFFCURVE",
"293 251 OFFCURVE",
"281 221 CURVE",
"273 197 OFFCURVE",
"260 170 OFFCURVE",
"241 141 CURVE SMOOTH",
"224 116 OFFCURVE",
"204 97 OFFCURVE",
"179 83 CURVE SMOOTH",
"134 58 OFFCURVE",
"91 32 OFFCURVE",
"51 3 CURVE SMOOTH",
"49 2 OFFCURVE",
"47 1 OFFCURVE",
"46 -1 CURVE",
"0 31 LINE",
"22 87 OFFCURVE",
"91 146 OFFCURVE",
"151 165 CURVE SMOOTH",
"182 175 OFFCURVE",
"210 189 OFFCURVE",
"235 209 CURVE",
"235 210 OFFCURVE",
"235 212 OFFCURVE",
"235 214 CURVE SMOOTH"
);
}
);
width = 678;
},
{
anchors = (
{
name = bottom;
position = "{419, 145}";
},
{
name = bottom.mark;
position = "{274, -102}";
},
{
name = exit;
position = "{0, 0}";
},
{
name = top;
position = "{199, 623}";
},
{
name = top.mark;
position = "{242, 639}";
}
);
layerId = "EF321139-F770-433D-B2B6-C3EFA1B16465";
paths = (
{
closed = 1;
nodes = (
"56 1 OFFCURVE",
"48 -5 OFFCURVE",
"40 1 CURVE SMOOTH",
"-5 32 LINE SMOOTH",
"-9 35 OFFCURVE",
"-11 41 OFFCURVE",
"-9 47 CURVE",
"11 96 OFFCURVE",
"53 136 OFFCURVE",
"97 163 CURVE SMOOTH",
"113 172 OFFCURVE",
"128 179 OFFCURVE",
"144 184 CURVE SMOOTH",
"171 192 OFFCURVE",
"195 203 OFFCURVE",
"216 220 CURVE",
"212 238 LINE",
"202 280 OFFCURVE",
"186 311 OFFCURVE",
"164 344 CURVE SMOOTH",
"163 346 OFFCURVE",
"163 348 OFFCURVE",
"163 351 CURVE SMOOTH",
"163 354 OFFCURVE",
"163 355 OFFCURVE",
"164 357 CURVE SMOOTH",
"225 465 LINE SMOOTH",
"229 472 OFFCURVE",
"238 474 OFFCURVE",
"245 468 CURVE SMOOTH",
"284 430 OFFCURVE",
"303 380 OFFCURVE",
"303 318 CURVE SMOOTH",
"303 284 OFFCURVE",
"297 252 OFFCURVE",
"286 222 CURVE",
"266 165 OFFCURVE",
"232 109 OFFCURVE",
"181 81 CURVE SMOOTH",
"158 68 OFFCURVE",
"136 56 OFFCURVE",
"114 42 CURVE",
"103 35 LINE",
"88 25 OFFCURVE",
"74 16 OFFCURVE",
"60 6 CURVE"
);
}
);
width = 678;
},
{
associatedMasterId = "1467EB51-6BD4-4CFC-AEAA-3E4EB1A95CFA";
layerId = "91837474-113A-4913-8EF4-D6234415C188";
name = Back;
paths = (
{
closed = 1;
nodes = (
"48.34 1.465 OFFCURVE",
"46.387 -1.465 QCURVE",
"46.387 -1.465 LINE",
"0 31.25 LINE",
"0 31.25 LINE",
"16.113 73.242 OFFCURVE",
"59.57 111.328 QCURVE SMOOTH",
"103.516 149.902 OFFCURVE",
"150.635 164.551 OFFCURVE",
"197.754 179.199 OFFCURVE",
"234.863 208.984 QCURVE",
"235.352 210.938 OFFCURVE",
"235.352 213.867 QCURVE SMOOTH",
"234.863 217.773 OFFCURVE",
"230.469 236.816 OFFCURVE",
"226.074 255.859 OFFCURVE",
"220.215 273.438 QCURVE",
"220.215 273.926 LINE",
"219.727 273.926 LINE",
"207.52 308.594 OFFCURVE",
"178.711 351.562 QCURVE",
"178.711 351.562 LINE",
"242.188 462.891 LINE",
"299.316 407.227 OFFCURVE",
"297.852 316.406 QCURVE",
"298.34 316.895 LINE",
"298.34 316.406 LINE SMOOTH",
"298.34 266.113 OFFCURVE",
"280.762 220.703 QCURVE",
"280.762 220.703 LINE",
"269.043 184.57 OFFCURVE",
"240.723 141.113 QCURVE SMOOTH",
"215.82 103.027 OFFCURVE",
"178.711 82.764 OFFCURVE",
"141.602 62.5 OFFCURVE",
"107.91 41.504 QCURVE SMOOTH",
"92.285 31.25 OFFCURVE",
"77.637 21.729 OFFCURVE",
"62.988 12.207 OFFCURVE",
"50.781 3.418 QCURVE SMOOTH"
);
}
);
width = 678;
},
{
associatedMasterId = "EF321139-F770-433D-B2B6-C3EFA1B16465";
layerId = "F05A2F5E-114D-4287-8018-EB3A51293668";
name = Back;
paths = (
{
closed = 1;
nodes = (
"53.223 -0.977 OFFCURVE",
"48.34 -1.221 OFFCURVE",
"43.457 -1.465 OFFCURVE",
"40.039 0.977 QCURVE SMOOTH",
"-4.883 32.227 LINE SMOOTH",
"-8.301 34.668 OFFCURVE",
"-9.277 39.062 OFFCURVE",
"-10.254 43.457 OFFCURVE",
"-9.277 47.363 QCURVE",
"-0.977 68.359 OFFCURVE",
"14.404 89.355 OFFCURVE",
"29.785 110.352 OFFCURVE",
"51.758 129.395 OFFCURVE",
"73.73 148.438 OFFCURVE",
"97.168 162.598 OFFCURVE",
"120.605 176.758 OFFCURVE",
"144.043 183.594 QCURVE SMOOTH",
"184.57 195.312 OFFCURVE",
"216.309 220.215 QCURVE",
"212.402 238.281 LINE SMOOTH",
"210.449 246.582 OFFCURVE",
"208.008 255.859 OFFCURVE",
"205.566 265.137 OFFCURVE",
"202.637 272.461 QCURVE SMOOTH",
"197.266 287.109 OFFCURVE",
"187.5 305.42 OFFCURVE",
"177.734 323.73 OFFCURVE",
"164.062 344.238 QCURVE SMOOTH",
"162.598 346.68 OFFCURVE",
"162.598 350.83 OFFCURVE",
"162.598 354.98 OFFCURVE",
"164.062 357.422 QCURVE SMOOTH",
"225.098 464.844 LINE SMOOTH",
"228.516 470.703 OFFCURVE",
"234.375 471.436 OFFCURVE",
"240.234 472.168 OFFCURVE",
"245.117 467.773 QCURVE SMOOTH",
"303.223 410.645 OFFCURVE",
"302.734 317.871 QCURVE SMOOTH",
"302.734 266.602 OFFCURVE",
"285.156 220.703 QCURVE",
"285.645 221.68 LINE",
"279.297 203.613 OFFCURVE",
"269.287 183.105 OFFCURVE",
"259.277 162.598 OFFCURVE",
"245.605 141.602 QCURVE",
"232.91 123.047 OFFCURVE",
"216.309 107.178 OFFCURVE",
"199.707 91.309 OFFCURVE",
"181.152 81.055 QCURVE SMOOTH",
"163.086 71.289 OFFCURVE",
"146.24 61.768 OFFCURVE",
"129.395 52.246 OFFCURVE",
"113.281 41.992 QCURVE",
"114.258 42.48 LINE",
"103.027 34.668 LINE",
"90.82 26.855 OFFCURVE",
"80.078 20.02 OFFCURVE",
"69.336 13.184 OFFCURVE",
"59.57 6.348 QCURVE",
"56.152 2.441 LINE SMOOTH"
);
}
);
width = 678;
}
);
},
{
glyphname = "behDotless-ar.init.reh";
layers = (
{
anchors = (
{
name = bottom;
position = "{202, -127}";
},
{
name = bottom.mark;
position = "{211, -123}";
},
{
name = exit;
position = "{0, 0}";
},
{
name = top;
position = "{229, 422}";
},
{
name = top.mark;
position = "{250, 400}";
}
);
layerId = "1467EB51-6BD4-4CFC-AEAA-3E4EB1A95CFA";
paths = (
{
closed = 1;
nodes = (
"301 142 OFFCURVE",
"267 88 OFFCURVE",
"191 69 CURVE SMOOTH",
"156 60 OFFCURVE",
"126 53 OFFCURVE",
"102 49 CURVE SMOOTH",
"79 45 OFFCURVE",
"54 33 OFFCURVE",
"34 13 CURVE",
"23 -4 OFFCURVE",
"13 -6 OFFCURVE",
"4 7 CURVE SMOOTH",
"-5 20 OFFCURVE",
"-1 36 OFFCURVE",
"14 54 CURVE",
"14 55 LINE",
"20 68 OFFCURVE",
"26 80 OFFCURVE",
"33 91 CURVE",
"54 144 OFFCURVE",
"93 177 OFFCURVE",
"154 186 CURVE SMOOTH",
"179 190 OFFCURVE",
"207 194 OFFCURVE",
"235 200 CURVE",
"262 204 OFFCURVE",
"291 213 OFFCURVE",
"308 229 CURVE"
);
}
);
width = 323;
},
{
anchors = (
{
name = bottom;
position = "{202, -127}";
},
{
name = bottom.mark;
position = "{211, -123}";
},
{
name = exit;
position = "{0, 0}";
},
{
name = top;
position = "{229, 422}";
},
{
name = top.mark;
position = "{250, 400}";
}
);
layerId = "EF321139-F770-433D-B2B6-C3EFA1B16465";
paths = (
{
closed = 1;
nodes = (
"2 -1 OFFCURVE",
"-10 18 OFFCURVE",
"-10 34 CURVE SMOOTH",
"-10 50 OFFCURVE",
"-2 60 OFFCURVE",
"6 71 CURVE",
"11 83 OFFCURVE",
"17 94 OFFCURVE",
"24 105 CURVE",
"37 138 OFFCURVE",
"56 162 OFFCURVE",
"81 177 CURVE",
"80 177 LINE",
"100 190 OFFCURVE",
"123 198 OFFCURVE",
"150 203 CURVE",
"177 207 OFFCURVE",
"201 211 OFFCURVE",
"227 217 CURVE",
"251 221 OFFCURVE",
"277 228 OFFCURVE",
"292 242 CURVE SMOOTH",
"300 250 OFFCURVE",
"313 243 OFFCURVE",
"312 232 CURVE SMOOTH",
"305 142 OFFCURVE",
"267 87 OFFCURVE",
"190 67 CURVE SMOOTH",
"160 60 OFFCURVE",
"133 53 OFFCURVE",
"104 48 CURVE SMOOTH",
"82 44 OFFCURVE",
"60 31 OFFCURVE",
"45 18 CURVE",
"39 9 OFFCURVE",
"31 -1 OFFCURVE",
"18 -1 CURVE SMOOTH"
);
}
);
width = 323;
},
{
associatedMasterId = "1467EB51-6BD4-4CFC-AEAA-3E4EB1A95CFA";
layerId = "1B2843CC-5A01-49E3-B537-AF3A4E00EFAD";
name = Back;
paths = (
{
closed = 1;
nodes = (
"138.184 55.664 OFFCURVE",
"102.295 49.316 OFFCURVE",
"66.406 42.969 OFFCURVE",
"34.668 13.672 QCURVE",
"34.18 13.184 LINE",
"17.09 -11.719 OFFCURVE",
"3.906 7.324 OFFCURVE",
"-9.277 26.367 OFFCURVE",
"13.672 53.711 QCURVE",
"13.672 54.688 LINE",
"22.461 74.707 OFFCURVE",
"32.715 90.82 QCURVE",
"50.781 137.695 OFFCURVE",
"86.914 160.645 QCURVE SMOOTH",
"116.211 179.688 OFFCURVE",
"154.297 185.547 OFFCURVE",
"192.383 191.406 OFFCURVE",
"234.863 200.195 QCURVE",
"252.441 203.125 OFFCURVE",
"273.193 209.229 OFFCURVE",
"293.945 215.332 OFFCURVE",
"308.105 229.004 QCURVE",
"303.223 166.016 OFFCURVE",
"276.611 124.756 OFFCURVE",
"250 83.496 OFFCURVE",
"191.406 68.848 QCURVE SMOOTH"
);
}
);
width = 323;
},
{
associatedMasterId = "EF321139-F770-433D-B2B6-C3EFA1B16465";
layerId = "2CCF42A1-D1B8-4B7E-B0F8-747A92627D51";
name = Back;
paths = (
{
closed = 1;
nodes = (
"164.062 60.547 OFFCURVE",
"142.334 55.664 OFFCURVE",
"120.605 50.781 OFFCURVE",
"103.516 47.852 QCURVE SMOOTH",
"88.867 44.922 OFFCURVE",
"73.486 37.109 OFFCURVE",
"58.105 29.297 OFFCURVE",
"45.41 18.066 QCURVE",
"39.551 9.277 OFFCURVE",
"32.471 4.15 OFFCURVE",
"25.391 -0.977 OFFCURVE",
"18.066 -0.977 QCURVE SMOOTH",
"12.695 -0.977 OFFCURVE",
"6.836 2.686 OFFCURVE",
"0.977 6.348 OFFCURVE",
"-2.93 11.719 QCURVE SMOOTH",
"-10.254 21.484 OFFCURVE",
"-10.254 33.691 QCURVE SMOOTH",
"-10.254 42.48 OFFCURVE",
"-6.104 51.514 OFFCURVE",
"-1.953 60.547 OFFCURVE",
"5.859 71.289 QCURVE",
"9.766 79.59 OFFCURVE",
"14.16 88.135 OFFCURVE",
"18.555 96.68 OFFCURVE",
"23.926 104.98 QCURVE",
"43.457 153.809 OFFCURVE",
"80.566 176.758 QCURVE",
"80.078 176.758 LINE",
"109.863 196.289 OFFCURVE",
"149.902 203.125 QCURVE",
"168.457 205.566 OFFCURVE",
"187.5 208.984 OFFCURVE",
"206.543 212.402 OFFCURVE",
"227.051 216.797 QCURVE",
"243.164 219.238 OFFCURVE",
"261.719 224.609 OFFCURVE",
"280.273 229.98 OFFCURVE",
"292.48 241.699 QCURVE SMOOTH",
"298.34 247.559 OFFCURVE",
"305.42 244.141 OFFCURVE",
"312.5 240.723 OFFCURVE",
"312.012 231.934 QCURVE SMOOTH",
"309.57 199.707 OFFCURVE",
"301.758 172.852 OFFCURVE",
"293.945 145.996 OFFCURVE",
"279.297 125 OFFCURVE",
"264.648 104.004 OFFCURVE",
"242.92 89.355 OFFCURVE",
"221.191 74.707 OFFCURVE",
"190.43 66.895 QCURVE SMOOTH"
);
}
);
width = 323;
}
);
},
{
glyphname = "behDotless-ar.init.sad";
layers = (
{
anchors = (
{
name = bottom;
position = "{426, -105}";
},
{
name = bottom.mark;
position = "{483, -92}";
},
{
name = exit;
position = "{0, 0}";
},
{
name = top;
position = "{567, 602}";
},
{
name = top.mark;
position = "{497, 637}";
}
);
layerId = "1467EB51-6BD4-4CFC-AEAA-3E4EB1A95CFA";
paths = (
{
closed = 1;
nodes = (
"520 268 OFFCURVE",
"499 325 OFFCURVE",
"489 354 CURVE",
"565 467 LINE",
"589 393 LINE SMOOTH",
"595 376 OFFCURVE",
"598 358 OFFCURVE",
"598 339 CURVE SMOOTH",
"598 304 OFFCURVE",
"588 267 OFFCURVE",
"568 226 CURVE SMOOTH",
"532 151 OFFCURVE",
"441 92 OFFCURVE",
"359 55 CURVE SMOOTH",
"312 34 OFFCURVE",
"264 18 OFFCURVE",
"214 9 CURVE SMOOTH",
"183 3 OFFCURVE",
"153 0 OFFCURVE",
"126 0 CURVE SMOOTH",
"65 0 OFFCURVE",
"14 14 OFFCURVE",
"5 57 CURVE SMOOTH",
"3 68 OFFCURVE",
"1 79 OFFCURVE",
"1 91 CURVE SMOOTH",
"1 111 OFFCURVE",
"5 133 OFFCURVE",
"12 155 CURVE SMOOTH",
"23 191 OFFCURVE",
"37 225 OFFCURVE",
"57 259 CURVE SMOOTH",
"77 293 OFFCURVE",
"92 316 OFFCURVE",
"102 331 CURVE SMOOTH",
"103 333 OFFCURVE",
"104 333 OFFCURVE",
"106 333 CURVE SMOOTH",
"108 333 OFFCURVE",
"111 333 OFFCURVE",
"111 330 CURVE SMOOTH",
"111 329 OFFCURVE",
"111 328 OFFCURVE",
"110 326 CURVE SMOOTH",
"81 269 OFFCURVE",
"67 227 OFFCURVE",
"67 197 CURVE SMOOTH",
"67 144 OFFCURVE",
"104 124 OFFCURVE",
"157 124 CURVE SMOOTH",
"173 124 OFFCURVE",
"190 126 OFFCURVE",
"209 130 CURVE SMOOTH",
"300 147 OFFCURVE",
"383 166 OFFCURVE",
"457 202 CURVE SMOOTH",
"520 232 LINE",
"520 234 LINE SMOOTH"
);
}
);
width = 643;
},
{
anchors = (
{
name = bottom;
position = "{426, -105}";
},
{
name = bottom.mark;
position = "{483, -92}";
},
{
name = exit;
position = "{0, 0}";
},
{
name = top;
position = "{567, 602}";
},
{
name = top.mark;
position = "{497, 637}";
}
);
layerId = "EF321139-F770-433D-B2B6-C3EFA1B16465";
paths = (
{
closed = 1;
nodes = (
"82 159 OFFCURVE",
"114 144 OFFCURVE",
"157 144 CURVE SMOOTH",
"195 144 OFFCURVE",
"228 152 OFFCURVE",
"260 159 CURVE SMOOTH",
"278 163 OFFCURVE",
"295 167 OFFCURVE",
"313 172 CURVE SMOOTH",
"359 183 OFFCURVE",
"402 198 OFFCURVE",
"441 217 CURVE SMOOTH",
"495 244 LINE",
"495 254 OFFCURVE",
"491 268 OFFCURVE",
"486 287 CURVE",
"479 309 OFFCURVE",
"474 330 OFFCURVE",
"466 350 CURVE SMOOTH",
"465 353 OFFCURVE",
"466 358 OFFCURVE",
"467 360 CURVE SMOOTH",
"542 469 LINE SMOOTH",
"548 478 OFFCURVE",
"560 477 OFFCURVE",
"563 467 CURVE SMOOTH",
"586 395 LINE SMOOTH",
"591 378 OFFCURVE",
"594 361 OFFCURVE",
"594 340 CURVE SMOOTH",
"594 283 OFFCURVE",
"565 214 OFFCURVE",
"532 176 CURVE SMOOTH",
"472 107 OFFCURVE",
"383 58 OFFCURVE",
"286 27 CURVE SMOOTH",
"262 19 OFFCURVE",
"238 14 OFFCURVE",
"214 9 CURVE",
"214 9 LINE",
"183 3 OFFCURVE",
"154 0 OFFCURVE",
"127 0 CURVE SMOOTH",
"47 0 OFFCURVE",
"-5 20 OFFCURVE",
"-5 100 CURVE SMOOTH",
"-5 120 OFFCURVE",
"1 149 OFFCURVE",
"5 165 CURVE",
"26 233 OFFCURVE",
"61 290 OFFCURVE",
"97 342 CURVE",
"100 344 OFFCURVE",
"103 346 OFFCURVE",
"108 346 CURVE SMOOTH",
"111 346 OFFCURVE",
"113 345 OFFCURVE",
"115 344 CURVE",
"114 345 LINE",
"121 343 OFFCURVE",
"124 339 OFFCURVE",
"124 331 CURVE SMOOTH",
"124 328 OFFCURVE",
"124 327 OFFCURVE",
"123 325 CURVE SMOOTH",
"95 271 OFFCURVE",
"82 229 OFFCURVE",
"82 202 CURVE SMOOTH"
);
}
);
width = 643;
},
{
associatedMasterId = "1467EB51-6BD4-4CFC-AEAA-3E4EB1A95CFA";
layerId = "3487C4A7-D218-451A-B139-F56C3A333E70";
name = Back;
paths = (
{
closed = 1;
nodes = (
"543.945 175.293 OFFCURVE",
"486.816 130.859 OFFCURVE",
"429.688 86.426 OFFCURVE",
"359.131 54.932 OFFCURVE",
"288.574 23.438 OFFCURVE",
"213.867 9.277 QCURVE SMOOTH",
"166.992 0 OFFCURVE",
"126.465 0 QCURVE SMOOTH",
"101.562 0 OFFCURVE",
"78.613 3.418 QCURVE SMOOTH",
"14.648 12.695 OFFCURVE",
"4.883 57.129 QCURVE SMOOTH",
"1.465 73.242 OFFCURVE",
"1.465 91.309 QCURVE SMOOTH",
"1.465 121.094 OFFCURVE",
"11.719 154.785 QCURVE SMOOTH",
"27.832 208.496 OFFCURVE",
"57.129 258.789 OFFCURVE",
"86.426 309.082 OFFCURVE",
"102.051 331.055 QCURVE SMOOTH",
"104.004 333.496 OFFCURVE",
"106.445 333.496 QCURVE SMOOTH",
"107.422 333.496 OFFCURVE",
"108.887 333.008 QCURVE SMOOTH",
"110.84 332.52 OFFCURVE",
"110.84 330.078 QCURVE SMOOTH",
"110.84 328.613 OFFCURVE",
"109.863 326.172 QCURVE SMOOTH",
"66.895 241.211 OFFCURVE",
"66.895 196.777 QCURVE SMOOTH",
"66.895 190.918 OFFCURVE",
"67.871 185.547 QCURVE SMOOTH",
"74.219 141.602 OFFCURVE",
"112.793 130.371 QCURVE",
"132.324 124.023 OFFCURVE",
"157.227 124.023 QCURVE SMOOTH",
"181.152 124.023 OFFCURVE",
"209.473 129.883 QCURVE",
"267.578 140.625 OFFCURVE",
"322.266 153.809 QCURVE SMOOTH",
"393.555 170.898 OFFCURVE",
"456.543 201.66 QCURVE SMOOTH",
"519.531 232.422 LINE",
"519.531 234.375 LINE SMOOTH",
"519.531 252.93 OFFCURVE",
"509.766 287.598 QCURVE",
"499.023 323.242 OFFCURVE",
"488.77 353.516 QCURVE",
"565.43 466.797 LINE",
"589.355 393.066 LINE SMOOTH",
"597.656 367.676 OFFCURVE",
"597.656 339.355 QCURVE SMOOTH",
"597.656 287.109 OFFCURVE",
"568.359 226.074 QCURVE SMOOTH"
);
}
);
width = 643;
},
{
associatedMasterId = "EF321139-F770-433D-B2B6-C3EFA1B16465";
layerId = "DF433529-4563-4AE1-9B66-11E188E3987F";
name = Back;
paths = (
{
closed = 1;
nodes = (
"552.734 199.219 OFFCURVE",
"532.227 175.537 OFFCURVE",
"511.719 151.855 OFFCURVE",
"482.422 128.906 QCURVE SMOOTH",
"454.59 106.934 OFFCURVE",
"423.096 88.135 OFFCURVE",
"391.602 69.336 OFFCURVE",
"356.445 53.711 QCURVE",
"321.777 39.062 OFFCURVE",
"285.645 27.344 OFFCURVE",
"249.512 15.625 OFFCURVE",
"213.867 8.789 QCURVE",
"213.867 9.277 LINE",
"167.969 0 OFFCURVE",
"127.441 0 QCURVE SMOOTH",
"114.746 0 OFFCURVE",
"102.295 0.732 OFFCURVE",
"89.844 1.465 OFFCURVE",
"79.102 3.418 QCURVE SMOOTH",
"45.41 8.789 OFFCURVE",
"24.658 24.17 OFFCURVE",
"3.906 39.551 OFFCURVE",
"-1.465 64.453 QCURVE",
"-1.465 63.965 LINE",
"-3.906 73.242 OFFCURVE",
"-4.639 82.031 OFFCURVE",
"-5.371 90.82 OFFCURVE",
"-5.371 100.098 QCURVE SMOOTH",
"-5.371 113.77 OFFCURVE",
"-2.197 132.08 OFFCURVE",
"0.977 150.391 OFFCURVE",
"4.883 164.551 QCURVE",
"13.184 190.918 OFFCURVE",
"24.414 217.773 OFFCURVE",
"35.645 244.629 OFFCURVE",
"49.805 268.066 QCURVE",
"62.5 290.039 OFFCURVE",
"74.463 308.594 OFFCURVE",
"86.426 327.148 OFFCURVE",
"96.68 341.797 QCURVE",
"98.633 343.262 OFFCURVE",
"101.318 344.482 OFFCURVE",
"104.004 345.703 OFFCURVE",
"107.91 345.703 QCURVE SMOOTH",
"108.887 345.703 OFFCURVE",
"110.84 345.459 OFFCURVE",
"112.793 345.215 OFFCURVE",
"115.234 343.75 QCURVE",
"114.258 344.727 LINE",
"119.629 343.262 OFFCURVE",
"121.826 339.6 OFFCURVE",
"124.023 335.938 OFFCURVE",
"124.023 330.566 QCURVE SMOOTH",
"124.023 328.125 OFFCURVE",
"123.779 326.904 OFFCURVE",
"123.535 325.684 OFFCURVE",
"123.047 324.707 QCURVE SMOOTH",
"81.543 243.164 OFFCURVE",
"81.543 202.148 QCURVE SMOOTH",
"81.543 200.684 OFFCURVE",
"81.787 197.998 OFFCURVE",
"82.031 195.312 OFFCURVE",
"82.52 192.871 QCURVE SMOOTH",
"85.449 176.27 OFFCURVE",
"93.994 164.795 OFFCURVE",
"102.539 153.32 OFFCURVE",
"117.188 148.926 QCURVE SMOOTH",
"135.742 143.555 OFFCURVE",
"156.738 143.555 QCURVE SMOOTH",
"167.969 143.555 OFFCURVE",
"180.176 144.775 OFFCURVE",
"192.383 145.996 OFFCURVE",
"205.078 148.438 QCURVE SMOOTH",
"232.91 153.809 OFFCURVE",
"260.01 159.424 OFFCURVE",
"287.109 165.039 OFFCURVE",
"313.477 171.875 QCURVE",
"382.812 188.477 OFFCURVE",
"440.918 217.285 QCURVE SMOOTH",
"494.629 243.652 LINE",
"494.141 258.301 OFFCURVE",
"486.328 286.621 QCURVE",
"480.957 303.711 OFFCURVE",
"476.074 319.58 OFFCURVE",
"471.191 335.449 OFFCURVE",
"465.82 349.609 QCURVE SMOOTH",
"464.844 351.562 OFFCURVE",
"465.576 354.736 OFFCURVE",
"466.309 357.91 OFFCURVE",
"467.285 359.863 QCURVE SMOOTH",
"541.504 469.238 LINE SMOOTH",
"546.387 476.074 OFFCURVE",
"553.467 475.098 OFFCURVE",
"560.547 474.121 OFFCURVE",
"562.988 466.797 QCURVE SMOOTH",
"585.938 395.02 LINE SMOOTH",
"589.844 381.836 OFFCURVE",
"592.041 368.164 OFFCURVE",
"594.238 354.492 OFFCURVE",
"594.238 339.844 QCURVE SMOOTH",
"594.238 285.645 OFFCURVE",
"564.941 225.098 QCURVE SMOOTH"
);
}
);
width = 643;
}
);
},
{
glyphname = "behDotless-ar.init.yeh";
layers = (
{
anchors = (
{
name = bottom;
position = "{325, 88}";
},
{
name = bottom.mark;
position = "{145, -457}";
},
{
name = exit;
position = "{0, 0}";
},
{
name = top;
position = "{92, 470}";
},
{
name = top.mark;
position = "{101, 497}";
}
);
layerId = "1467EB51-6BD4-4CFC-AEAA-3E4EB1A95CFA";
paths = (
{
closed = 1;
nodes = (
"105 89 OFFCURVE",
"105 90 OFFCURVE",
"106 92 CURVE SMOOTH",
"104 106 OFFCURVE",
"96 137 OFFCURVE",
"91 151 CURVE",
"91 151 LINE",
"84 173 OFFCURVE",
"69 199 OFFCURVE",
"49 229 CURVE",
"113 341 LINE",
"150 304 OFFCURVE",
"169 254 OFFCURVE",
"169 194 CURVE SMOOTH",
"169 160 OFFCURVE",
"163 129 OFFCURVE",
"151 99 CURVE",
"141 66 OFFCURVE",
"117 25 OFFCURVE",
"98 0 CURVE",
"0 25 LINE",
"7 42 LINE",
"36 52 OFFCURVE",
"83 69 OFFCURVE",
"105 87 CURVE"
);
}
);
width = 177;
},
{
anchors = (
{
name = bottom;
position = "{325, 88}";
},
{
name = bottom.mark;
position = "{145, -457}";
},
{
name = exit;
position = "{0, 0}";
},
{
name = top;
position = "{92, 470}";
},
{
name = top.mark;
position = "{101, 497}";
}
);
layerId = "EF321139-F770-433D-B2B6-C3EFA1B16465";
paths = (
{
closed = 1;
nodes = (
"35 74 OFFCURVE",
"69 84 OFFCURVE",
"92 103 CURVE",
"88 120 LINE",
"88 120 LINE",
"86 130 OFFCURVE",
"83 141 OFFCURVE",
"78 154 CURVE",
"71 175 OFFCURVE",
"58 199 OFFCURVE",
"39 227 CURVE SMOOTH",
"37 230 OFFCURVE",
"37 236 OFFCURVE",
"39 239 CURVE SMOOTH",
"101 347 LINE SMOOTH",
"105 353 OFFCURVE",
"113 357 OFFCURVE",
"119 350 CURVE SMOOTH",
"158 312 OFFCURVE",
"177 262 OFFCURVE",
"176 200 CURVE SMOOTH",
"176 166 OFFCURVE",
"170 133 OFFCURVE",
"159 104 CURVE",
"148 70 OFFCURVE",
"124 31 OFFCURVE",
"105 5 CURVE SMOOTH",
"103 2 OFFCURVE",
"98 -2 OFFCURVE",
"93 0 CURVE SMOOTH",
"-1 24 LINE SMOOTH",
"-7 26 OFFCURVE",
"-13 33 OFFCURVE",
"-9 41 CURVE SMOOTH",
"-2 57 LINE SMOOTH",
"-1 58 OFFCURVE",
"3 63 OFFCURVE",
"5 63 CURVE SMOOTH"
);
}
);
width = 177;
},
{
associatedMasterId = "1467EB51-6BD4-4CFC-AEAA-3E4EB1A95CFA";
layerId = "238F8B2B-CFDF-4C99-B64E-993D110CAB07";
name = Back;
paths = (
{
closed = 1;
nodes = (
"105.957 95.215 OFFCURVE",
"101.562 114.502 OFFCURVE",
"97.168 133.789 OFFCURVE",
"91.309 151.367 QCURVE",
"90.82 151.367 LINE",
"90.82 151.367 LINE",
"79.59 184.082 OFFCURVE",
"49.316 229.004 QCURVE",
"49.316 229.004 LINE",
"113.281 340.82 LINE",
"169.434 284.668 OFFCURVE",
"168.945 194.336 QCURVE",
"168.945 194.336 LINE",
"168.945 194.336 LINE",
"168.945 143.066 OFFCURVE",
"151.367 98.633 QCURVE",
"151.367 98.633 LINE",
"143.555 74.219 OFFCURVE",
"128.418 47.119 OFFCURVE",
"113.281 20.02 OFFCURVE",
"98.145 0 QCURVE",
"0 24.902 LINE",
"7.324 41.504 LINE",
"29.297 48.828 OFFCURVE",
"58.35 60.547 OFFCURVE",
"87.402 72.266 OFFCURVE",
"105.469 86.914 QCURVE",
"105.469 87.891 OFFCURVE",
"105.713 89.111 OFFCURVE",
"105.957 90.332 OFFCURVE",
"106.445 91.797 QCURVE"
);
}
);
width = 177;
},
{
associatedMasterId = "EF321139-F770-433D-B2B6-C3EFA1B16465";
layerId = "0A5982EA-D0A1-473F-A79E-22BAD5AF5617";
name = Back;
paths = (
{
closed = 1;
nodes = (
"64.453 85.449 OFFCURVE",
"73.975 90.576 OFFCURVE",
"83.496 95.703 OFFCURVE",
"91.797 102.539 QCURVE",
"87.891 119.629 LINE",
"88.379 119.629 LINE",
"85.449 134.277 OFFCURVE",
"77.637 153.809 QCURVE",
"67.383 185.059 OFFCURVE",
"39.062 226.562 QCURVE SMOOTH",
"37.598 229.004 OFFCURVE",
"37.354 232.666 OFFCURVE",
"37.109 236.328 OFFCURVE",
"38.574 238.77 QCURVE SMOOTH",
"100.586 346.68 LINE SMOOTH",
"104.004 352.051 OFFCURVE",
"109.619 353.027 OFFCURVE",
"115.234 354.004 OFFCURVE",
"119.141 349.609 QCURVE SMOOTH",
"177.246 292.48 OFFCURVE",
"176.27 199.707 QCURVE",
"176.27 147.461 OFFCURVE",
"158.691 103.027 QCURVE",
"159.18 104.004 LINE",
"150.879 78.613 OFFCURVE",
"135.742 52.002 OFFCURVE",
"120.605 25.391 OFFCURVE",
"105.469 4.883 QCURVE SMOOTH",
"104.004 2.441 OFFCURVE",
"100.098 0.977 OFFCURVE",
"96.191 -0.488 OFFCURVE",
"93.262 0.488 QCURVE SMOOTH",
"-1.465 24.414 LINE SMOOTH",
"-6.836 25.879 OFFCURVE",
"-9.277 30.518 OFFCURVE",
"-11.719 35.156 OFFCURVE",
"-9.277 40.527 QCURVE SMOOTH",
"-2.441 56.641 LINE SMOOTH",
"-1.465 58.105 OFFCURVE",
"0.977 60.547 OFFCURVE",
"3.418 62.988 OFFCURVE",
"4.883 62.988 QCURVE",
"15.625 66.895 OFFCURVE",
"27.588 71.289 OFFCURVE",
"39.551 75.684 OFFCURVE",
"53.223 81.055 QCURVE SMOOTH"
);
}
);
width = 177;
}
);
},
{
glyphname = "hah-ar";
layers = (
{
anchors = (
{
name = bottom.mark;
position = "{294, -545}";
},
{
name = center;
position = "{382, 73}";
},
{
name = top;
position = "{308, 739}";
},
{
name = top.mark;
position = "{325, 738}";
}
);
layerId = "1467EB51-6BD4-4CFC-AEAA-3E4EB1A95CFA";
paths = (
{
closed = 1;
nodes = (
"387 398 LINE",
"367 457 OFFCURVE",
"231 433 OFFCURVE",
"202 408 CURVE",
"217 370 OFFCURVE",
"244 340 OFFCURVE",
"260 304 CURVE",
"301 334 OFFCURVE",
"353 366 OFFCURVE",
"387 398 CURVE"
);
},
{
closed = 1;
nodes = (
"485 -384 OFFCURVE",
"59 -451 OFFCURVE",
"4 -190 CURVE SMOOTH",
"-26 -49 OFFCURVE",
"92 160 OFFCURVE",
"182 242 CURVE",
"107 325 OFFCURVE",
"146 478 OFFCURVE",
"212 525 CURVE SMOOTH",
"256 556 OFFCURVE",
"364 576 OFFCURVE",
"428 549 CURVE SMOOTH",
"494 522 OFFCURVE",
"430 384 OFFCURVE",
"403 346 CURVE SMOOTH",
"371 300 OFFCURVE",
"328 264 OFFCURVE",
"288 229 CURVE SMOOTH",
"233 181 OFFCURVE",
"-14 -30 OFFCURVE",
"64 -118 CURVE SMOOTH",
"200 -271 OFFCURVE",
"460 -232 OFFCURVE",
"635 -186 CURVE SMOOTH",
"640 -185 OFFCURVE",
"652 -182 OFFCURVE",
"648 -186 CURVE SMOOTH",
"648 -186 LINE"
);
}
);
width = 683;
},
{
anchors = (
{
name = bottom;
position = "{382, 24}";
},
{
name = bottom.mark;
position = "{294, -545}";
},
{
name = center;
position = "{382, 73}";
},
{
name = top;
position = "{308, 739}";
},
{
name = top.mark;
position = "{325, 738}";
}
);
layerId = "EF321139-F770-433D-B2B6-C3EFA1B16465";
paths = (
{
closed = 1;
nodes = (
"246 350 OFFCURVE",
"255 337 OFFCURVE",
"262 324 CURVE",
"313 360 LINE",
"332 372 OFFCURVE",
"349 385 OFFCURVE",
"365 399 CURVE",
"357 414 OFFCURVE",
"340 421 OFFCURVE",
"314 421 CURVE SMOOTH",
"290 421 OFFCURVE",
"264 416 OFFCURVE",
"247 412 CURVE SMOOTH",
"234 409 OFFCURVE",
"222 406 OFFCURVE",
"215 402 CURVE",
"222 386 OFFCURVE",
"228 374 OFFCURVE",
"238 361 CURVE",
"238 362 LINE"
);
},
{
closed = 1;
nodes = (
"639 -153 OFFCURVE",
"644 -158 OFFCURVE",
"644 -166 CURVE SMOOTH",
"644 -171 OFFCURVE",
"643 -172 OFFCURVE",
"640 -175 CURVE",
"600 -223 OFFCURVE",
"546 -263 OFFCURVE",
"480 -294 CURVE",
"414 -325 OFFCURVE",
"344 -348 OFFCURVE",
"253 -348 CURVE SMOOTH",
"193 -348 OFFCURVE",
"145 -334 OFFCURVE",
"102 -314 CURVE",
"37 -281 OFFCURVE",
"-7 -217 OFFCURVE",
"-7 -119 CURVE SMOOTH",
"-7 12 OFFCURVE",
"102 186 OFFCURVE",
"165 247 CURVE",
"141 278 OFFCURVE",
"128 313 OFFCURVE",
"128 353 CURVE SMOOTH",
"128 370 OFFCURVE",
"131 383 OFFCURVE",
"134 398 CURVE",
"133 398 LINE",
"145 460 OFFCURVE",
"169 503 OFFCURVE",
"204 528 CURVE SMOOTH",
"233 548 OFFCURVE",
"291 567 OFFCURVE",
"350 567 CURVE SMOOTH",
"377 567 OFFCURVE",
"402 562 OFFCURVE",
"424 553 CURVE",
"449 542 OFFCURVE",
"462 522 OFFCURVE",
"462 494 CURVE SMOOTH",
"462 479 OFFCURVE",
"459 463 OFFCURVE",
"452 444 CURVE",
"438 404 OFFCURVE",
"425 366 OFFCURVE",
"405 339 CURVE SMOOTH",
"375 298 OFFCURVE",
"336 264 OFFCURVE",
"299 231 CURVE",
"286 218 OFFCURVE",
"270 206 OFFCURVE",
"255 192 CURVE SMOOTH",
"225 164 LINE",
"225 165 LINE",
"167 113 OFFCURVE",
"108 51 OFFCURVE",
"73 -24 CURVE SMOOTH",
"67 -37 OFFCURVE",
"64 -50 OFFCURVE",
"64 -61 CURVE SMOOTH",
"64 -75 OFFCURVE",
"70 -85 OFFCURVE",
"77 -93 CURVE",
"136 -159 OFFCURVE",
"225 -194 OFFCURVE",
"342 -194 CURVE SMOOTH",
"348 -194 OFFCURVE",
"348 -194 OFFCURVE",
"354 -194 CURVE SMOOTH",
"446 -194 OFFCURVE",
"541 -175 OFFCURVE",
"616 -156 CURVE SMOOTH",
"622 -154 OFFCURVE",
"626 -153 OFFCURVE",
"630 -153 CURVE SMOOTH"
);
}
);
width = 683;
},
{
associatedMasterId = "1467EB51-6BD4-4CFC-AEAA-3E4EB1A95CFA";
layerId = "65702946-9252-48E5-83D0-92231847C970";
name = Back;
paths = (
{
closed = 1;
nodes = (
"374.023 435.547 OFFCURVE",
"319.336 435.547 QCURVE SMOOTH",
"309.57 435.547 OFFCURVE",
"298.34 434.57 QCURVE SMOOTH",
"224.609 426.27 OFFCURVE",
"202.637 408.203 QCURVE",
"213.379 379.883 OFFCURVE",
"230.957 355.225 OFFCURVE",
"248.535 330.566 OFFCURVE",
"260.254 304.199 QCURVE",
"290.527 326.172 OFFCURVE",
"325.684 350.098 OFFCURVE",
"360.84 374.023 OFFCURVE",
"386.719 397.949 QCURVE"
);
},
{
closed = 1;
nodes = (
"586.914 -258.789 OFFCURVE",
"486.572 -305.42 OFFCURVE",
"386.23 -352.051 OFFCURVE",
"286.133 -358.887 QCURVE SMOOTH",
"270.996 -359.863 OFFCURVE",
"256.836 -359.863 QCURVE SMOOTH",
"173.828 -359.863 OFFCURVE",
"105.469 -326.172 QCURVE SMOOTH",
"25.391 -287.109 OFFCURVE",
"4.883 -189.453 QCURVE SMOOTH",
"-0.488 -162.598 OFFCURVE",
"-0.488 -134.766 QCURVE SMOOTH",
"-0.488 -49.805 OFFCURVE",
"48.828 48.828 QCURVE SMOOTH",
"114.258 180.664 OFFCURVE",
"181.641 242.676 QCURVE",
"139.648 289.551 OFFCURVE",
"139.648 353.027 QCURVE SMOOTH",
"139.648 374.023 OFFCURVE",
"144.531 396.973 QCURVE SMOOTH",
"162.598 489.258 OFFCURVE",
"212.402 524.902 QCURVE SMOOTH",
"245.117 547.852 OFFCURVE",
"312.5 558.594 QCURVE SMOOTH",
"335.449 562.012 OFFCURVE",
"356.445 562.012 QCURVE SMOOTH",
"396.484 562.012 OFFCURVE",
"428.223 548.828 QCURVE SMOOTH",
"459.961 535.645 OFFCURVE",
"459.961 499.023 QCURVE SMOOTH",
"459.961 479.004 OFFCURVE",
"450.195 451.66 QCURVE SMOOTH",
"422.852 374.512 OFFCURVE",
"403.32 346.191 QCURVE",
"378.418 312.012 OFFCURVE",
"348.145 283.691 OFFCURVE",
"317.871 255.371 OFFCURVE",
"288.574 229.492 QCURVE SMOOTH",
"267.578 210.938 OFFCURVE",
"218.994 166.992 OFFCURVE",
"170.41 123.047 OFFCURVE",
"126.465 71.045 OFFCURVE",
"82.52 19.043 OFFCURVE",
"59.082 -32.227 QCURVE SMOOTH",
"48.34 -55.176 OFFCURVE",
"48.34 -74.707 QCURVE SMOOTH",
"48.34 -98.145 OFFCURVE",
"64.453 -116.699 QCURVE SMOOTH",
"115.234 -173.828 OFFCURVE",
"186.279 -198.242 OFFCURVE",
"257.324 -222.656 OFFCURVE",
"334.961 -225.098 QCURVE SMOOTH",
"348.145 -225.586 OFFCURVE",
"361.328 -225.586 QCURVE SMOOTH",
"425.781 -225.586 OFFCURVE",
"490.723 -214.844 QCURVE SMOOTH",
"568.848 -201.66 OFFCURVE",
"634.277 -185.059 QCURVE SMOOTH",
"643.066 -182.617 OFFCURVE",
"646.484 -182.617 QCURVE SMOOTH",
"648.438 -182.617 OFFCURVE",
"648.438 -183.594 QCURVE SMOOTH",
"648.438 -184.082 OFFCURVE",
"647.949 -185.059 QCURVE SMOOTH"
);
}
);
width = 683;
},
{
associatedMasterId = "EF321139-F770-433D-B2B6-C3EFA1B16465";
layerId = "27E784D8-1463-4AAD-B51E-46A1ED9AB964";
name = Back;
paths = (
{
closed = 1;
nodes = (
"328.613 369.629 OFFCURVE",
"341.309 379.395 OFFCURVE",
"354.004 389.16 OFFCURVE",
"364.746 398.926 QCURVE",
"352.539 420.898 OFFCURVE",
"313.965 420.898 QCURVE SMOOTH",
"309.57 420.898 OFFCURVE",
"304.932 420.654 OFFCURVE",
"300.293 420.41 OFFCURVE",
"294.922 419.922 QCURVE SMOOTH",
"266.602 416.504 OFFCURVE",
"246.582 412.109 OFFCURVE",
"226.562 407.715 OFFCURVE",
"215.332 401.855 QCURVE",
"220.215 390.625 OFFCURVE",
"225.586 380.859 OFFCURVE",
"230.957 371.094 OFFCURVE",
"238.281 361.328 QCURVE",
"238.281 361.816 LINE",
"244.629 353.027 OFFCURVE",
"250.488 343.262 OFFCURVE",
"256.348 333.496 OFFCURVE",
"261.719 323.73 QCURVE",
"313.477 359.863 LINE"
);
},
{
closed = 1;
nodes = (
"580.078 -247.559 OFFCURVE",
"479.98 -293.945 QCURVE",
"480.469 -293.945 LINE",
"431.152 -317.383 OFFCURVE",
"382.08 -330.566 OFFCURVE",
"333.008 -343.75 OFFCURVE",
"282.227 -346.68 QCURVE SMOOTH",
"274.902 -347.168 OFFCURVE",
"267.578 -347.412 OFFCURVE",
"260.254 -347.656 OFFCURVE",
"253.418 -347.656 QCURVE SMOOTH",
"212.402 -347.656 OFFCURVE",
"174.561 -339.111 OFFCURVE",
"136.719 -330.566 OFFCURVE",
"102.051 -313.965 QCURVE",
"61.523 -293.457 OFFCURVE",
"35.4 -258.301 OFFCURVE",
"9.277 -223.145 OFFCURVE",
"-1.465 -173.828 QCURVE SMOOTH",
"-3.906 -160.645 OFFCURVE",
"-5.371 -146.973 OFFCURVE",
"-6.836 -133.301 OFFCURVE",
"-6.836 -118.652 QCURVE SMOOTH",
"-6.836 -34.668 OFFCURVE",
"42.48 63.965 QCURVE",
"103.027 186.523 OFFCURVE",
"165.039 247.07 QCURVE",
"128.418 293.457 OFFCURVE",
"128.418 353.027 QCURVE SMOOTH",
"128.418 363.77 OFFCURVE",
"129.639 374.756 OFFCURVE",
"130.859 385.742 OFFCURVE",
"133.789 398.438 QCURVE",
"133.301 397.949 LINE",
"151.367 490.723 OFFCURVE",
"203.613 528.32 QCURVE",
"237.793 552.246 OFFCURVE",
"305.664 563.477 QCURVE SMOOTH",
"316.895 565.43 OFFCURVE",
"327.881 566.162 OFFCURVE",
"338.867 566.895 OFFCURVE",
"350.098 566.895 QCURVE SMOOTH",
"390.625 566.895 OFFCURVE",
"423.828 553.223 QCURVE",
"461.914 536.621 OFFCURVE",
"461.914 494.141 QCURVE SMOOTH",
"461.914 472.168 OFFCURVE",
"451.66 444.336 QCURVE",
"438.965 406.738 OFFCURVE",
"427.246 380.371 OFFCURVE",
"415.527 354.004 OFFCURVE",
"404.785 339.355 QCURVE SMOOTH",
"381.348 307.129 OFFCURVE",
"353.516 280.762 OFFCURVE",
"325.684 254.395 OFFCURVE",
"298.828 230.957 QCURVE",
"292.48 224.609 LINE",
"285.645 219.238 OFFCURVE",
"276.367 210.938 OFFCURVE",
"267.09 202.637 OFFCURVE",
"255.371 191.895 QCURVE SMOOTH",
"225.098 164.062 LINE",
"225.098 164.551 LINE",
"201.66 143.555 OFFCURVE",
"179.688 120.605 OFFCURVE",
"157.715 97.656 OFFCURVE",
"136.719 72.754 QCURVE SMOOTH",
"116.211 48.34 OFFCURVE",
"100.342 24.17 OFFCURVE",
"84.473 0 OFFCURVE",
"73.242 -24.414 QCURVE SMOOTH",
"63.965 -43.457 OFFCURVE",
"63.965 -60.547 QCURVE SMOOTH",
"63.965 -69.336 OFFCURVE",
"67.383 -77.393 OFFCURVE",
"70.801 -85.449 OFFCURVE",
"76.66 -92.773 QCURVE",
"124.512 -146.484 OFFCURVE",
"188.965 -168.457 QCURVE SMOOTH",
"255.371 -191.406 OFFCURVE",
"329.59 -193.848 QCURVE SMOOTH",
"335.938 -194.336 OFFCURVE",
"342.041 -194.336 OFFCURVE",
"348.145 -194.336 OFFCURVE",
"354.492 -194.336 QCURVE SMOOTH",
"414.551 -194.336 OFFCURVE",
"477.539 -184.082 QCURVE SMOOTH",
"517.09 -177.246 OFFCURVE",
"551.27 -170.41 OFFCURVE",
"585.449 -163.574 OFFCURVE",
"615.723 -155.762 QCURVE",
"625 -152.832 OFFCURVE",
"630.371 -152.832 QCURVE SMOOTH",
"638.184 -152.832 OFFCURVE",
"641.113 -156.982 OFFCURVE",
"644.043 -161.133 OFFCURVE",
"644.043 -165.527 QCURVE SMOOTH",
"644.043 -167.969 OFFCURVE",
"643.555 -170.41 OFFCURVE",
"643.066 -172.852 OFFCURVE",
"640.137 -175.293 QCURVE SMOOTH",
"640.625 -174.805 LINE"
);
}
);
width = 683;
}
);
unicode = 062D;
},
{
glyphname = "hah-ar.fina";
layers = (
{
anchors = (
{
name = bottom.mark;
position = "{294, -545}";
},
{
name = center;
position = "{382, 73}";
},
{
name = entry;
position = "{147, 424}";
},
{
name = top;
position = "{158, 760}";
},
{
name = top.mark;
position = "{141, 773}";
}
);
layerId = "1467EB51-6BD4-4CFC-AEAA-3E4EB1A95CFA";
paths = (
{
closed = 1;
nodes = (
"384 404 OFFCURVE",
"381 408 OFFCURVE",
"379 409 CURVE SMOOTH",
"348 416 OFFCURVE",
"310 419 OFFCURVE",
"264 419 CURVE SMOOTH",
"218 419 OFFCURVE",
"184 417 OFFCURVE",
"161 413 CURVE SMOOTH",
"149 410 OFFCURVE",
"145 417 OFFCURVE",
"148 432 CURVE SMOOTH",
"157 474 OFFCURVE",
"191 530 OFFCURVE",
"207 554 CURVE",
"223 558 OFFCURVE",
"259 560 OFFCURVE",
"312 560 CURVE SMOOTH",
"365 560 OFFCURVE",
"404 556 OFFCURVE",
"429 546 CURVE SMOOTH",
"462 532 OFFCURVE",
"469 499 OFFCURVE",
"451 448 CURVE SMOOTH",
"433 397 OFFCURVE",
"417 362 OFFCURVE",
"404 343 CURVE SMOOTH",
"372 299 OFFCURVE",
"329 262 OFFCURVE",
"289 227 CURVE SMOOTH",
"275 215 OFFCURVE",
"251 193 OFFCURVE",
"219 164 CURVE SMOOTH",
"160 111 OFFCURVE",
"93 38 OFFCURVE",
"59 -35 CURVE SMOOTH",
"43 -69 OFFCURVE",
"45 -98 OFFCURVE",
"65 -120 CURVE SMOOTH",
"126 -189 OFFCURVE",
"218 -224 OFFCURVE",
"335 -228 CURVE SMOOTH",
"387 -230 OFFCURVE",
"439 -227 OFFCURVE",
"491 -218 CURVE SMOOTH",
"569 -205 OFFCURVE",
"617 -195 OFFCURVE",
"635 -188 CURVE SMOOTH",
"638 -187 OFFCURVE",
"641 -187 OFFCURVE",
"645 -186 CURVE SMOOTH",
"649 -185 OFFCURVE",
"650 -186 OFFCURVE",
"648 -188 CURVE SMOOTH",
"607 -237 OFFCURVE",
"554 -277 OFFCURVE",
"487 -308 CURVE SMOOTH",
"371 -362 OFFCURVE",
"227 -388 OFFCURVE",
"106 -329 CURVE SMOOTH",
"53 -303 OFFCURVE",
"19 -257 OFFCURVE",
"5 -192 CURVE SMOOTH",
"-10 -121 OFFCURVE",
"5 -42 OFFCURVE",
"49 46 CURVE SMOOTH",
"93 134 OFFCURVE",
"137 199 OFFCURVE",
"182 240 CURVE",
"261 301 LINE",
"300 329 OFFCURVE",
"353 363 OFFCURVE",
"387 395 CURVE"
);
}
);
width = 188;
},
{
anchors = (
{
name = bottom;
position = "{382, 24}";
},
{
name = bottom.mark;
position = "{294, -545}";
},
{
name = center;
position = "{382, 73}";
},
{
name = entry;
position = "{147, 424}";
},
{
name = top;
position = "{158, 760}";
},
{
name = top.mark;
position = "{141, 773}";
}
);
layerId = "EF321139-F770-433D-B2B6-C3EFA1B16465";
paths = (
{
closed = 1;
nodes = (
"566 -269 OFFCURVE",
"414 -351 OFFCURVE",
"254 -351 CURVE SMOOTH",
"199 -351 OFFCURVE",
"150 -339 OFFCURVE",
"103 -316 CURVE SMOOTH",
"50 -289 OFFCURVE",
"15 -241 OFFCURVE",
"0 -176 CURVE SMOOTH",
"-4 -159 OFFCURVE",
"-6 -141 OFFCURVE",
"-6 -121 CURVE SMOOTH",
"-6 -66 OFFCURVE",
"9 -4 OFFCURVE",
"42 62 CURVE",
"85 148 OFFCURVE",
"129 211 OFFCURVE",
"173 252 CURVE",
"250 312 LINE",
"287 340 OFFCURVE",
"331 367 OFFCURVE",
"366 397 CURVE",
"337 403 OFFCURVE",
"306 405 OFFCURVE",
"271 405 CURVE",
"239 406 OFFCURVE",
"209 404 OFFCURVE",
"183 400 CURVE",
"184 400 LINE",
"143 392 OFFCURVE",
"147 442 OFFCURVE",
"157 475 CURVE",
"163 493 OFFCURVE",
"171 509 OFFCURVE",
"179 525 CURVE SMOOTH",
"187 539 OFFCURVE",
"191 548 OFFCURVE",
"191 549 CURVE SMOOTH",
"192 553 OFFCURVE",
"197 557 OFFCURVE",
"200 558 CURVE SMOOTH",
"218 562 OFFCURVE",
"253 565 OFFCURVE",
"305 565 CURVE SMOOTH",
"359 565 OFFCURVE",
"399 560 OFFCURVE",
"424 550 CURVE",
"450 539 OFFCURVE",
"462 519 OFFCURVE",
"462 491 CURVE SMOOTH",
"462 476 OFFCURVE",
"459 460 OFFCURVE",
"452 441 CURVE SMOOTH",
"438 400 OFFCURVE",
"424 365 OFFCURVE",
"405 336 CURVE",
"375 295 OFFCURVE",
"336 261 OFFCURVE",
"299 228 CURVE",
"286 215 OFFCURVE",
"271 203 OFFCURVE",
"256 189 CURVE SMOOTH",
"226 161 LINE",
"226 162 LINE",
"169 111 OFFCURVE",
"106 43 OFFCURVE",
"73 -27 CURVE SMOOTH",
"67 -40 OFFCURVE",
"64 -52 OFFCURVE",
"64 -63 CURVE SMOOTH",
"64 -77 OFFCURVE",
"70 -88 OFFCURVE",
"77 -96 CURVE",
"124 -149 OFFCURVE",
"179 -175 OFFCURVE",
"258 -189 CURVE SMOOTH",
"286 -194 OFFCURVE",
"314 -197 OFFCURVE",
"344 -197 CURVE SMOOTH",
"351 -197 OFFCURVE",
"350 -197 OFFCURVE",
"357 -197 CURVE SMOOTH",
"396 -197 OFFCURVE",
"437 -194 OFFCURVE",
"479 -187 CURVE",
"519 -180 OFFCURVE",
"571 -171 OFFCURVE",
"604 -162 CURVE SMOOTH",
"618 -158 OFFCURVE",
"646 -147 OFFCURVE",
"649 -164 CURVE SMOOTH",
"649 -167 OFFCURVE",
"647 -172 OFFCURVE",
"641 -178 CURVE",
"641 -177 LINE"
);
}
);
width = 188;
},
{
associatedMasterId = "1467EB51-6BD4-4CFC-AEAA-3E4EB1A95CFA";
layerId = "E2EFFA43-7456-4526-99BB-AB84A515EE0D";
name = Back;
paths = (
{
closed = 1;
nodes = (
"382.324 408.203 OFFCURVE",
"379.395 409.18 QCURVE SMOOTH",
"332.52 419.434 OFFCURVE",
"263.672 419.434 OFFCURVE",
"194.824 419.434 OFFCURVE",
"160.645 413.086 QCURVE",
"143.066 409.18 OFFCURVE",
"148.193 432.129 OFFCURVE",
"153.32 455.078 OFFCURVE",
"165.039 478.516 QCURVE SMOOTH",
"189.453 526.855 OFFCURVE",
"207.031 553.711 QCURVE",
"231.445 559.57 OFFCURVE",
"311.523 560.059 OFFCURVE",
"391.602 560.547 OFFCURVE",
"428.711 545.898 QCURVE",
"478.027 525.391 OFFCURVE",
"450.928 448.486 OFFCURVE",
"423.828 371.582 OFFCURVE",
"403.809 343.262 QCURVE",
"378.906 309.082 OFFCURVE",
"348.633 280.762 OFFCURVE",
"318.359 252.441 OFFCURVE",
"289.062 226.562 QCURVE SMOOTH",
"268.066 208.008 OFFCURVE",
"219.482 164.062 OFFCURVE",
"170.898 120.117 OFFCURVE",
"126.953 68.115 OFFCURVE",
"83.008 16.113 OFFCURVE",
"59.326 -35.156 OFFCURVE",
"35.645 -86.426 OFFCURVE",
"64.941 -119.629 QCURVE SMOOTH",
"115.723 -176.758 OFFCURVE",
"186.768 -201.172 OFFCURVE",
"257.812 -225.586 OFFCURVE",
"335.449 -228.271 OFFCURVE",
"413.086 -230.957 OFFCURVE",
"491.211 -217.773 QCURVE SMOOTH",
"607.91 -198.242 OFFCURVE",
"634.766 -187.988 QCURVE SMOOTH",
"638.672 -186.523 OFFCURVE",
"645.02 -185.547 OFFCURVE",
"651.367 -184.57 OFFCURVE",
"648.438 -187.988 QCURVE SMOOTH",
"587.402 -261.719 OFFCURVE",
"487.061 -308.35 OFFCURVE",
"386.719 -354.98 OFFCURVE",
"286.377 -361.816 OFFCURVE",
"186.035 -368.652 OFFCURVE",
"105.957 -329.346 OFFCURVE",
"25.879 -290.039 OFFCURVE",
"5.371 -191.895 QCURVE SMOOTH",
"-16.602 -85.938 OFFCURVE",
"49.072 45.898 OFFCURVE",
"114.746 177.734 OFFCURVE",
"182.129 239.746 QCURVE",
"260.742 301.27 LINE",
"291.016 323.242 OFFCURVE",
"326.172 347.168 OFFCURVE",
"361.328 371.094 OFFCURVE",
"387.207 395.02 QCURVE"
);
}
);
width = 188;
},
{
associatedMasterId = "EF321139-F770-433D-B2B6-C3EFA1B16465";
layerId = "75F6211A-2A74-4412-8E85-38748CDA8CDA";
name = Back;
paths = (
{
closed = 1;
nodes = (
"329.102 367.676 OFFCURVE",
"342.041 377.441 OFFCURVE",
"354.98 387.207 OFFCURVE",
"366.211 396.973 QCURVE",
"323.242 405.273 OFFCURVE",
"271.484 405.273 QCURVE",
"245.117 405.762 OFFCURVE",
"222.9 404.297 OFFCURVE",
"200.684 402.832 OFFCURVE",
"183.105 399.902 QCURVE",
"183.594 400.391 LINE",
"152.832 394.531 OFFCURVE",
"150.879 426.27 QCURVE SMOOTH",
"149.414 447.754 OFFCURVE",
"157.227 475.098 QCURVE",
"166.016 501.465 OFFCURVE",
"178.711 525.391 QCURVE SMOOTH",
"190.43 546.875 OFFCURVE",
"190.918 548.828 QCURVE SMOOTH",
"191.406 551.758 OFFCURVE",
"194.336 554.443 OFFCURVE",
"197.266 557.129 OFFCURVE",
"199.707 558.105 QCURVE SMOOTH",
"226.562 564.453 OFFCURVE",
"305.176 564.941 QCURVE SMOOTH",
"385.742 565.43 OFFCURVE",
"423.828 550.293 QCURVE",
"462.402 533.691 OFFCURVE",
"462.402 491.211 QCURVE SMOOTH",
"462.402 468.75 OFFCURVE",
"452.148 440.918 QCURVE",
"438.965 402.832 OFFCURVE",
"427.246 377.197 OFFCURVE",
"415.527 351.562 OFFCURVE",
"405.273 336.426 QCURVE",
"381.836 304.199 OFFCURVE",
"354.004 277.832 OFFCURVE",
"326.172 251.465 OFFCURVE",
"299.316 228.027 QCURVE",
"292.969 221.68 LINE",
"286.133 216.309 OFFCURVE",
"276.855 208.008 OFFCURVE",
"267.578 199.707 OFFCURVE",
"255.859 188.965 QCURVE SMOOTH",
"225.586 161.133 LINE",
"225.586 161.621 LINE",
"202.148 140.625 OFFCURVE",
"180.176 117.676 OFFCURVE",
"158.203 94.727 OFFCURVE",
"137.207 69.824 QCURVE SMOOTH",
"96.191 21.484 OFFCURVE",
"73.242 -27.344 QCURVE",
"73.242 -26.855 LINE",
"64.453 -46.875 OFFCURVE",
"64.453 -62.988 QCURVE SMOOTH",
"64.453 -72.266 OFFCURVE",
"67.871 -80.322 OFFCURVE",
"71.289 -88.379 OFFCURVE",
"77.148 -95.703 QCURVE",
"125 -149.414 OFFCURVE",
"189.453 -171.387 QCURVE SMOOTH",
"223.145 -183.105 OFFCURVE",
"258.301 -189.453 OFFCURVE",
"293.457 -195.801 OFFCURVE",
"330.078 -196.777 QCURVE SMOOTH",
"336.914 -197.266 OFFCURVE",
"343.506 -197.266 OFFCURVE",
"350.098 -197.266 OFFCURVE",
"356.934 -197.266 QCURVE SMOOTH",
"415.527 -197.266 OFFCURVE",
"478.516 -187.012 QCURVE",
"517.09 -180.176 OFFCURVE",
"551.514 -173.34 OFFCURVE",
"585.938 -166.504 OFFCURVE",
"604.004 -161.621 OFFCURVE",
"622.07 -156.738 OFFCURVE",
"629.883 -155.762 OFFCURVE",
"637.695 -154.785 OFFCURVE",
"642.822 -156.738 OFFCURVE",
"647.949 -158.691 OFFCURVE",
"648.682 -163.574 OFFCURVE",
"649.414 -168.457 OFFCURVE",
"641.113 -177.734 QCURVE",
"641.113 -177.246 LINE",
"581.055 -250.488 OFFCURVE",
"480.469 -296.875 QCURVE",
"480.957 -296.875 LINE",
"382.812 -343.262 OFFCURVE",
"282.227 -349.609 QCURVE SMOOTH",
"275.391 -350.098 OFFCURVE",
"268.311 -350.342 OFFCURVE",
"261.23 -350.586 OFFCURVE",
"254.395 -350.586 QCURVE SMOOTH",
"172.363 -350.586 OFFCURVE",
"102.539 -316.406 QCURVE SMOOTH",
"62.5 -296.387 OFFCURVE",
"36.621 -260.498 OFFCURVE",
"10.742 -224.609 OFFCURVE",
"-0.488 -175.781 QCURVE SMOOTH",
"-3.906 -162.109 OFFCURVE",
"-5.127 -148.438 OFFCURVE",
"-6.348 -134.766 OFFCURVE",
"-6.348 -120.605 QCURVE SMOOTH",
"-6.348 -37.598 OFFCURVE",
"42.48 61.523 QCURVE",
"107.422 190.918 OFFCURVE",
"173.34 252.441 QCURVE",
"250 312.5 LINE SMOOTH",
"264.16 323.242 OFFCURVE",
"280.518 334.473 OFFCURVE",
"296.875 345.703 OFFCURVE",
"313.965 356.934 QCURVE"
);
}
);
width = 188;
}
);
},
